_RobotoSerifText-HairlineWide.ufo
<glyph name="exclam" format="2">
  <advance width="244"/>
  <unicode hex="0021"/>
  <outline>
    <contour>
      <point x="148" y="735" type="line"/>
      <point x="148" y="544"/>
      <point x="137" y="431"/>
      <point x="137" y="171" type="curve"/>
      <point x="107" y="171" type="line"/>
      <point x="107" y="431"/>
      <point x="97" y="543"/>
      <point x="97" y="735" type="curve"/>
    </contour>
    <component base="period" xOffset="11"/>
  </outline>
</glyph>
<glyph name="dollar" format="2">
  <advance width="652"/>
  <unicode hex="0024"/>
  <outline>
    <contour>
      <point x="316" y="787" type="line"/>
      <point x="316" y="688" type="line"/>
      <point x="316" y="678" type="line"/>
      <point x="316" y="30" type="line"/>
      <point x="316" y="24" type="line"/>
      <point x="316" y="-120" type="line"/>
      <point x="356" y="-120" type="line"/>
      <point x="356" y="22" type="line"/>
      <point x="356" y="27" type="line"/>
      <point x="356" y="675" type="line"/>
      <point x="356" y="688" type="line"/>
      <point x="356" y="787" type="line"/>
    </contour>
    <contour>
      <point x="342" y="39" type="curve" smooth="yes"/>
      <point x="235" y="39"/>
      <point x="132" y="69"/>
      <point x="84" y="126" type="curve"/>
      <point x="76" y="109"/>
      <point x="90" y="99"/>
      <point x="104" y="80" type="curve"/>
      <point x="104" y="185" type="line"/>
      <point x="54" y="185" type="line"/>
      <point x="54" y="96" type="line"/>
      <point x="105" y="49"/>
      <point x="216" y="8"/>
      <point x="342" y="8" type="curve" smooth="yes"/>
      <point x="487" y="8"/>
      <point x="602" y="72"/>
      <point x="602" y="195" type="curve" smooth="yes"/>
      <point x="602" y="318"/>
      <point x="475" y="355"/>
      <point x="370" y="379" type="curve" smooth="yes"/>
      <point x="249" y="405"/>
      <point x="128" y="430"/>
      <point x="128" y="533" type="curve" smooth="yes"/>
      <point x="128" y="618"/>
      <point x="214" y="667"/>
      <point x="339" y="667" type="curve" smooth="yes"/>
      <point x="439" y="667"/>
      <point x="515" y="642"/>
      <point x="549" y="604" type="curve"/>
      <point x="555" y="626"/>
      <point x="538" y="650"/>
      <point x="520" y="653" type="curve"/>
      <point x="520" y="552" type="line"/>
      <point x="574" y="552" type="line"/>
      <point x="574" y="639" type="line"/>
      <point x="537" y="665"/>
      <point x="454" y="698"/>
      <point x="340" y="698" type="curve" smooth="yes"/>
      <point x="194" y="698"/>
      <point x="90" y="632"/>
      <point x="90" y="530" type="curve" smooth="yes"/>
      <point x="90" y="408"/>
      <point x="214" y="375"/>
      <point x="315" y="350" type="curve" smooth="yes"/>
      <point x="438" y="324"/>
      <point x="566" y="305"/>
      <point x="566" y="188" type="curve" smooth="yes"/>
      <point x="566" y="85"/>
      <point x="468" y="39"/>
    </contour>
  </outline>
</glyph>
<glyph name="asterisk" format="2">
  <advance width="453"/>
  <unicode hex="002A"/>
  <outline>
    <contour>
      <point x="61" y="432" type="line"/>
      <point x="114" y="458"/>
      <point x="138" y="480"/>
      <point x="232" y="527" type="curve"/>
      <point x="221" y="545" type="line"/>
      <point x="127" y="498"/>
      <point x="93" y="491"/>
      <point x="41" y="465" type="curve"/>
    </contour>
    <contour>
      <point x="206" y="710" type="line"/>
      <point x="206" y="658"/>
      <point x="216" y="629"/>
      <point x="216" y="536" type="curve"/>
      <point x="237" y="536" type="line"/>
      <point x="237" y="629"/>
      <point x="247" y="658"/>
      <point x="247" y="710" type="curve"/>
    </contour>
    <contour>
      <point x="41" y="607" type="line"/>
      <point x="93" y="580"/>
      <point x="127" y="574"/>
      <point x="221" y="527" type="curve"/>
      <point x="232" y="545" type="line"/>
      <point x="138" y="591"/>
      <point x="114" y="613"/>
      <point x="61" y="639" type="curve"/>
    </contour>
    <contour>
      <point x="206" y="362" type="curve"/>
      <point x="247" y="362" type="line"/>
      <point x="247" y="414"/>
      <point x="237" y="443"/>
      <point x="237" y="536" type="curve"/>
      <point x="216" y="536" type="line"/>
      <point x="216" y="443"/>
      <point x="206" y="414"/>
    </contour>
    <contour>
      <point x="232" y="527" type="line"/>
      <point x="326" y="574"/>
      <point x="360" y="580"/>
      <point x="412" y="607" type="curve"/>
      <point x="392" y="639" type="line"/>
      <point x="339" y="613"/>
      <point x="315" y="591"/>
      <point x="221" y="545" type="curve"/>
    </contour>
    <contour>
      <point x="392" y="432" type="curve"/>
      <point x="412" y="465" type="line"/>
      <point x="360" y="491"/>
      <point x="326" y="498"/>
      <point x="232" y="545" type="curve"/>
      <point x="221" y="527" type="line"/>
      <point x="315" y="480"/>
      <point x="339" y="458"/>
    </contour>
  </outline>
</glyph>
<glyph name="plus" format="2">
  <advance width="652"/>
  <unicode hex="002B"/>
  <outline>
    <contour>
      <point x="308" y="534" type="line"/>
      <point x="308" y="148" type="line"/>
      <point x="343" y="148" type="line"/>
      <point x="343" y="534" type="line"/>
    </contour>
    <contour>
      <point x="542" y="357" type="line"/>
      <point x="111" y="357" type="line"/>
      <point x="111" y="325" type="line"/>
      <point x="542" y="325" type="line"/>
    </contour>
  </outline>
</glyph>
<glyph name="slash" format="2">
  <advance width="489"/>
  <unicode hex="002F"/>
  <outline>
    <contour>
      <point x="516" y="750" type="line"/>
      <point x="12" y="-130" type="line"/>
      <point x="-26" y="-130" type="line"/>
      <point x="477" y="750" type="line"/>
    </contour>
  </outline>
</glyph>
<glyph name="zero" format="2">
  <advance width="652"/>
  <unicode hex="0030"/>
  <outline>
    <contour>
      <point x="326" y="-11" type="curve" smooth="yes"/>
      <point x="484" y="-11"/>
      <point x="605" y="122"/>
      <point x="605" y="304" type="curve" smooth="yes"/>
      <point x="605" y="486"/>
      <point x="484" y="619"/>
      <point x="326" y="619" type="curve" smooth="yes"/>
      <point x="168" y="619"/>
      <point x="47" y="486"/>
      <point x="47" y="304" type="curve" smooth="yes"/>
      <point x="47" y="122"/>
      <point x="169" y="-11"/>
    </contour>
    <contour>
      <point x="326" y="20" type="curve" smooth="yes"/>
      <point x="183" y="20"/>
      <point x="91" y="135"/>
      <point x="91" y="304" type="curve" smooth="yes"/>
      <point x="91" y="472"/>
      <point x="183" y="588"/>
      <point x="326" y="588" type="curve" smooth="yes"/>
      <point x="469" y="588"/>
      <point x="561" y="472"/>
      <point x="561" y="304" type="curve" smooth="yes"/>
      <point x="561" y="134"/>
      <point x="469" y="20"/>
    </contour>
  </outline>
</glyph>
<glyph name="one" format="2">
  <advance width="652"/>
  <unicode hex="0031"/>
  <outline>
    <contour>
      <point x="386" y="64" type="curve" smooth="yes"/>
      <point x="386" y="609" type="line"/>
      <point x="361" y="609" type="line"/>
      <point x="322" y="557"/>
      <point x="240" y="535"/>
      <point x="140" y="533" type="curve"/>
      <point x="140" y="502" type="line"/>
      <point x="232" y="500"/>
      <point x="330" y="526"/>
      <point x="353" y="572" type="curve"/>
      <point x="346" y="571" type="line"/>
      <point x="346" y="64" type="line" smooth="yes"/>
      <point x="346" y="35"/>
      <point x="299" y="28"/>
      <point x="223" y="28" type="curve" smooth="yes"/>
      <point x="151" y="28" type="line"/>
      <point x="151" y="0" type="line"/>
      <point x="573" y="0" type="line"/>
      <point x="573" y="28" type="line"/>
      <point x="520" y="28" type="line" smooth="yes"/>
      <point x="437" y="28"/>
      <point x="386" y="35"/>
    </contour>
  </outline>
</glyph>
<glyph name="three" format="2">
  <advance width="652"/>
  <unicode hex="0033"/>
  <outline>
    <contour>
      <point x="315" y="289" type="line"/>
      <point x="512" y="289"/>
      <point x="584" y="210"/>
      <point x="584" y="109" type="curve" smooth="yes"/>
      <point x="584" y="-8"/>
      <point x="473" y="-90"/>
      <point x="319" y="-90" type="curve" smooth="yes"/>
      <point x="168" y="-90"/>
      <point x="74" y="-20"/>
      <point x="31" y="75" type="curve"/>
      <point x="62" y="91" type="line"/>
      <point x="97" y="15"/>
      <point x="176" y="-59"/>
      <point x="319" y="-59" type="curve" smooth="yes"/>
      <point x="452" y="-59"/>
      <point x="540" y="2"/>
      <point x="540" y="109" type="curve" smooth="yes"/>
      <point x="540" y="206"/>
      <point x="464" y="269"/>
      <point x="305" y="269" type="curve" smooth="yes"/>
      <point x="222" y="269" type="line"/>
      <point x="222" y="299" type="line"/>
      <point x="291" y="299" type="line" smooth="yes"/>
      <point x="412" y="299"/>
      <point x="502" y="347"/>
      <point x="502" y="442" type="curve" smooth="yes"/>
      <point x="502" y="545"/>
      <point x="422" y="587"/>
      <point x="320" y="587" type="curve" smooth="yes"/>
      <point x="220" y="587"/>
      <point x="158" y="551"/>
      <point x="125" y="519" type="curve"/>
      <point x="130" y="544"/>
      <point x="148" y="568"/>
      <point x="148" y="570" type="curve"/>
      <point x="148" y="467" type="line"/>
      <point x="97" y="467" type="line"/>
      <point x="97" y="547" type="line"/>
      <point x="132" y="576"/>
      <point x="202" y="618"/>
      <point x="323" y="618" type="curve" smooth="yes"/>
      <point x="453" y="618"/>
      <point x="546" y="553"/>
      <point x="546" y="454" type="curve" smooth="yes"/>
      <point x="546" y="335"/>
      <point x="419" y="279"/>
      <point x="294" y="279" type="curve"/>
      <point x="343" y="293" type="line"/>
      <point x="343" y="276" type="line"/>
    </contour>
  </outline>
</glyph>
<glyph name="nine" format="2">
  <advance width="652"/>
  <unicode hex="0039"/>
  <outline>
    <contour>
      <point x="110" y="-62" type="line"/>
      <point x="373" y="-45"/>
      <point x="548" y="106"/>
      <point x="548" y="336" type="curve" smooth="yes"/>
      <point x="548" y="505"/>
      <point x="456" y="588"/>
      <point x="319" y="588" type="curve" smooth="yes"/>
      <point x="179" y="588"/>
      <point x="96" y="500"/>
      <point x="96" y="390" type="curve" smooth="yes"/>
      <point x="96" y="286"/>
      <point x="175" y="208"/>
      <point x="303" y="208" type="curve" smooth="yes"/>
      <point x="420" y="208"/>
      <point x="513" y="283"/>
      <point x="565" y="371" type="curve"/>
      <point x="578" y="347" type="line"/>
      <point x="531" y="260"/>
      <point x="428" y="177"/>
      <point x="301" y="177" type="curve" smooth="yes"/>
      <point x="151" y="177"/>
      <point x="52" y="265"/>
      <point x="52" y="390" type="curve" smooth="yes"/>
      <point x="52" y="514"/>
      <point x="163" y="619"/>
      <point x="319" y="619" type="curve" smooth="yes"/>
      <point x="476" y="619"/>
      <point x="593" y="515"/>
      <point x="593" y="336" type="curve" smooth="yes"/>
      <point x="593" y="105"/>
      <point x="410" y="-76"/>
      <point x="115" y="-93" type="curve"/>
    </contour>
  </outline>
</glyph>
<glyph name="less" format="2">
  <advance width="652"/>
  <unicode hex="003C"/>
  <outline>
    <contour>
      <point x="535" y="530" type="line"/>
      <point x="117" y="353" type="line"/>
      <point x="117" y="327" type="line"/>
      <point x="140" y="326" type="line"/>
      <point x="535" y="492" type="line"/>
    </contour>
    <contour>
      <point x="535" y="172" type="line"/>
      <point x="136" y="339" type="line"/>
      <point x="117" y="338" type="line"/>
      <point x="117" y="310" type="line"/>
      <point x="535" y="133" type="line"/>
    </contour>
  </outline>
</glyph>
<glyph name="question" format="2">
  <advance width="600"/>
  <unicode hex="003F"/>
  <outline>
    <contour>
      <point x="256" y="347" type="line"/>
      <point x="382" y="387"/>
      <point x="479" y="433"/>
      <point x="479" y="559" type="curve" smooth="yes"/>
      <point x="479" y="659"/>
      <point x="405" y="709"/>
      <point x="297" y="709" type="curve" smooth="yes"/>
      <point x="200" y="709"/>
      <point x="143" y="673"/>
      <point x="111" y="635" type="curve"/>
      <point x="112" y="649"/>
      <point x="105" y="667"/>
      <point x="134" y="672" type="curve"/>
      <point x="134" y="583" type="line"/>
      <point x="83" y="583" type="line"/>
      <point x="83" y="665" type="line"/>
      <point x="119" y="695"/>
      <point x="188" y="740"/>
      <point x="297" y="740" type="curve" smooth="yes"/>
      <point x="435" y="740"/>
      <point x="523" y="671"/>
      <point x="523" y="559" type="curve" smooth="yes"/>
      <point x="523" y="424"/>
      <point x="400" y="360"/>
      <point x="291" y="325" type="curve"/>
      <point x="291" y="194" type="line"/>
      <point x="256" y="194" type="line"/>
    </contour>
    <component base="period" xOffset="162"/>
  </outline>
</glyph>
<glyph name="A" format="2">
  <advance width="788"/>
  <unicode hex="0041"/>
  <anchor x="393" y="721" name="top"/>
  <anchor x="590" y="0" name="right"/>
  <anchor x="393" y="0" name="bottom"/>
  <outline>
    <contour>
      <point x="208" y="298" type="line"/>
      <point x="209" y="267" type="line"/>
      <point x="575" y="267" type="line"/>
      <point x="575" y="298" type="line"/>
    </contour>
    <contour>
      <point x="383" y="703" type="line"/>
      <point x="657" y="41" type="line"/>
      <point x="657" y="34"/>
      <point x="601" y="31"/>
      <point x="556" y="31" type="curve" smooth="yes"/>
      <point x="536" y="31" type="line"/>
      <point x="536" y="0" type="line"/>
      <point x="775" y="0" type="line"/>
      <point x="775" y="31" type="line"/>
      <point x="770" y="31" type="line"/>
      <point x="730" y="31"/>
      <point x="704" y="33"/>
      <point x="694" y="59" type="curve" smooth="yes"/>
      <point x="423" y="710" type="line"/>
      <point x="362" y="710" type="line"/>
      <point x="99" y="74" type="line" smooth="yes"/>
      <point x="84" y="37"/>
      <point x="61" y="31"/>
      <point x="17" y="31" type="curve"/>
      <point x="12" y="31" type="line"/>
      <point x="12" y="0" type="line"/>
      <point x="245" y="0" type="line"/>
      <point x="245" y="31" type="line"/>
      <point x="227" y="31" type="line" smooth="yes"/>
      <point x="183" y="31"/>
      <point x="130" y="38"/>
      <point x="130" y="49" type="curve"/>
      <point x="395" y="691" type="line"/>
    </contour>
  </outline>
</glyph>
<glyph name="E" format="2">
  <advance width="689"/>
  <unicode hex="0045"/>
  <anchor x="398" y="741" name="top"/>
  <anchor x="457" y="0" name="right"/>
  <anchor x="398" y="0" name="bottom"/>
  <outline>
    <contour>
      <point x="625" y="189" type="line"/>
      <point x="598" y="189" type="line"/>
      <point x="587" y="74" type="line" smooth="yes"/>
      <point x="584" y="38"/>
      <point x="542" y="31"/>
      <point x="442" y="31" type="curve" smooth="yes"/>
      <point x="205" y="31" type="line"/>
      <point x="205" y="679" type="line"/>
      <point x="408" y="679" type="line" smooth="yes"/>
      <point x="508" y="679"/>
      <point x="549" y="672"/>
      <point x="553" y="636" type="curve" smooth="yes"/>
      <point x="564" y="546" type="line"/>
      <point x="590" y="546" type="line"/>
      <point x="590" y="710" type="line"/>
      <point x="52" y="710" type="line"/>
      <point x="52" y="679" type="line"/>
      <point x="65" y="679" type="line" smooth="yes"/>
      <point x="122" y="679"/>
      <point x="164" y="672"/>
      <point x="164" y="643" type="curve" smooth="yes"/>
      <point x="164" y="67" type="line" smooth="yes"/>
      <point x="164" y="38"/>
      <point x="122" y="31"/>
      <point x="65" y="31" type="curve" smooth="yes"/>
      <point x="52" y="31" type="line"/>
      <point x="52" y="0" type="line"/>
      <point x="625" y="0" type="line"/>
    </contour>
    <contour>
      <point x="182" y="378" type="curve"/>
      <point x="182" y="350" type="line"/>
      <point x="288" y="349"/>
      <point x="396" y="346"/>
      <point x="501" y="345" type="curve"/>
      <point x="501" y="383" type="line"/>
      <point x="396" y="381"/>
      <point x="288" y="379"/>
    </contour>
  </outline>
</glyph>
<glyph name="G" format="2">
  <advance width="856"/>
  <unicode hex="0047"/>
  <anchor x="437" y="741" name="top"/>
  <anchor x="437" y="0" name="bottom"/>
  <outline>
    <contour>
      <point x="737" y="286" type="line" smooth="yes"/>
      <point x="737" y="315"/>
      <point x="775" y="322"/>
      <point x="825" y="322" type="curve" smooth="yes"/>
      <point x="829" y="322" type="line"/>
      <point x="829" y="353" type="line"/>
      <point x="591" y="353" type="line"/>
      <point x="591" y="322" type="line"/>
      <point x="604" y="322" type="line" smooth="yes"/>
      <point x="661" y="322"/>
      <point x="703" y="315"/>
      <point x="703" y="286" type="curve" smooth="yes"/>
      <point x="703" y="112" type="line"/>
      <point x="674" y="83"/>
      <point x="597" y="21"/>
      <point x="446" y="21" type="curve" smooth="yes"/>
      <point x="228" y="21"/>
      <point x="98" y="148"/>
      <point x="98" y="355" type="curve" smooth="yes"/>
      <point x="98" y="556"/>
      <point x="239" y="689"/>
      <point x="428" y="689" type="curve" smooth="yes"/>
      <point x="580" y="689"/>
      <point x="671" y="610"/>
      <point x="706" y="506" type="curve"/>
      <point x="740" y="506" type="line"/>
      <point x="740" y="710" type="line"/>
      <point x="713" y="710" type="line"/>
      <point x="700" y="548" type="line"/>
      <point x="715" y="568" type="line"/>
      <point x="669" y="658"/>
      <point x="559" y="720"/>
      <point x="428" y="720" type="curve" smooth="yes"/>
      <point x="219" y="720"/>
      <point x="55" y="569"/>
      <point x="55" y="355" type="curve" smooth="yes"/>
      <point x="55" y="137"/>
      <point x="211" y="-10"/>
      <point x="445" y="-10" type="curve" smooth="yes"/>
      <point x="588" y="-10"/>
      <point x="698" y="51"/>
      <point x="737" y="102" type="curve"/>
    </contour>
  </outline>
</glyph>
<glyph name="H" format="2">
  <advance width="901"/>
  <unicode hex="0048"/>
  <anchor x="451" y="741" name="top"/>
  <anchor x="451" y="0" name="bottom"/>
  <outline>
    <contour>
      <point x="197" y="381" type="line"/>
      <point x="197" y="351" type="line"/>
      <point x="730" y="351" type="line"/>
      <point x="730" y="381" type="line"/>
    </contour>
    <contour>
      <point x="52" y="0" type="line"/>
      <point x="316" y="0" type="line"/>
      <point x="316" y="31" type="line"/>
      <point x="306" y="31" type="line" smooth="yes"/>
      <point x="262" y="31"/>
      <point x="205" y="34"/>
      <point x="205" y="41" type="curve" smooth="yes"/>
      <point x="205" y="669" type="line" smooth="yes"/>
      <point x="205" y="676"/>
      <point x="262" y="679"/>
      <point x="306" y="679" type="curve" smooth="yes"/>
      <point x="316" y="679" type="line"/>
      <point x="316" y="710" type="line"/>
      <point x="52" y="710" type="line"/>
      <point x="52" y="679" type="line"/>
      <point x="65" y="679" type="line" smooth="yes"/>
      <point x="122" y="679"/>
      <point x="164" y="672"/>
      <point x="164" y="643" type="curve" smooth="yes"/>
      <point x="164" y="67" type="line" smooth="yes"/>
      <point x="164" y="38"/>
      <point x="122" y="31"/>
      <point x="65" y="31" type="curve" smooth="yes"/>
      <point x="52" y="31" type="line"/>
    </contour>
    <contour>
      <point x="585" y="0" type="line"/>
      <point x="849" y="0" type="line"/>
      <point x="849" y="31" type="line"/>
      <point x="836" y="31" type="line" smooth="yes"/>
      <point x="779" y="31"/>
      <point x="737" y="38"/>
      <point x="737" y="67" type="curve" smooth="yes"/>
      <point x="737" y="643" type="line" smooth="yes"/>
      <point x="737" y="672"/>
      <point x="779" y="679"/>
      <point x="836" y="679" type="curve" smooth="yes"/>
      <point x="849" y="679" type="line"/>
      <point x="849" y="710" type="line"/>
      <point x="585" y="710" type="line"/>
      <point x="585" y="679" type="line"/>
      <point x="595" y="679" type="line" smooth="yes"/>
      <point x="640" y="679"/>
      <point x="696" y="676"/>
      <point x="696" y="669" type="curve" smooth="yes"/>
      <point x="696" y="41" type="line" smooth="yes"/>
      <point x="696" y="34"/>
      <point x="640" y="31"/>
      <point x="595" y="31" type="curve" smooth="yes"/>
      <point x="585" y="31" type="line"/>
    </contour>
  </outline>
</glyph>
<glyph name="J" format="2">
  <advance width="609"/>
  <unicode hex="004A"/>
  <anchor x="394" y="741" name="top"/>
  <outline>
    <contour>
      <point x="281" y="710" type="line"/>
      <point x="281" y="679" type="line"/>
      <point x="305" y="679" type="line" smooth="yes"/>
      <point x="362" y="679"/>
      <point x="404" y="672"/>
      <point x="404" y="643" type="curve" smooth="yes"/>
      <point x="404" y="219" type="line" smooth="yes"/>
      <point x="404" y="71"/>
      <point x="333" y="21"/>
      <point x="229" y="21" type="curve" smooth="yes"/>
      <point x="138" y="21"/>
      <point x="93" y="57"/>
      <point x="62" y="90" type="curve"/>
      <point x="56" y="82"/>
      <point x="55" y="49"/>
      <point x="92" y="45" type="curve"/>
      <point x="92" y="136" type="line"/>
      <point x="39" y="136" type="line"/>
      <point x="39" y="57" type="line"/>
      <point x="73" y="24"/>
      <point x="135" y="-10"/>
      <point x="229" y="-10" type="curve" smooth="yes"/>
      <point x="354" y="-10"/>
      <point x="445" y="49"/>
      <point x="445" y="219" type="curve" smooth="yes"/>
      <point x="445" y="643" type="line" smooth="yes"/>
      <point x="445" y="672"/>
      <point x="487" y="679"/>
      <point x="544" y="679" type="curve" smooth="yes"/>
      <point x="557" y="679" type="line"/>
      <point x="557" y="710" type="line"/>
    </contour>
  </outline>
</glyph>
<glyph name="M" format="2">
  <advance width="1037"/>
  <unicode hex="004D"/>
  <anchor x="508" y="0" name="bottom"/>
  <outline>
    <contour>
      <point x="52" y="0" type="line"/>
      <point x="302" y="0" type="line"/>
      <point x="302" y="31" type="line"/>
      <point x="297" y="31" type="line" smooth="yes"/>
      <point x="258" y="31"/>
      <point x="202" y="34"/>
      <point x="202" y="41" type="curve" smooth="yes"/>
      <point x="202" y="697" type="line"/>
      <point x="198" y="700" type="line"/>
      <point x="501" y="-2" type="line"/>
      <point x="535" y="-2" type="line"/>
      <point x="838" y="699" type="line"/>
      <point x="832" y="701" type="line"/>
      <point x="832" y="41" type="line" smooth="yes"/>
      <point x="832" y="34"/>
      <point x="786" y="31"/>
      <point x="743" y="31" type="curve" smooth="yes"/>
      <point x="732" y="31" type="line"/>
      <point x="732" y="0" type="line"/>
      <point x="985" y="0" type="line"/>
      <point x="985" y="31" type="line"/>
      <point x="972" y="31" type="line" smooth="yes"/>
      <point x="915" y="31"/>
      <point x="873" y="38"/>
      <point x="873" y="67" type="curve" smooth="yes"/>
      <point x="873" y="643" type="line" smooth="yes"/>
      <point x="873" y="672"/>
      <point x="915" y="679"/>
      <point x="972" y="679" type="curve" smooth="yes"/>
      <point x="985" y="679" type="line"/>
      <point x="985" y="710" type="line"/>
      <point x="801" y="710" type="line"/>
      <point x="513" y="44" type="line"/>
      <point x="525" y="42" type="line"/>
      <point x="239" y="710" type="line"/>
      <point x="52" y="710" type="line"/>
      <point x="52" y="679" type="line"/>
      <point x="65" y="679" type="line" smooth="yes"/>
      <point x="122" y="679"/>
      <point x="164" y="672"/>
      <point x="164" y="643" type="curve" smooth="yes"/>
      <point x="164" y="67" type="line" smooth="yes"/>
      <point x="164" y="38"/>
      <point x="122" y="31"/>
      <point x="65" y="31" type="curve"/>
      <point x="52" y="31" type="line"/>
    </contour>
  </outline>
</glyph>
<glyph name="P" format="2">
  <advance width="697"/>
  <unicode hex="0050"/>
  <outline>
    <contour>
      <point x="204" y="41" type="line"/>
      <point x="204" y="34"/>
      <point x="254" y="31"/>
      <point x="294" y="31" type="curve" smooth="yes"/>
      <point x="325" y="31" type="line"/>
      <point x="325" y="0" type="line"/>
      <point x="52" y="0" type="line"/>
      <point x="52" y="31" type="line"/>
      <point x="65" y="31" type="line" smooth="yes"/>
      <point x="122" y="31"/>
      <point x="164" y="38"/>
      <point x="164" y="67" type="curve" smooth="yes"/>
      <point x="164" y="643" type="line" smooth="yes"/>
      <point x="164" y="672"/>
      <point x="122" y="679"/>
      <point x="65" y="679" type="curve" smooth="yes"/>
      <point x="52" y="679" type="line"/>
      <point x="52" y="710" type="line"/>
      <point x="370" y="710" type="line" smooth="yes"/>
      <point x="565" y="710"/>
      <point x="660" y="632"/>
      <point x="660" y="508" type="curve" smooth="yes"/>
      <point x="660" y="384"/>
      <point x="560" y="298"/>
      <point x="364" y="298" type="curve" smooth="yes"/>
      <point x="182" y="298" type="line"/>
      <point x="182" y="329" type="line"/>
      <point x="364" y="329" type="line" smooth="yes"/>
      <point x="539" y="329"/>
      <point x="616" y="399"/>
      <point x="616" y="507" type="curve" smooth="yes"/>
      <point x="616" y="616"/>
      <point x="538" y="679"/>
      <point x="370" y="679" type="curve" smooth="yes"/>
      <point x="204" y="679" type="line"/>
    </contour>
  </outline>
</glyph>
<glyph name="R" format="2">
  <advance width="761"/>
  <unicode hex="0052"/>
  <anchor x="421" y="741" name="top"/>
  <anchor x="421" y="0" name="bottom"/>
  <outline>
    <contour>
      <point x="413" y="330" type="line"/>
      <point x="448" y="345" type="line"/>
      <point x="632" y="59" type="line" smooth="yes"/>
      <point x="647" y="36"/>
      <point x="678" y="31"/>
      <point x="718" y="31" type="curve" smooth="yes"/>
      <point x="734" y="31" type="line"/>
      <point x="734" y="0" type="line"/>
      <point x="617" y="0" type="line"/>
    </contour>
    <contour>
      <point x="205" y="41" type="line" smooth="yes"/>
      <point x="205" y="34"/>
      <point x="255" y="31"/>
      <point x="294" y="31" type="curve" smooth="yes"/>
      <point x="304" y="31" type="line"/>
      <point x="304" y="0" type="line"/>
      <point x="52" y="0" type="line"/>
      <point x="52" y="31" type="line"/>
      <point x="65" y="31" type="line" smooth="yes"/>
      <point x="122" y="31"/>
      <point x="164" y="38"/>
      <point x="164" y="67" type="curve" smooth="yes"/>
      <point x="164" y="643" type="line" smooth="yes"/>
      <point x="164" y="672"/>
      <point x="122" y="679"/>
      <point x="65" y="679" type="curve" smooth="yes"/>
      <point x="52" y="679" type="line"/>
      <point x="52" y="710" type="line"/>
      <point x="366" y="710" type="line" smooth="yes"/>
      <point x="531" y="710"/>
      <point x="640" y="636"/>
      <point x="640" y="515" type="curve" smooth="yes"/>
      <point x="640" y="415"/>
      <point x="558" y="345"/>
      <point x="442" y="325" type="curve" smooth="yes"/>
      <point x="418" y="320"/>
      <point x="396" y="318"/>
      <point x="371" y="318" type="curve" smooth="yes"/>
      <point x="194" y="318" type="line"/>
      <point x="194" y="349" type="line"/>
      <point x="371" y="349" type="line" smooth="yes"/>
      <point x="523" y="349"/>
      <point x="596" y="424"/>
      <point x="596" y="515" type="curve" smooth="yes"/>
      <point x="596" y="620"/>
      <point x="510" y="679"/>
      <point x="364" y="679" type="curve" smooth="yes"/>
      <point x="205" y="679" type="line"/>
    </contour>
  </outline>
</glyph>
<glyph name="T" format="2">
  <advance width="732"/>
  <unicode hex="0054"/>
  <anchor x="371" y="741" name="top"/>
  <anchor x="371" y="0" name="bottom"/>
  <outline>
    <contour>
      <point x="346" y="67" type="line" smooth="yes"/>
      <point x="346" y="38"/>
      <point x="304" y="31"/>
      <point x="247" y="31" type="curve" smooth="yes"/>
      <point x="228" y="31" type="line"/>
      <point x="228" y="0" type="line"/>
      <point x="504" y="0" type="line"/>
      <point x="504" y="31" type="line"/>
      <point x="485" y="31" type="line" smooth="yes"/>
      <point x="428" y="31"/>
      <point x="386" y="38"/>
      <point x="386" y="67" type="curve" smooth="yes"/>
      <point x="386" y="679" type="line"/>
      <point x="503" y="679" type="line" smooth="yes"/>
      <point x="602" y="679"/>
      <point x="644" y="672"/>
      <point x="648" y="636" type="curve" smooth="yes"/>
      <point x="659" y="538" type="line"/>
      <point x="686" y="538" type="line"/>
      <point x="686" y="710" type="line"/>
      <point x="47" y="710" type="line"/>
      <point x="47" y="538" type="line"/>
      <point x="74" y="538" type="line"/>
      <point x="84" y="636" type="line" smooth="yes"/>
      <point x="87" y="672"/>
      <point x="129" y="679"/>
      <point x="230" y="679" type="curve" smooth="yes"/>
      <point x="346" y="679" type="line"/>
    </contour>
  </outline>
</glyph>
<glyph name="W" format="2">
  <advance width="1118"/>
  <unicode hex="0057"/>
  <anchor x="572" y="741" name="top"/>
  <outline>
    <contour>
      <point x="12" y="710" type="line"/>
      <point x="12" y="679" type="line"/>
      <point x="17" y="679" type="line" smooth="yes"/>
      <point x="61" y="679"/>
      <point x="87" y="676"/>
      <point x="98" y="642" type="curve" smooth="yes"/>
      <point x="307" y="0" type="line"/>
      <point x="352" y="0" type="line"/>
      <point x="569" y="684" type="line"/>
      <point x="549" y="684" type="line"/>
      <point x="779" y="0" type="line"/>
      <point x="828" y="0" type="line"/>
      <point x="1019" y="636" type="line" smooth="yes"/>
      <point x="1030" y="670"/>
      <point x="1059" y="679"/>
      <point x="1100" y="679" type="curve" smooth="yes"/>
      <point x="1105" y="679" type="line"/>
      <point x="1105" y="710" type="line"/>
      <point x="876" y="710" type="line"/>
      <point x="876" y="679" type="line"/>
      <point x="894" y="679" type="line" smooth="yes"/>
      <point x="938" y="679"/>
      <point x="992" y="672"/>
      <point x="992" y="661" type="curve"/>
      <point x="798" y="16" type="line"/>
      <point x="817" y="16" type="line"/>
      <point x="583" y="710" type="line"/>
      <point x="539" y="710" type="line"/>
      <point x="322" y="20" type="line"/>
      <point x="343" y="20" type="line"/>
      <point x="132" y="669" type="line"/>
      <point x="132" y="676"/>
      <point x="188" y="679"/>
      <point x="232" y="679" type="curve" smooth="yes"/>
      <point x="252" y="679" type="line"/>
      <point x="252" y="710" type="line"/>
    </contour>
  </outline>
</glyph>
<glyph name="X" format="2">
  <advance width="784"/>
  <unicode hex="0058"/>
  <outline>
    <contour>
      <point x="41" y="679" type="line"/>
      <point x="50" y="679" type="line" smooth="yes"/>
      <point x="93" y="679"/>
      <point x="117" y="678"/>
      <point x="142" y="647" type="curve" smooth="yes"/>
      <point x="372" y="353" type="line"/>
      <point x="380" y="349" type="line"/>
      <point x="623" y="41" type="line"/>
      <point x="623" y="34"/>
      <point x="570" y="31"/>
      <point x="528" y="31" type="curve" smooth="yes"/>
      <point x="508" y="31" type="line"/>
      <point x="508" y="0" type="line"/>
      <point x="762" y="0" type="line"/>
      <point x="762" y="31" type="line"/>
      <point x="750" y="31" type="line" smooth="yes"/>
      <point x="707" y="31"/>
      <point x="682" y="33"/>
      <point x="657" y="65" type="curve" smooth="yes"/>
      <point x="406" y="380" type="line"/>
      <point x="399" y="383" type="line"/>
      <point x="175" y="669" type="line"/>
      <point x="175" y="676"/>
      <point x="229" y="679"/>
      <point x="270" y="679" type="curve" smooth="yes"/>
      <point x="290" y="679" type="line"/>
      <point x="290" y="710" type="line"/>
      <point x="41" y="710" type="line"/>
    </contour>
    <contour>
      <point x="22" y="0" type="line"/>
      <point x="274" y="0" type="line"/>
      <point x="274" y="31" type="line"/>
      <point x="257" y="31" type="line" smooth="yes"/>
      <point x="214" y="31"/>
      <point x="158" y="38"/>
      <point x="158" y="49" type="curve"/>
      <point x="394" y="346" type="line"/>
      <point x="377" y="379" type="line"/>
      <point x="134" y="77" type="line" smooth="yes"/>
      <point x="104" y="40"/>
      <point x="76" y="31"/>
      <point x="34" y="31" type="curve" smooth="yes"/>
      <point x="22" y="31" type="line"/>
    </contour>
    <contour>
      <point x="409" y="361" type="line"/>
      <point x="626" y="634" type="line" smooth="yes"/>
      <point x="654" y="670"/>
      <point x="686" y="679"/>
      <point x="729" y="679" type="curve" smooth="yes"/>
      <point x="735" y="679" type="line"/>
      <point x="735" y="710" type="line"/>
      <point x="489" y="710" type="line"/>
      <point x="489" y="679" type="line"/>
      <point x="506" y="679" type="line" smooth="yes"/>
      <point x="550" y="679"/>
      <point x="603" y="672"/>
      <point x="603" y="661" type="curve"/>
      <point x="385" y="383" type="line"/>
    </contour>
  </outline>
</glyph>
<glyph name="Y" format="2">
  <advance width="764"/>
  <unicode hex="0059"/>
  <anchor x="385" y="741" name="top"/>
  <anchor x="385" y="0" name="bottom"/>
  <outline>
    <contour>
      <point x="363" y="311" type="line"/>
      <point x="363" y="67" type="line" smooth="yes"/>
      <point x="363" y="38"/>
      <point x="321" y="31"/>
      <point x="263" y="31" type="curve" smooth="yes"/>
      <point x="245" y="31" type="line"/>
      <point x="245" y="0" type="line"/>
      <point x="521" y="0" type="line"/>
      <point x="521" y="31" type="line"/>
      <point x="502" y="31" type="line" smooth="yes"/>
      <point x="445" y="31"/>
      <point x="403" y="38"/>
      <point x="403" y="67" type="curve" smooth="yes"/>
      <point x="403" y="311" type="line"/>
      <point x="391" y="278" type="line"/>
      <point x="641" y="638" type="line" smooth="yes"/>
      <point x="666" y="675"/>
      <point x="700" y="679"/>
      <point x="740" y="679" type="curve" smooth="yes"/>
      <point x="746" y="679" type="line"/>
      <point x="746" y="710" type="line"/>
      <point x="502" y="710" type="line"/>
      <point x="502" y="679" type="line"/>
      <point x="520" y="679" type="line" smooth="yes"/>
      <point x="564" y="679"/>
      <point x="617" y="672"/>
      <point x="617" y="661" type="curve"/>
      <point x="363" y="299" type="line"/>
      <point x="399" y="308" type="line"/>
      <point x="149" y="669" type="line"/>
      <point x="149" y="676"/>
      <point x="204" y="679"/>
      <point x="245" y="679" type="curve" smooth="yes"/>
      <point x="265" y="679" type="line"/>
      <point x="265" y="710" type="line"/>
      <point x="18" y="710" type="line"/>
      <point x="18" y="679" type="line"/>
      <point x="24" y="679" type="line" smooth="yes"/>
      <point x="63" y="679"/>
      <point x="95" y="679"/>
      <point x="112" y="653" type="curve" smooth="yes"/>
      <point x="374" y="278" type="line"/>
    </contour>
  </outline>
</glyph>
<glyph name="asciicircum" format="2">
  <advance width="582"/>
  <unicode hex="005E"/>
  <outline>
    <contour>
      <point x="121" y="364" type="line"/>
      <point x="296" y="685" type="line"/>
      <point x="300" y="710" type="line"/>
      <point x="268" y="710" type="line"/>
      <point x="77" y="364" type="line"/>
    </contour>
    <contour>
      <point x="461" y="364" type="line"/>
      <point x="504" y="364" type="line"/>
      <point x="313" y="710" type="line"/>
      <point x="284" y="710" type="line"/>
      <point x="286" y="686" type="line"/>
    </contour>
  </outline>
</glyph>
<glyph name="a" format="2">
  <advance width="611"/>
  <unicode hex="0061"/>
  <anchor x="289" y="508" name="top"/>
  <anchor x="440" y="-10" name="right"/>
  <anchor x="316" y="0" name="bottom"/>
  <outline>
    <contour>
      <point x="442" y="304" type="line"/>
      <point x="192" y="278"/>
      <point x="67" y="235"/>
      <point x="67" y="123" type="curve" smooth="yes"/>
      <point x="67" y="43"/>
      <point x="137" y="-10"/>
      <point x="241" y="-10" type="curve" smooth="yes"/>
      <point x="330" y="-10"/>
      <point x="400" y="33"/>
      <point x="442" y="98" type="curve"/>
      <point x="442" y="152" type="line"/>
      <point x="413" y="84"/>
      <point x="340" y="21"/>
      <point x="242" y="21" type="curve" smooth="yes"/>
      <point x="153" y="21"/>
      <point x="111" y="62"/>
      <point x="111" y="123" type="curve" smooth="yes"/>
      <point x="111" y="216"/>
      <point x="211" y="250"/>
      <point x="442" y="273" type="curve"/>
    </contour>
    <contour>
      <point x="439" y="0" type="line"/>
      <point x="579" y="0" type="line"/>
      <point x="579" y="28" type="line"/>
      <point x="578" y="28" type="line"/>
      <point x="522" y="28"/>
      <point x="481" y="35"/>
      <point x="481" y="64" type="curve" smooth="yes"/>
      <point x="481" y="370" type="line" smooth="yes"/>
      <point x="481" y="484"/>
      <point x="390" y="518"/>
      <point x="290" y="518" type="curve" smooth="yes"/>
      <point x="194" y="518"/>
      <point x="133" y="486"/>
      <point x="101" y="461" type="curve"/>
      <point x="101" y="383" type="line"/>
      <point x="151" y="383" type="line"/>
      <point x="151" y="467" type="line"/>
      <point x="124" y="466"/>
      <point x="117" y="439"/>
      <point x="119" y="423" type="curve"/>
      <point x="150" y="459"/>
      <point x="203" y="487"/>
      <point x="290" y="487" type="curve" smooth="yes"/>
      <point x="385" y="487"/>
      <point x="440" y="459"/>
      <point x="440" y="361" type="curve" smooth="yes"/>
      <point x="440" y="110" type="line"/>
      <point x="439" y="110" type="line"/>
    </contour>
  </outline>
</glyph>
<glyph name="d" format="2">
  <advance width="697"/>
  <unicode hex="0064"/>
  <anchor x="617" y="735" name="right"/>
  <anchor x="330" y="0" name="bottom"/>
  <outline>
    <contour>
      <point x="565" y="64" type="curve" smooth="yes"/>
      <point x="565" y="735" type="line"/>
      <point x="427" y="735" type="line"/>
      <point x="427" y="709" type="line"/>
      <point x="439" y="707" type="line" smooth="yes"/>
      <point x="497" y="697"/>
      <point x="525" y="691"/>
      <point x="525" y="662" type="curve" smooth="yes"/>
      <point x="525" y="132" type="line"/>
      <point x="524" y="132" type="line"/>
      <point x="524" y="0" type="line"/>
      <point x="663" y="0" type="line"/>
      <point x="663" y="28" type="line"/>
      <point x="662" y="28" type="line"/>
      <point x="606" y="28"/>
      <point x="565" y="35"/>
    </contour>
    <contour>
      <point x="309" y="518" type="curve" smooth="yes"/>
      <point x="156" y="518"/>
      <point x="51" y="408"/>
      <point x="51" y="250" type="curve" smooth="yes"/>
      <point x="51" y="93"/>
      <point x="144" y="-10"/>
      <point x="292" y="-10" type="curve" smooth="yes"/>
      <point x="397" y="-10"/>
      <point x="466" y="39"/>
      <point x="528" y="119" type="curve"/>
      <point x="528" y="171" type="line"/>
      <point x="466" y="81"/>
      <point x="394" y="21"/>
      <point x="299" y="21" type="curve" smooth="yes"/>
      <point x="163" y="21"/>
      <point x="95" y="109"/>
      <point x="95" y="250" type="curve" smooth="yes"/>
      <point x="95" y="392"/>
      <point x="174" y="487"/>
      <point x="312" y="487" type="curve" smooth="yes"/>
      <point x="410" y="487"/>
      <point x="480" y="426"/>
      <point x="528" y="332" type="curve"/>
      <point x="528" y="392" type="line"/>
      <point x="474" y="473"/>
      <point x="410" y="518"/>
    </contour>
  </outline>
</glyph>
<glyph name="h" format="2">
  <advance width="694"/>
  <unicode hex="0068"/>
  <anchor x="362" y="755" name="top"/>
  <anchor x="353" y="0" name="bottom"/>
  <outline>
    <contour>
      <point x="179" y="735" type="line"/>
      <point x="40" y="735" type="line"/>
      <point x="40" y="709" type="line"/>
      <point x="52" y="707" type="line" smooth="yes"/>
      <point x="110" y="697"/>
      <point x="138" y="691"/>
      <point x="138" y="662" type="curve" smooth="yes"/>
      <point x="138" y="64" type="line" smooth="yes"/>
      <point x="138" y="35"/>
      <point x="98" y="28"/>
      <point x="43" y="28" type="curve" smooth="yes"/>
      <point x="40" y="28" type="line"/>
      <point x="40" y="0" type="line"/>
      <point x="266" y="0" type="line"/>
      <point x="266" y="28" type="line"/>
      <point x="263" y="28" type="line" smooth="yes"/>
      <point x="230" y="28"/>
      <point x="179" y="31"/>
      <point x="179" y="38" type="curve"/>
    </contour>
    <contour>
      <point x="661" y="0" type="line"/>
      <point x="661" y="28" type="line"/>
      <point x="658" y="28" type="line" smooth="yes"/>
      <point x="602" y="28"/>
      <point x="562" y="35"/>
      <point x="562" y="64" type="curve" smooth="yes"/>
      <point x="562" y="357" type="line" smooth="yes"/>
      <point x="562" y="468"/>
      <point x="500" y="518"/>
      <point x="392" y="518" type="curve" smooth="yes"/>
      <point x="304" y="518"/>
      <point x="239" y="482"/>
      <point x="176" y="409" type="curve"/>
      <point x="176" y="365" type="line"/>
      <point x="233" y="439"/>
      <point x="299" y="484"/>
      <point x="384" y="484" type="curve" smooth="yes"/>
      <point x="485" y="484"/>
      <point x="521" y="441"/>
      <point x="521" y="346" type="curve" smooth="yes"/>
      <point x="521" y="38" type="line" smooth="yes"/>
      <point x="521" y="31"/>
      <point x="469" y="28"/>
      <point x="436" y="28" type="curve" smooth="yes"/>
      <point x="434" y="28" type="line"/>
      <point x="434" y="0" type="line"/>
    </contour>
  </outline>
</glyph>
<glyph name="i" format="2">
  <advance width="319"/>
  <unicode hex="0069"/>
  <anchor x="167" y="508" name="top"/>
  <anchor x="207" y="-10" name="right"/>
  <anchor x="166" y="-10" name="bottom"/>
  <outline>
    <contour>
      <point x="147" y="656" type="curve" smooth="yes"/>
      <point x="172" y="656"/>
      <point x="191" y="670"/>
      <point x="191" y="696" type="curve" smooth="yes"/>
      <point x="191" y="723"/>
      <point x="172" y="737"/>
      <point x="147" y="737" type="curve" smooth="yes"/>
      <point x="121" y="737"/>
      <point x="102" y="723"/>
      <point x="102" y="696" type="curve" smooth="yes"/>
      <point x="102" y="670"/>
      <point x="121" y="656"/>
    </contour>
    <contour>
      <point x="179" y="508" type="line"/>
      <point x="40" y="508" type="line"/>
      <point x="40" y="482" type="line"/>
      <point x="52" y="480" type="line" smooth="yes"/>
      <point x="110" y="470"/>
      <point x="138" y="464"/>
      <point x="138" y="435" type="curve" smooth="yes"/>
      <point x="138" y="64" type="line" smooth="yes"/>
      <point x="138" y="35"/>
      <point x="98" y="28"/>
      <point x="43" y="28" type="curve" smooth="yes"/>
      <point x="40" y="28" type="line"/>
      <point x="40" y="0" type="line"/>
      <point x="277" y="0" type="line"/>
      <point x="277" y="28" type="line"/>
      <point x="274" y="28" type="line" smooth="yes"/>
      <point x="219" y="28"/>
      <point x="179" y="35"/>
      <point x="179" y="64" type="curve" smooth="yes"/>
    </contour>
  </outline>
</glyph>
<glyph name="n" format="2">
  <advance width="694"/>
  <unicode hex="006E"/>
  <anchor x="345" y="508" name="top"/>
  <anchor x="353" y="0" name="bottom"/>
  <outline>
    <contour>
      <point x="40" y="0" type="line"/>
      <point x="266" y="0" type="line"/>
      <point x="266" y="28" type="line"/>
      <point x="263" y="28" type="line" smooth="yes"/>
      <point x="231" y="28"/>
      <point x="179" y="31"/>
      <point x="179" y="38" type="curve" smooth="yes"/>
      <point x="179" y="398" type="line"/>
      <point x="180" y="398" type="line"/>
      <point x="180" y="508" type="line"/>
      <point x="40" y="508" type="line"/>
      <point x="40" y="482" type="line"/>
      <point x="52" y="480" type="line" smooth="yes"/>
      <point x="110" y="470"/>
      <point x="138" y="464"/>
      <point x="138" y="435" type="curve" smooth="yes"/>
      <point x="138" y="64" type="line" smooth="yes"/>
      <point x="138" y="35"/>
      <point x="98" y="28"/>
      <point x="43" y="28" type="curve" smooth="yes"/>
      <point x="40" y="28" type="line"/>
    </contour>
    <contour>
      <point x="661" y="0" type="line"/>
      <point x="661" y="28" type="line"/>
      <point x="658" y="28" type="line" smooth="yes"/>
      <point x="603" y="28"/>
      <point x="562" y="35"/>
      <point x="562" y="64" type="curve" smooth="yes"/>
      <point x="562" y="357" type="line" smooth="yes"/>
      <point x="562" y="468"/>
      <point x="500" y="518"/>
      <point x="392" y="518" type="curve" smooth="yes"/>
      <point x="304" y="518"/>
      <point x="239" y="482"/>
      <point x="176" y="409" type="curve"/>
      <point x="176" y="365" type="line"/>
      <point x="233" y="439"/>
      <point x="299" y="484"/>
      <point x="384" y="484" type="curve" smooth="yes"/>
      <point x="486" y="484"/>
      <point x="522" y="441"/>
      <point x="522" y="346" type="curve" smooth="yes"/>
      <point x="522" y="38" type="line" smooth="yes"/>
      <point x="522" y="31"/>
      <point x="469" y="28"/>
      <point x="436" y="28" type="curve" smooth="yes"/>
      <point x="435" y="28" type="line"/>
      <point x="435" y="0" type="line"/>
    </contour>
  </outline>
</glyph>
<glyph name="p" format="2">
  <advance width="704"/>
  <unicode hex="0070"/>
  <outline>
    <contour>
      <point x="298" y="-223" type="line"/>
      <point x="298" y="-195" type="line"/>
      <point x="265" y="-195" type="line" smooth="yes"/>
      <point x="235" y="-195"/>
      <point x="180" y="-192"/>
      <point x="180" y="-185" type="curve" smooth="yes"/>
      <point x="180" y="370" type="line"/>
      <point x="181" y="370" type="line"/>
      <point x="181" y="508" type="line"/>
      <point x="41" y="508" type="line"/>
      <point x="41" y="482" type="line"/>
      <point x="52" y="480" type="line" smooth="yes"/>
      <point x="111" y="470"/>
      <point x="139" y="464"/>
      <point x="139" y="435" type="curve" smooth="yes"/>
      <point x="139" y="-159" type="line" smooth="yes"/>
      <point x="139" y="-188"/>
      <point x="99" y="-195"/>
      <point x="43" y="-195" type="curve"/>
      <point x="41" y="-195" type="line"/>
      <point x="41" y="-223" type="line"/>
    </contour>
    <contour>
      <point x="401" y="-10" type="curve" smooth="yes"/>
      <point x="553" y="-10"/>
      <point x="653" y="99"/>
      <point x="653" y="257" type="curve" smooth="yes"/>
      <point x="653" y="414"/>
      <point x="558" y="518"/>
      <point x="410" y="518" type="curve" smooth="yes"/>
      <point x="304" y="518"/>
      <point x="237" y="469"/>
      <point x="176" y="389" type="curve"/>
      <point x="176" y="337" type="line"/>
      <point x="237" y="427"/>
      <point x="307" y="487"/>
      <point x="403" y="487" type="curve" smooth="yes"/>
      <point x="538" y="487"/>
      <point x="609" y="398"/>
      <point x="609" y="257" type="curve" smooth="yes"/>
      <point x="609" y="116"/>
      <point x="536" y="21"/>
      <point x="397" y="21" type="curve" smooth="yes"/>
      <point x="299" y="21"/>
      <point x="226" y="82"/>
      <point x="176" y="176" type="curve"/>
      <point x="176" y="118" type="line"/>
      <point x="232" y="36"/>
      <point x="298" y="-10"/>
    </contour>
  </outline>
</glyph>
<glyph name="r" format="2">
  <advance width="418"/>
  <unicode hex="0072"/>
  <anchor x="224" y="508" name="top"/>
  <anchor x="178" y="0" name="bottom"/>
  <outline>
    <contour>
      <point x="383" y="514" type="line"/>
      <point x="376" y="516"/>
      <point x="357" y="518"/>
      <point x="343" y="518" type="curve" smooth="yes"/>
      <point x="274" y="518"/>
      <point x="216" y="472"/>
      <point x="176" y="403" type="curve"/>
      <point x="176" y="357" type="line"/>
      <point x="217" y="433"/>
      <point x="263" y="473"/>
      <point x="328" y="473" type="curve" smooth="yes"/>
      <point x="342" y="473"/>
      <point x="362" y="471"/>
      <point x="383" y="466" type="curve"/>
    </contour>
    <contour>
      <point x="40" y="0" type="line"/>
      <point x="294" y="0" type="line"/>
      <point x="294" y="28" type="line"/>
      <point x="275" y="28" type="line" smooth="yes"/>
      <point x="242" y="28"/>
      <point x="179" y="33"/>
      <point x="179" y="62" type="curve" smooth="yes"/>
      <point x="179" y="397" type="line"/>
      <point x="180" y="397" type="line"/>
      <point x="180" y="508" type="line"/>
      <point x="40" y="508" type="line"/>
      <point x="40" y="482" type="line"/>
      <point x="52" y="480" type="line" smooth="yes"/>
      <point x="110" y="470"/>
      <point x="138" y="464"/>
      <point x="138" y="435" type="curve" smooth="yes"/>
      <point x="138" y="64" type="line" smooth="yes"/>
      <point x="138" y="35"/>
      <point x="98" y="28"/>
      <point x="43" y="28" type="curve" smooth="yes"/>
      <point x="40" y="28" type="line"/>
    </contour>
  </outline>
</glyph>
<glyph name="y" format="2">
  <advance width="651"/>
  <unicode hex="0079"/>
  <anchor x="329" y="508" name="top"/>
  <anchor x="337" y="-211" name="bottom"/>
  <outline>
    <contour>
      <point x="334" y="33" type="line"/>
      <point x="133" y="469" type="line"/>
      <point x="133" y="476"/>
      <point x="189" y="478"/>
      <point x="236" y="478" type="curve" smooth="yes"/>
      <point x="238" y="478" type="line"/>
      <point x="238" y="508" type="line"/>
      <point x="12" y="508" type="line"/>
      <point x="12" y="478" type="line"/>
      <point x="13" y="478" type="line"/>
      <point x="60" y="478"/>
      <point x="89" y="471"/>
      <point x="102" y="443" type="curve" smooth="yes"/>
      <point x="315" y="-14" type="line"/>
      <point x="328" y="8" type="line"/>
    </contour>
    <contour>
      <point x="360" y="17" type="curve" smooth="yes"/>
      <point x="551" y="433" type="line" smooth="yes"/>
      <point x="568" y="470"/>
      <point x="603" y="478"/>
      <point x="638" y="478" type="curve"/>
      <point x="639" y="478" type="line"/>
      <point x="639" y="508" type="line"/>
      <point x="423" y="508" type="line"/>
      <point x="423" y="478" type="line"/>
      <point x="427" y="478" type="line" smooth="yes"/>
      <point x="474" y="478"/>
      <point x="523" y="469"/>
      <point x="523" y="456" type="curve"/>
      <point x="332" y="37" type="line"/>
      <point x="327" y="28" type="line" smooth="yes"/>
      <point x="239" y="-141"/>
      <point x="189" y="-186"/>
      <point x="99" y="-186" type="curve" smooth="yes"/>
      <point x="57" y="-186"/>
      <point x="21" y="-168"/>
      <point x="15" y="-167" type="curve"/>
      <point x="15" y="-213" type="line"/>
      <point x="26" y="-220"/>
      <point x="59" y="-230"/>
      <point x="95" y="-230" type="curve" smooth="yes"/>
      <point x="220" y="-230"/>
      <point x="286" y="-144"/>
    </contour>
  </outline>
</glyph>
<glyph name="z" format="2">
  <advance width="522"/>
  <unicode hex="007A"/>
  <anchor x="267" y="508" name="top"/>
  <anchor x="285" y="0" name="bottom"/>
  <outline>
    <contour>
      <point x="75" y="13" type="line"/>
      <point x="475" y="478" type="line"/>
      <point x="475" y="508" type="line"/>
      <point x="67" y="508" type="line"/>
      <point x="67" y="362" type="line"/>
      <point x="97" y="362" type="line"/>
      <point x="107" y="434" type="line" smooth="yes"/>
      <point x="113" y="470"/>
      <point x="152" y="477"/>
      <point x="253" y="477" type="curve" smooth="yes"/>
      <point x="457" y="477" type="line"/>
      <point x="438" y="492" type="line"/>
      <point x="45" y="34" type="line"/>
      <point x="45" y="0" type="line"/>
      <point x="490" y="0" type="line"/>
      <point x="490" y="159" type="line"/>
      <point x="460" y="159" type="line"/>
      <point x="448" y="76" type="line" smooth="yes"/>
      <point x="443" y="38"/>
      <point x="403" y="31"/>
      <point x="303" y="31" type="curve" smooth="yes"/>
      <point x="53" y="31" type="line"/>
    </contour>
  </outline>
</glyph>
<glyph name="cent" format="2">
  <advance width="652"/>
  <unicode hex="00A2"/>
  <outline>
    <contour>
      <point x="345" y="19" type="curve" smooth="yes"/>
      <point x="208" y="19"/>
      <point x="117" y="106"/>
      <point x="117" y="253" type="curve" smooth="yes"/>
      <point x="117" y="391"/>
      <point x="200" y="487"/>
      <point x="359" y="487" type="curve" smooth="yes"/>
      <point x="446" y="487"/>
      <point x="513" y="456"/>
      <point x="541" y="425" type="curve"/>
      <point x="553" y="446"/>
      <point x="545" y="451"/>
      <point x="518" y="461" type="curve"/>
      <point x="518" y="366" type="line"/>
      <point x="569" y="366" type="line"/>
      <point x="569" y="457" type="line"/>
      <point x="545" y="478"/>
      <point x="476" y="518"/>
      <point x="359" y="518" type="curve" smooth="yes"/>
      <point x="178" y="518"/>
      <point x="72" y="406"/>
      <point x="72" y="253" type="curve" smooth="yes"/>
      <point x="72" y="91"/>
      <point x="190" y="-12"/>
      <point x="346" y="-12" type="curve" smooth="yes"/>
      <point x="473" y="-12"/>
      <point x="541" y="52"/>
      <point x="579" y="124" type="curve"/>
      <point x="547" y="139" type="line"/>
      <point x="518" y="81"/>
      <point x="457" y="19"/>
    </contour>
    <contour>
      <point x="323" y="623" type="line"/>
      <point x="323" y="505" type="line"/>
      <point x="323" y="497" type="line"/>
      <point x="323" y="8" type="line"/>
      <point x="323" y="1" type="line"/>
      <point x="323" y="-126" type="line"/>
      <point x="362" y="-126" type="line"/>
      <point x="362" y="-1" type="line"/>
      <point x="362" y="8" type="line"/>
      <point x="362" y="495" type="line"/>
      <point x="362" y="503" type="line"/>
      <point x="362" y="623" type="line"/>
    </contour>
  </outline>
</glyph>
<glyph name="sterling" format="2">
  <advance width="652"/>
  <unicode hex="00A3"/>
  <outline>
    <contour>
      <point x="45" y="2" type="line"/>
      <point x="184" y="27"/>
      <point x="268" y="94"/>
      <point x="268" y="214" type="curve" smooth="yes"/>
      <point x="268" y="325"/>
      <point x="163" y="411"/>
      <point x="163" y="528" type="curve" smooth="yes"/>
      <point x="163" y="631"/>
      <point x="246" y="687"/>
      <point x="363" y="687" type="curve" smooth="yes"/>
      <point x="449" y="687"/>
      <point x="498" y="657"/>
      <point x="531" y="631" type="curve"/>
      <point x="531" y="641"/>
      <point x="518" y="657"/>
      <point x="507" y="671" type="curve"/>
      <point x="507" y="571" type="line"/>
      <point x="558" y="571" type="line"/>
      <point x="558" y="661" type="line"/>
      <point x="526" y="684"/>
      <point x="465" y="718"/>
      <point x="364" y="718" type="curve" smooth="yes"/>
      <point x="221" y="718"/>
      <point x="119" y="643"/>
      <point x="119" y="528" type="curve" smooth="yes"/>
      <point x="119" y="402"/>
      <point x="230" y="306"/>
      <point x="230" y="213" type="curve" smooth="yes"/>
      <point x="230" y="104"/>
      <point x="163" y="56"/>
      <point x="45" y="33" type="curve"/>
    </contour>
    <contour>
      <point x="431" y="-2" type="curve" smooth="yes"/>
      <point x="529" y="-2"/>
      <point x="572" y="48"/>
      <point x="601" y="128" type="curve"/>
      <point x="572" y="142" type="line"/>
      <point x="545" y="74"/>
      <point x="519" y="39"/>
      <point x="439" y="39" type="curve" smooth="yes"/>
      <point x="368" y="39"/>
      <point x="308" y="78"/>
      <point x="242" y="156" type="curve"/>
      <point x="240" y="149"/>
      <point x="241" y="127"/>
      <point x="224" y="124" type="curve"/>
      <point x="299" y="46"/>
      <point x="346" y="-2"/>
    </contour>
    <contour>
      <point x="44" y="352" type="line"/>
      <point x="44" y="322" type="line"/>
      <point x="470" y="322" type="line"/>
      <point x="470" y="352" type="line"/>
    </contour>
  </outline>
</glyph>
<glyph name="copyright" format="2">
  <advance width="979"/>
  <unicode hex="00A9"/>
  <outline>
    <contour>
      <point x="495" y="533" type="curve" smooth="yes"/>
      <point x="569" y="533"/>
      <point x="621" y="496"/>
      <point x="639" y="435" type="curve"/>
      <point x="684" y="435" type="line"/>
      <point x="684" y="552" type="line"/>
      <point x="657" y="552" type="line"/>
      <point x="647" y="446" type="line"/>
      <point x="663" y="450" type="line"/>
      <point x="644" y="522"/>
      <point x="572" y="563"/>
      <point x="495" y="563" type="curve" smooth="yes"/>
      <point x="367" y="563"/>
      <point x="275" y="476"/>
      <point x="275" y="354" type="curve" smooth="yes"/>
      <point x="275" y="231"/>
      <point x="372" y="147"/>
      <point x="507" y="147" type="curve" smooth="yes"/>
      <point x="605" y="147"/>
      <point x="680" y="202"/>
      <point x="697" y="272" type="curve"/>
      <point x="670" y="284" type="line"/>
      <point x="650" y="220"/>
      <point x="592" y="178"/>
      <point x="512" y="178" type="curve" smooth="yes"/>
      <point x="393" y="178"/>
      <point x="320" y="246"/>
      <point x="320" y="354" type="curve" smooth="yes"/>
      <point x="320" y="464"/>
      <point x="391" y="533"/>
    </contour>
    <contour>
      <point x="86" y="355" type="curve" smooth="yes"/>
      <point x="86" y="555"/>
      <point x="255" y="707"/>
      <point x="489" y="707" type="curve" smooth="yes"/>
      <point x="724" y="707"/>
      <point x="892" y="555"/>
      <point x="892" y="355" type="curve" smooth="yes"/>
      <point x="892" y="155"/>
      <point x="724" y="3"/>
      <point x="489" y="3" type="curve" smooth="yes"/>
      <point x="255" y="3"/>
      <point x="86" y="155"/>
    </contour>
    <contour>
      <point x="47" y="355" type="curve" smooth="yes"/>
      <point x="47" y="138"/>
      <point x="239" y="-28"/>
      <point x="489" y="-28" type="curve" smooth="yes"/>
      <point x="739" y="-28"/>
      <point x="932" y="138"/>
      <point x="932" y="355" type="curve" smooth="yes"/>
      <point x="932" y="572"/>
      <point x="739" y="738"/>
      <point x="489" y="738" type="curve" smooth="yes"/>
      <point x="239" y="738"/>
      <point x="47" y="572"/>
    </contour>
  </outline>
</glyph>
<glyph name="ordfeminine" format="2">
  <advance width="526"/>
  <unicode hex="00AA"/>
  <outline>
    <contour>
      <point x="369" y="554" type="line"/>
      <point x="172" y="538"/>
      <point x="68" y="505"/>
      <point x="68" y="417" type="curve" smooth="yes"/>
      <point x="68" y="349"/>
      <point x="128" y="310"/>
      <point x="214" y="310" type="curve" smooth="yes"/>
      <point x="295" y="310"/>
      <point x="348" y="358"/>
      <point x="370" y="405" type="curve"/>
      <point x="365" y="442" type="line"/>
      <point x="335" y="382"/>
      <point x="292" y="338"/>
      <point x="215" y="338" type="curve" smooth="yes"/>
      <point x="149" y="338"/>
      <point x="109" y="370"/>
      <point x="109" y="417" type="curve" smooth="yes"/>
      <point x="109" y="478"/>
      <point x="184" y="518"/>
      <point x="367" y="527" type="curve"/>
    </contour>
    <contour>
      <point x="354" y="320" type="line"/>
      <point x="466" y="320" type="line"/>
      <point x="466" y="347" type="line"/>
      <point x="466" y="347" type="line"/>
      <point x="426" y="347"/>
      <point x="393" y="351"/>
      <point x="393" y="376" type="curve" smooth="yes"/>
      <point x="393" y="600" type="line" smooth="yes"/>
      <point x="393" y="692"/>
      <point x="324" y="720"/>
      <point x="244" y="720" type="curve" smooth="yes"/>
      <point x="174" y="720"/>
      <point x="120" y="696"/>
      <point x="94" y="668" type="curve"/>
      <point x="94" y="612" type="line"/>
      <point x="135" y="612" type="line"/>
      <point x="135" y="686" type="line"/>
      <point x="128" y="684"/>
      <point x="107" y="656"/>
      <point x="110" y="633" type="curve"/>
      <point x="130" y="668"/>
      <point x="177" y="692"/>
      <point x="244" y="692" type="curve" smooth="yes"/>
      <point x="311" y="692"/>
      <point x="351" y="672"/>
      <point x="351" y="596" type="curve" smooth="yes"/>
      <point x="351" y="392" type="line"/>
      <point x="354" y="390" type="line"/>
    </contour>
  </outline>
</glyph>
<glyph name="macron" format="2">
  <advance width="583"/>
  <unicode hex="00AF"/>
  <anchor x="291" y="526" name="_top"/>
  <outline>
    <contour>
      <point x="148" y="689" type="line"/>
      <point x="148" y="658" type="line"/>
      <point x="434" y="658" type="line"/>
      <point x="434" y="689" type="line"/>
    </contour>
  </outline>
</glyph>
<glyph name="degree" format="2">
  <advance width="443"/>
  <unicode hex="00B0"/>
  <outline>
    <contour>
      <point x="337" y="596" type="curve" smooth="yes"/>
      <point x="337" y="535"/>
      <point x="291" y="495"/>
      <point x="221" y="495" type="curve" smooth="yes"/>
      <point x="152" y="495"/>
      <point x="106" y="535"/>
      <point x="106" y="596" type="curve" smooth="yes"/>
      <point x="106" y="658"/>
      <point x="152" y="698"/>
      <point x="221" y="698" type="curve" smooth="yes"/>
      <point x="291" y="698"/>
      <point x="337" y="658"/>
    </contour>
    <contour>
      <point x="71" y="596" type="curve" smooth="yes"/>
      <point x="71" y="517"/>
      <point x="138" y="464"/>
      <point x="221" y="464" type="curve" smooth="yes"/>
      <point x="305" y="464"/>
      <point x="373" y="517"/>
      <point x="373" y="596" type="curve" smooth="yes"/>
      <point x="373" y="675"/>
      <point x="305" y="729"/>
      <point x="221" y="729" type="curve" smooth="yes"/>
      <point x="138" y="729"/>
      <point x="71" y="675"/>
    </contour>
  </outline>
</glyph>
<glyph name="acute" format="2">
  <advance width="583"/>
  <unicode hex="00B4"/>
  <anchor x="260" y="527" name="_top"/>
  <outline>
    <contour>
      <point x="301" y="707" type="curve" smooth="yes"/>
      <point x="235" y="590" type="line"/>
      <point x="235" y="576" type="line"/>
      <point x="249" y="576" type="line"/>
      <point x="348" y="682" type="line" smooth="yes"/>
      <point x="364" y="699"/>
      <point x="377" y="715"/>
      <point x="377" y="730" type="curve" smooth="yes"/>
      <point x="377" y="744"/>
      <point x="366" y="754"/>
      <point x="349" y="754" type="curve" smooth="yes"/>
      <point x="328" y="754"/>
      <point x="317" y="737"/>
    </contour>
  </outline>
</glyph>
<glyph name="cedilla" format="2">
  <advance width="699"/>
  <unicode hex="00B8"/>
  <anchor x="341" y="34" name="_bottom"/>
  <outline>
    <contour>
      <point x="346" y="4" type="line"/>
      <point x="306" y="4" type="line"/>
      <point x="267" y="-88" type="line"/>
      <point x="279" y="-88" type="line" smooth="yes"/>
      <point x="356" y="-88"/>
      <point x="385" y="-112"/>
      <point x="385" y="-148" type="curve" smooth="yes"/>
      <point x="385" y="-185"/>
      <point x="354" y="-207"/>
      <point x="312" y="-207" type="curve" smooth="yes"/>
      <point x="259" y="-207"/>
      <point x="237" y="-181"/>
      <point x="214" y="-162" type="curve"/>
      <point x="190" y="-186" type="line"/>
      <point x="216" y="-215"/>
      <point x="252" y="-236"/>
      <point x="312" y="-236" type="curve" smooth="yes"/>
      <point x="372" y="-236"/>
      <point x="428" y="-204"/>
      <point x="428" y="-148" type="curve" smooth="yes"/>
      <point x="428" y="-89"/>
      <point x="367" y="-56"/>
      <point x="289" y="-60" type="curve"/>
      <point x="295" y="-77" type="line"/>
    </contour>
  </outline>
</glyph>
<glyph name="ordmasculine" format="2">
  <advance width="547"/>
  <unicode hex="00BA"/>
  <outline>
    <contour>
      <point x="274" y="720" type="curve" smooth="yes"/>
      <point x="152" y="720"/>
      <point x="64" y="637"/>
      <point x="64" y="520" type="curve" smooth="yes"/>
      <point x="64" y="400"/>
      <point x="152" y="320"/>
      <point x="274" y="320" type="curve" smooth="yes"/>
      <point x="396" y="320"/>
      <point x="483" y="400"/>
      <point x="483" y="520" type="curve" smooth="yes"/>
      <point x="483" y="637"/>
      <point x="396" y="720"/>
    </contour>
    <contour>
      <point x="274" y="347" type="curve" smooth="yes"/>
      <point x="175" y="347"/>
      <point x="105" y="415"/>
      <point x="105" y="520" type="curve" smooth="yes"/>
      <point x="105" y="619"/>
      <point x="175" y="693"/>
      <point x="274" y="693" type="curve" smooth="yes"/>
      <point x="373" y="693"/>
      <point x="442" y="619"/>
      <point x="442" y="520" type="curve" smooth="yes"/>
      <point x="442" y="415"/>
      <point x="373" y="347"/>
    </contour>
  </outline>
</glyph>
<glyph name="AE" format="2">
  <advance width="1083"/>
  <unicode hex="00C6"/>
  <anchor x="645" y="741" name="top"/>
  <outline>
    <contour>
      <point x="273" y="298" type="line"/>
      <point x="253" y="267" type="line"/>
      <point x="575" y="267" type="line"/>
      <point x="575" y="298" type="line"/>
    </contour>
    <contour>
      <point x="583" y="378" type="curve"/>
      <point x="583" y="350" type="line"/>
      <point x="689" y="349"/>
      <point x="792" y="347"/>
      <point x="895" y="345" type="curve"/>
      <point x="895" y="383" type="line"/>
      <point x="789" y="382"/>
      <point x="686" y="380"/>
    </contour>
    <contour>
      <point x="453" y="0" type="line"/>
      <point x="1020" y="0" type="line"/>
      <point x="1020" y="189" type="line"/>
      <point x="992" y="189" type="line"/>
      <point x="981" y="74" type="line" smooth="yes"/>
      <point x="978" y="38"/>
      <point x="936" y="31"/>
      <point x="836" y="31" type="curve" smooth="yes"/>
      <point x="605" y="31" type="line"/>
      <point x="605" y="679" type="line"/>
      <point x="802" y="679" type="line" smooth="yes"/>
      <point x="902" y="679"/>
      <point x="943" y="672"/>
      <point x="947" y="636" type="curve" smooth="yes"/>
      <point x="958" y="546" type="line"/>
      <point x="985" y="546" type="line"/>
      <point x="985" y="710" type="line"/>
      <point x="388" y="710" type="line"/>
      <point x="388" y="679" type="line"/>
      <point x="403" y="679" type="line" smooth="yes"/>
      <point x="464" y="679"/>
      <point x="504" y="672"/>
      <point x="507" y="654" type="curve"/>
      <point x="73" y="74" type="line" smooth="yes"/>
      <point x="48" y="40"/>
      <point x="30" y="31"/>
      <point x="-8" y="31" type="curve" smooth="yes"/>
      <point x="-14" y="31" type="line"/>
      <point x="-14" y="0" type="line"/>
      <point x="214" y="0" type="line"/>
      <point x="214" y="31" type="line"/>
      <point x="196" y="31" type="line" smooth="yes"/>
      <point x="152" y="31"/>
      <point x="99" y="38"/>
      <point x="99" y="49" type="curve"/>
      <point x="564" y="676" type="line"/>
      <point x="564" y="676" type="line"/>
      <point x="564" y="41" type="line"/>
      <point x="564" y="34"/>
      <point x="508" y="31"/>
      <point x="463" y="31" type="curve" smooth="yes"/>
      <point x="453" y="31" type="line"/>
    </contour>
  </outline>
</glyph>
<glyph name="ae" format="2">
  <advance width="979"/>
  <unicode hex="00E6"/>
  <anchor x="497" y="508" name="top"/>
  <outline>
    <contour>
      <point x="475" y="290" type="line"/>
      <point x="202" y="268"/>
      <point x="67" y="226"/>
      <point x="67" y="117" type="curve" smooth="yes"/>
      <point x="67" y="39"/>
      <point x="140" y="-10"/>
      <point x="245" y="-10" type="curve" smooth="yes"/>
      <point x="357" y="-10"/>
      <point x="441" y="52"/>
      <point x="484" y="138" type="curve"/>
      <point x="466" y="173" type="line"/>
      <point x="425" y="83"/>
      <point x="349" y="21"/>
      <point x="247" y="21" type="curve" smooth="yes"/>
      <point x="156" y="21"/>
      <point x="110" y="59"/>
      <point x="110" y="117" type="curve" smooth="yes"/>
      <point x="110" y="207"/>
      <point x="221" y="239"/>
      <point x="473" y="259" type="curve"/>
    </contour>
    <contour>
      <point x="290" y="518" type="curve" smooth="yes"/>
      <point x="195" y="518"/>
      <point x="133" y="486"/>
      <point x="101" y="461" type="curve"/>
      <point x="101" y="383" type="line"/>
      <point x="151" y="383" type="line"/>
      <point x="151" y="467" type="line"/>
      <point x="124" y="466"/>
      <point x="117" y="439"/>
      <point x="120" y="423" type="curve"/>
      <point x="150" y="459"/>
      <point x="204" y="487"/>
      <point x="289" y="487" type="curve" smooth="yes"/>
      <point x="389" y="487"/>
      <point x="441" y="453"/>
      <point x="441" y="350" type="curve"/>
      <point x="441" y="266" type="line"/>
      <point x="477" y="360" type="line"/>
      <point x="477" y="481"/>
      <point x="391" y="518"/>
    </contour>
    <contour>
      <point x="707" y="-10" type="curve" smooth="yes"/>
      <point x="821" y="-10"/>
      <point x="887" y="43"/>
      <point x="925" y="107" type="curve"/>
      <point x="895" y="124" type="line"/>
      <point x="872" y="85"/>
      <point x="817" y="21"/>
      <point x="707" y="21" type="curve" smooth="yes"/>
      <point x="581" y="21"/>
      <point x="484" y="105"/>
      <point x="484" y="250" type="curve" smooth="yes"/>
      <point x="484" y="396"/>
      <point x="574" y="487"/>
      <point x="696" y="487" type="curve" smooth="yes"/>
      <point x="821" y="487"/>
      <point x="878" y="414"/>
      <point x="884" y="265" type="curve"/>
      <point x="902" y="288" type="line"/>
      <point x="451" y="288" type="line"/>
      <point x="452" y="257" type="line"/>
      <point x="927" y="257" type="line"/>
      <point x="926" y="425"/>
      <point x="849" y="518"/>
      <point x="695" y="518" type="curve" smooth="yes"/>
      <point x="577" y="518"/>
      <point x="502" y="452"/>
      <point x="463" y="341" type="curve"/>
      <point x="447" y="336"/>
      <point x="441" y="296"/>
      <point x="441" y="252" type="curve" smooth="yes"/>
      <point x="441" y="92"/>
      <point x="557" y="-10"/>
    </contour>
  </outline>
</glyph>
<glyph name="icircumflex" format="2">
  <advance width="319"/>
  <unicode hex="00EE"/>
  <outline>
    <contour>
      <point x="186" y="739" type="line"/>
      <point x="302" y="606" type="line"/>
      <point x="302" y="596" type="line"/>
      <point x="277" y="596" type="line"/>
      <point x="121" y="725" type="line"/>
      <point x="171" y="725" type="line"/>
      <point x="18" y="596" type="line"/>
      <point x="-1" y="596" type="line"/>
      <point x="-1" y="606" type="line"/>
      <point x="114" y="739" type="line"/>
    </contour>
    <component base="dotlessi"/>
  </outline>
</glyph>
<glyph name="idieresis" format="2">
  <advance width="319"/>
  <unicode hex="00EF"/>
  <outline>
    <contour>
      <point x="44" y="655" type="curve" smooth="yes"/>
      <point x="69" y="655"/>
      <point x="88" y="670"/>
      <point x="88" y="696" type="curve" smooth="yes"/>
      <point x="88" y="722"/>
      <point x="69" y="737"/>
      <point x="44" y="737" type="curve" smooth="yes"/>
      <point x="18" y="737"/>
      <point x="-1" y="722"/>
      <point x="-1" y="696" type="curve" smooth="yes"/>
      <point x="-1" y="670"/>
      <point x="18" y="655"/>
    </contour>
    <contour>
      <point x="266" y="655" type="curve" smooth="yes"/>
      <point x="291" y="655"/>
      <point x="310" y="670"/>
      <point x="310" y="696" type="curve" smooth="yes"/>
      <point x="310" y="722"/>
      <point x="291" y="737"/>
      <point x="266" y="737" type="curve" smooth="yes"/>
      <point x="240" y="737"/>
      <point x="221" y="722"/>
      <point x="221" y="696" type="curve" smooth="yes"/>
      <point x="221" y="670"/>
      <point x="240" y="655"/>
    </contour>
    <component base="dotlessi"/>
  </outline>
</glyph>
<glyph name="oslash" format="2">
  <advance width="646"/>
  <unicode hex="00F8"/>
  <anchor x="323" y="508" name="top"/>
  <outline>
    <contour>
      <point x="-4" y="-13" type="line"/>
      <point x="41" y="-13" type="line"/>
      <point x="647" y="518" type="line"/>
      <point x="603" y="518" type="line"/>
    </contour>
    <contour>
      <point x="327" y="-10" type="curve"/>
      <point x="485" y="-10"/>
      <point x="599" y="97"/>
      <point x="599" y="254" type="curve" smooth="yes"/>
      <point x="599" y="409"/>
      <point x="485" y="518"/>
      <point x="327" y="518" type="curve" smooth="yes"/>
      <point x="169" y="518"/>
      <point x="55" y="410"/>
      <point x="55" y="254" type="curve" smooth="yes"/>
      <point x="55" y="97"/>
      <point x="169" y="-10"/>
    </contour>
    <contour>
      <point x="327" y="21" type="curve"/>
      <point x="183" y="21"/>
      <point x="99" y="98"/>
      <point x="99" y="254" type="curve" smooth="yes"/>
      <point x="99" y="393"/>
      <point x="187" y="487"/>
      <point x="327" y="487" type="curve" smooth="yes"/>
      <point x="470" y="487"/>
      <point x="554" y="407"/>
      <point x="554" y="254" type="curve" smooth="yes"/>
      <point x="554" y="112"/>
      <point x="467" y="21"/>
    </contour>
  </outline>
</glyph>
<glyph name="thorn" format="2">
  <advance width="706"/>
  <unicode hex="00FE"/>
  <outline>
    <contour>
      <point x="42" y="-223" type="line"/>
      <point x="300" y="-223" type="line"/>
      <point x="300" y="-195" type="line"/>
      <point x="266" y="-195" type="line" smooth="yes"/>
      <point x="236" y="-195"/>
      <point x="181" y="-192"/>
      <point x="181" y="-185" type="curve"/>
      <point x="181" y="735" type="line"/>
      <point x="42" y="735" type="line"/>
      <point x="42" y="709" type="line"/>
      <point x="54" y="707" type="line" smooth="yes"/>
      <point x="112" y="697"/>
      <point x="140" y="691"/>
      <point x="140" y="662" type="curve" smooth="yes"/>
      <point x="140" y="-159" type="line" smooth="yes"/>
      <point x="140" y="-188"/>
      <point x="100" y="-195"/>
      <point x="44" y="-195" type="curve"/>
      <point x="42" y="-195" type="line"/>
    </contour>
    <contour>
      <point x="610" y="257" type="curve" smooth="yes"/>
      <point x="610" y="116"/>
      <point x="537" y="21"/>
      <point x="398" y="21" type="curve" smooth="yes"/>
      <point x="298" y="21"/>
      <point x="224" y="85"/>
      <point x="175" y="183" type="curve"/>
      <point x="154" y="162" type="line"/>
      <point x="215" y="52"/>
      <point x="284" y="-10"/>
      <point x="402" y="-10" type="curve" smooth="yes"/>
      <point x="554" y="-10"/>
      <point x="654" y="99"/>
      <point x="654" y="257" type="curve" smooth="yes"/>
      <point x="654" y="414"/>
      <point x="559" y="518"/>
      <point x="411" y="518" type="curve" smooth="yes"/>
      <point x="285" y="518"/>
      <point x="215" y="448"/>
      <point x="143" y="338" type="curve"/>
      <point x="159" y="311" type="line"/>
      <point x="224" y="415"/>
      <point x="298" y="487"/>
      <point x="404" y="487" type="curve" smooth="yes"/>
      <point x="539" y="487"/>
      <point x="610" y="398"/>
    </contour>
  </outline>
</glyph>
<glyph name="dcroat" format="2">
  <advance width="686"/>
  <unicode hex="0111"/>
  <outline>
    <contour>
      <point x="679" y="632" type="line"/>
      <point x="281" y="632" type="line"/>
      <point x="281" y="601" type="line"/>
      <point x="679" y="601" type="line"/>
    </contour>
    <contour>
      <point x="309" y="518" type="curve" smooth="yes"/>
      <point x="156" y="518"/>
      <point x="51" y="408"/>
      <point x="51" y="250" type="curve" smooth="yes"/>
      <point x="51" y="93"/>
      <point x="144" y="-10"/>
      <point x="292" y="-10" type="curve" smooth="yes"/>
      <point x="418" y="-10"/>
      <point x="490" y="60"/>
      <point x="562" y="170" type="curve"/>
      <point x="547" y="197" type="line"/>
      <point x="481" y="93"/>
      <point x="405" y="21"/>
      <point x="299" y="21" type="curve" smooth="yes"/>
      <point x="163" y="21"/>
      <point x="95" y="109"/>
      <point x="95" y="250" type="curve" smooth="yes"/>
      <point x="95" y="392"/>
      <point x="174" y="487"/>
      <point x="312" y="487" type="curve" smooth="yes"/>
      <point x="412" y="487"/>
      <point x="484" y="423"/>
      <point x="531" y="325" type="curve"/>
      <point x="552" y="346" type="line"/>
      <point x="493" y="456"/>
      <point x="426" y="518"/>
    </contour>
    <contour>
      <point x="525" y="735" type="line"/>
      <point x="525" y="137" type="line"/>
      <point x="524" y="132" type="line"/>
      <point x="524" y="0" type="line"/>
      <point x="663" y="0" type="line"/>
      <point x="663" y="28" type="line"/>
      <point x="662" y="28" type="line"/>
      <point x="606" y="28"/>
      <point x="565" y="35"/>
      <point x="565" y="64" type="curve" smooth="yes"/>
      <point x="565" y="735" type="line"/>
    </contour>
  </outline>
</glyph>
<glyph name="itilde" format="2">
  <advance width="319"/>
  <unicode hex="0129"/>
  <outline>
    <contour>
      <point x="217" y="616" type="curve" smooth="yes"/>
      <point x="274" y="616"/>
      <point x="299" y="652"/>
      <point x="320" y="715" type="curve"/>
      <point x="290" y="724" type="line"/>
      <point x="273" y="679"/>
      <point x="258" y="651"/>
      <point x="225" y="651" type="curve" smooth="yes"/>
      <point x="173" y="651"/>
      <point x="146" y="727"/>
      <point x="60" y="727" type="curve" smooth="yes"/>
      <point x="5" y="727"/>
      <point x="-24" y="693"/>
      <point x="-37" y="626" type="curve"/>
      <point x="-7" y="616" type="line"/>
      <point x="5" y="665"/>
      <point x="18" y="692"/>
      <point x="53" y="692" type="curve" smooth="yes"/>
      <point x="103" y="692"/>
      <point x="128" y="616"/>
    </contour>
    <component base="dotlessi"/>
  </outline>
</glyph>
<glyph name="ibreve" format="2">
  <advance width="319"/>
  <unicode hex="012D"/>
  <outline>
    <contour>
      <point x="155" y="594" type="curve" smooth="yes"/>
      <point x="76" y="594"/>
      <point x="22" y="643"/>
      <point x="16" y="736" type="curve"/>
      <point x="45" y="736" type="line"/>
      <point x="55" y="662"/>
      <point x="93" y="637"/>
      <point x="156" y="637" type="curve" smooth="yes"/>
      <point x="216" y="637"/>
      <point x="256" y="662"/>
      <point x="267" y="736" type="curve"/>
      <point x="294" y="736" type="line"/>
      <point x="288" y="643"/>
      <point x="234" y="594"/>
    </contour>
    <component base="dotlessi"/>
  </outline>
</glyph>
<glyph name="lslash" format="2">
  <advance width="319"/>
  <unicode hex="0142"/>
  <outline>
    <contour>
      <point x="28" y="227" type="line"/>
      <point x="302" y="477" type="line"/>
      <point x="302" y="526" type="line"/>
      <point x="28" y="275" type="line"/>
    </contour>
    <component base="l"/>
  </outline>
</glyph>
<glyph name="Eng" format="2">
  <advance width="879"/>
  <unicode hex="014A"/>
  <outline>
    <contour>
      <point x="517" y="-212" type="curve" smooth="yes"/>
      <point x="455" y="-212"/>
      <point x="414" y="-201"/>
      <point x="388" y="-189" type="curve"/>
      <point x="388" y="-156" type="line"/>
      <point x="417" y="-168"/>
      <point x="457" y="-181"/>
      <point x="517" y="-181" type="curve" smooth="yes"/>
      <point x="611" y="-181"/>
      <point x="676" y="-143"/>
      <point x="676" y="-23" type="curve" smooth="yes"/>
      <point x="676" y="16" type="line"/>
      <point x="687" y="-33" type="line"/>
      <point x="184" y="701" type="line"/>
      <point x="202" y="705" type="line"/>
      <point x="202" y="46" type="line" smooth="yes"/>
      <point x="202" y="39"/>
      <point x="258" y="31"/>
      <point x="309" y="31" type="curve" smooth="yes"/>
      <point x="325" y="31" type="line"/>
      <point x="325" y="0" type="line"/>
      <point x="52" y="0" type="line"/>
      <point x="52" y="31" type="line"/>
      <point x="65" y="31" type="line" smooth="yes"/>
      <point x="122" y="31"/>
      <point x="164" y="43"/>
      <point x="164" y="72" type="curve" smooth="yes"/>
      <point x="164" y="643" type="line" smooth="yes"/>
      <point x="164" y="672"/>
      <point x="122" y="679"/>
      <point x="65" y="679" type="curve" smooth="yes"/>
      <point x="52" y="679" type="line"/>
      <point x="52" y="710" type="line"/>
      <point x="224" y="710" type="line"/>
      <point x="685" y="48" type="line"/>
      <point x="676" y="29" type="line"/>
      <point x="676" y="664" type="line" smooth="yes"/>
      <point x="676" y="671"/>
      <point x="619" y="679"/>
      <point x="569" y="679" type="curve" smooth="yes"/>
      <point x="552" y="679" type="line"/>
      <point x="552" y="710" type="line"/>
      <point x="825" y="710" type="line"/>
      <point x="825" y="679" type="line"/>
      <point x="811" y="679" type="line" smooth="yes"/>
      <point x="754" y="679"/>
      <point x="712" y="667"/>
      <point x="712" y="638" type="curve" smooth="yes"/>
      <point x="712" y="-23" type="line" smooth="yes"/>
      <point x="712" y="-159"/>
      <point x="628" y="-212"/>
    </contour>
  </outline>
</glyph>
<glyph name="Uogonek" format="2">
  <advance width="911"/>
  <unicode hex="0172"/>
  <outline>
    <contour>
      <point x="531" y="-233" type="curve" smooth="yes"/>
      <point x="580" y="-233"/>
      <point x="619" y="-211"/>
      <point x="651" y="-180" type="curve"/>
      <point x="630" y="-160" type="line"/>
      <point x="603" y="-183"/>
      <point x="577" y="-202"/>
      <point x="536" y="-202" type="curve" smooth="yes"/>
      <point x="496" y="-202"/>
      <point x="463" y="-181"/>
      <point x="463" y="-140" type="curve" smooth="yes"/>
      <point x="463" y="-72"/>
      <point x="511" y="-43"/>
      <point x="641" y="42" type="curve" smooth="yes"/>
      <point x="706" y="86"/>
      <point x="746" y="160"/>
      <point x="746" y="271" type="curve" smooth="yes"/>
      <point x="746" y="633" type="line" smooth="yes"/>
      <point x="746" y="667"/>
      <point x="788" y="679"/>
      <point x="845" y="679" type="curve" smooth="yes"/>
      <point x="858" y="679" type="line"/>
      <point x="858" y="710" type="line"/>
      <point x="600" y="710" type="line"/>
      <point x="600" y="679" type="line"/>
      <point x="610" y="679" type="line" smooth="yes"/>
      <point x="654" y="679"/>
      <point x="711" y="671"/>
      <point x="711" y="657" type="curve" smooth="yes"/>
      <point x="711" y="271" type="line" smooth="yes"/>
      <point x="711" y="90"/>
      <point x="601" y="25"/>
      <point x="459" y="25" type="curve" smooth="yes"/>
      <point x="318" y="25"/>
      <point x="205" y="87"/>
      <point x="205" y="271" type="curve" smooth="yes"/>
      <point x="205" y="669" type="line" smooth="yes"/>
      <point x="205" y="676"/>
      <point x="262" y="679"/>
      <point x="306" y="679" type="curve" smooth="yes"/>
      <point x="317" y="679" type="line"/>
      <point x="317" y="710" type="line"/>
      <point x="52" y="710" type="line"/>
      <point x="52" y="679" type="line"/>
      <point x="66" y="679" type="line" smooth="yes"/>
      <point x="122" y="679"/>
      <point x="164" y="672"/>
      <point x="164" y="643" type="curve" smooth="yes"/>
      <point x="164" y="271" type="line" smooth="yes"/>
      <point x="164" y="68"/>
      <point x="287" y="-10"/>
      <point x="455" y="-10" type="curve" smooth="yes"/>
      <point x="495" y="-10"/>
      <point x="535" y="-5"/>
      <point x="570" y="7" type="curve"/>
      <point x="582" y="21" type="line"/>
      <point x="499" y="-23"/>
      <point x="422" y="-71"/>
      <point x="422" y="-140" type="curve" smooth="yes"/>
      <point x="422" y="-198"/>
      <point x="471" y="-233"/>
    </contour>
  </outline>
</glyph>
<glyph name="Ohorn" format="2">
  <advance width="872"/>
  <unicode hex="01A0"/>
  <anchor x="435" y="742" name="top"/>
  <outline>
    <contour>
      <point x="432" y="21" type="curve" smooth="yes"/>
      <point x="236" y="21"/>
      <point x="98" y="151"/>
      <point x="98" y="355" type="curve" smooth="yes"/>
      <point x="98" y="559"/>
      <point x="236" y="689"/>
      <point x="432" y="689" type="curve" smooth="yes"/>
      <point x="621" y="689"/>
      <point x="766" y="561"/>
      <point x="766" y="355" type="curve" smooth="yes"/>
      <point x="766" y="151"/>
      <point x="628" y="21"/>
    </contour>
    <contour>
      <point x="432" y="720" type="curve" smooth="yes"/>
      <point x="217" y="720"/>
      <point x="55" y="572"/>
      <point x="55" y="355" type="curve" smooth="yes"/>
      <point x="55" y="139"/>
      <point x="217" y="-10"/>
      <point x="432" y="-10" type="curve" smooth="yes"/>
      <point x="647" y="-10"/>
      <point x="810" y="139"/>
      <point x="810" y="355" type="curve" smooth="yes"/>
      <point x="810" y="532"/>
      <point x="697" y="664"/>
      <point x="504" y="701" type="curve"/>
      <point x="546" y="689" type="line"/>
      <point x="546" y="695" type="line"/>
      <point x="504" y="699" type="line"/>
      <point x="544" y="692"/>
      <point x="592" y="685"/>
      <point x="636" y="685" type="curve" smooth="yes"/>
      <point x="748" y="685"/>
      <point x="837" y="741"/>
      <point x="845" y="878" type="curve"/>
      <point x="803" y="878" type="line"/>
      <point x="793" y="762"/>
      <point x="743" y="708"/>
      <point x="619" y="708" type="curve" smooth="yes"/>
      <point x="572" y="708"/>
      <point x="508" y="720"/>
    </contour>
  </outline>
</glyph>
<glyph name="uhorn" format="2">
  <advance width="698"/>
  <unicode hex="01B0"/>
  <anchor x="329" y="508" name="top"/>
  <outline>
    <contour>
      <point x="509" y="485" type="line"/>
      <point x="673" y="495"/>
      <point x="707" y="565"/>
      <point x="716" y="685" type="curve"/>
      <point x="674" y="685" type="line"/>
      <point x="662" y="545"/>
      <point x="619" y="508"/>
      <point x="412" y="508" type="curve" smooth="yes"/>
      <point x="393" y="508" type="line"/>
      <point x="393" y="480" type="line"/>
      <point x="393" y="480" type="line"/>
      <point x="459" y="480"/>
      <point x="500" y="473"/>
      <point x="500" y="444" type="curve" smooth="yes"/>
      <point x="500" y="107" type="line"/>
      <point x="499" y="116" type="line"/>
      <point x="499" y="0" type="line"/>
      <point x="641" y="0" type="line"/>
      <point x="641" y="28" type="line"/>
      <point x="638" y="28" type="line" smooth="yes"/>
      <point x="581" y="28"/>
      <point x="541" y="35"/>
      <point x="541" y="64" type="curve" smooth="yes"/>
      <point x="541" y="508" type="line"/>
    </contour>
    <contour>
      <point x="162" y="508" type="line"/>
      <point x="23" y="508" type="line"/>
      <point x="23" y="480" type="line"/>
      <point x="25" y="480" type="line" smooth="yes"/>
      <point x="80" y="480"/>
      <point x="121" y="473"/>
      <point x="121" y="444" type="curve" smooth="yes"/>
      <point x="121" y="151" type="line" smooth="yes"/>
      <point x="121" y="40"/>
      <point x="182" y="-10"/>
      <point x="290" y="-10" type="curve" smooth="yes"/>
      <point x="391" y="-10"/>
      <point x="463" y="40"/>
      <point x="535" y="143" type="curve"/>
      <point x="526" y="174" type="line"/>
      <point x="462" y="81"/>
      <point x="392" y="24"/>
      <point x="297" y="24" type="curve" smooth="yes"/>
      <point x="197" y="24"/>
      <point x="162" y="67"/>
      <point x="162" y="162" type="curve"/>
    </contour>
  </outline>
</glyph>
<glyph name="icaron" format="2">
  <advance width="319"/>
  <unicode hex="01D0"/>
  <outline>
    <contour>
      <point x="116" y="596" type="line"/>
      <point x="-1" y="729" type="line"/>
      <point x="-1" y="739" type="line"/>
      <point x="24" y="739" type="line"/>
      <point x="180" y="610" type="line"/>
      <point x="130" y="610" type="line"/>
      <point x="283" y="739" type="line"/>
      <point x="302" y="739" type="line"/>
      <point x="302" y="729" type="line"/>
      <point x="187" y="596" type="line"/>
    </contour>
    <component base="dotlessi"/>
  </outline>
</glyph>
<glyph name="oogonek" format="2">
  <advance width="646"/>
  <unicode hex="01EB"/>
  <outline>
    <contour>
      <point x="323" y="19" type="curve"/>
      <point x="182" y="19"/>
      <point x="95" y="111"/>
      <point x="95" y="253" type="curve" smooth="yes"/>
      <point x="95" y="392"/>
      <point x="182" y="487"/>
      <point x="323" y="487" type="curve" smooth="yes"/>
      <point x="464" y="487"/>
      <point x="551" y="392"/>
      <point x="551" y="253" type="curve" smooth="yes"/>
      <point x="551" y="110"/>
      <point x="464" y="19"/>
    </contour>
    <contour>
      <point x="371" y="-233" type="curve" smooth="yes"/>
      <point x="420" y="-233"/>
      <point x="459" y="-211"/>
      <point x="491" y="-180" type="curve"/>
      <point x="470" y="-160" type="line"/>
      <point x="443" y="-183"/>
      <point x="418" y="-202"/>
      <point x="376" y="-202" type="curve" smooth="yes"/>
      <point x="336" y="-202"/>
      <point x="303" y="-181"/>
      <point x="303" y="-140" type="curve" smooth="yes"/>
      <point x="303" y="-69"/>
      <point x="387" y="-37"/>
      <point x="493" y="41" type="curve" smooth="yes"/>
      <point x="556" y="89"/>
      <point x="595" y="162"/>
      <point x="595" y="253" type="curve" smooth="yes"/>
      <point x="595" y="409"/>
      <point x="481" y="518"/>
      <point x="323" y="518" type="curve" smooth="yes"/>
      <point x="165" y="518"/>
      <point x="51" y="410"/>
      <point x="51" y="253" type="curve" smooth="yes"/>
      <point x="51" y="95"/>
      <point x="165" y="-12"/>
      <point x="323" y="-12" type="curve"/>
      <point x="360" y="-12"/>
      <point x="394" y="-6"/>
      <point x="426" y="5" type="curve"/>
      <point x="417" y="18" type="line"/>
      <point x="350" y="-24"/>
      <point x="262" y="-69"/>
      <point x="262" y="-140" type="curve" smooth="yes"/>
      <point x="262" y="-198"/>
      <point x="312" y="-233"/>
    </contour>
  </outline>
</glyph>
<glyph name="iinvertedbreve" format="2">
  <advance width="319"/>
  <unicode hex="020B"/>
  <outline>
    <contour>
      <point x="143" y="736" type="curve" smooth="yes"/>
      <point x="222" y="736"/>
      <point x="276" y="687"/>
      <point x="282" y="594" type="curve"/>
      <point x="253" y="594" type="line"/>
      <point x="243" y="667"/>
      <point x="205" y="692"/>
      <point x="142" y="692" type="curve" smooth="yes"/>
      <point x="82" y="692"/>
      <point x="42" y="667"/>
      <point x="31" y="594" type="curve"/>
      <point x="4" y="594" type="line"/>
      <point x="10" y="687"/>
      <point x="64" y="736"/>
    </contour>
    <component base="dotlessi"/>
  </outline>
</glyph>
<glyph name="dotlessj" format="2">
  <advance width="287"/>
  <unicode hex="0237"/>
  <anchor x="130" y="508" name="top"/>
  <outline>
    <contour>
      <point x="133" y="-74" type="line" smooth="yes"/>
      <point x="133" y="-171"/>
      <point x="86" y="-203"/>
      <point x="11" y="-203" type="curve" smooth="yes"/>
      <point x="-33" y="-203"/>
      <point x="-65" y="-194"/>
      <point x="-91" y="-185" type="curve"/>
      <point x="-91" y="-220" type="line"/>
      <point x="-69" y="-229"/>
      <point x="-38" y="-236"/>
      <point x="11" y="-236" type="curve" smooth="yes"/>
      <point x="90" y="-236"/>
      <point x="173" y="-204"/>
      <point x="173" y="-74" type="curve" smooth="yes"/>
      <point x="173" y="508" type="line"/>
      <point x="36" y="508" type="line"/>
      <point x="36" y="482" type="line"/>
      <point x="47" y="480" type="line" smooth="yes"/>
      <point x="105" y="470"/>
      <point x="133" y="464"/>
      <point x="133" y="435" type="curve" smooth="yes"/>
    </contour>
  </outline>
</glyph>
<glyph name="schwa" format="2">
  <advance width="592"/>
  <unicode hex="0259"/>
  <outline>
    <contour>
      <point x="288" y="518" type="curve" smooth="yes"/>
      <point x="172" y="518"/>
      <point x="101" y="466"/>
      <point x="58" y="401" type="curve"/>
      <point x="90" y="384" type="line"/>
      <point x="115" y="424"/>
      <point x="171" y="487"/>
      <point x="288" y="487" type="curve" smooth="yes"/>
      <point x="409" y="487"/>
      <point x="497" y="408"/>
      <point x="497" y="258" type="curve" smooth="yes"/>
      <point x="497" y="112"/>
      <point x="407" y="21"/>
      <point x="284" y="21" type="curve" smooth="yes"/>
      <point x="158" y="21"/>
      <point x="100" y="95"/>
      <point x="94" y="243" type="curve"/>
      <point x="77" y="227" type="line"/>
      <point x="516" y="227" type="line"/>
      <point x="516" y="258" type="line"/>
      <point x="51" y="258" type="line"/>
      <point x="52" y="85"/>
      <point x="130" y="-10"/>
      <point x="284" y="-10" type="curve" smooth="yes"/>
      <point x="431" y="-10"/>
      <point x="540" y="99"/>
      <point x="540" y="256" type="curve" smooth="yes"/>
      <point x="540" y="421"/>
      <point x="433" y="518"/>
    </contour>
  </outline>
</glyph>
<glyph name="breve" format="2">
  <advance width="583"/>
  <unicode hex="02D8"/>
  <anchor x="292" y="517" name="_top"/>
  <outline>
    <contour>
      <point x="295" y="594" type="curve" smooth="yes"/>
      <point x="216" y="594"/>
      <point x="162" y="643"/>
      <point x="156" y="736" type="curve"/>
      <point x="185" y="736" type="line"/>
      <point x="196" y="662"/>
      <point x="233" y="637"/>
      <point x="296" y="637" type="curve" smooth="yes"/>
      <point x="356" y="637"/>
      <point x="397" y="662"/>
      <point x="407" y="736" type="curve"/>
      <point x="434" y="736" type="line"/>
      <point x="428" y="643"/>
      <point x="375" y="594"/>
    </contour>
  </outline>
</glyph>
<glyph name="dotaccent" format="2">
  <advance width="583"/>
  <unicode hex="02D9"/>
  <anchor x="291" y="526" name="_top"/>
  <outline>
    <contour>
      <point x="292" y="656" type="curve" smooth="yes"/>
      <point x="318" y="656"/>
      <point x="337" y="670"/>
      <point x="337" y="696" type="curve" smooth="yes"/>
      <point x="337" y="723"/>
      <point x="318" y="737"/>
      <point x="292" y="737" type="curve" smooth="yes"/>
      <point x="267" y="737"/>
      <point x="248" y="723"/>
      <point x="248" y="696" type="curve" smooth="yes"/>
      <point x="248" y="670"/>
      <point x="267" y="656"/>
    </contour>
  </outline>
</glyph>
<glyph name="hungarumlaut" format="2">
  <advance width="583"/>
  <unicode hex="02DD"/>
  <anchor x="300" y="525" name="_top"/>
  <outline>
    <contour>
      <point x="201" y="704" type="curve" smooth="yes"/>
      <point x="162" y="593" type="line"/>
      <point x="162" y="576" type="line"/>
      <point x="180" y="576" type="line"/>
      <point x="253" y="683" type="line" smooth="yes"/>
      <point x="261" y="699"/>
      <point x="273" y="714"/>
      <point x="273" y="728" type="curve" smooth="yes"/>
      <point x="273" y="745"/>
      <point x="261" y="754"/>
      <point x="246" y="754" type="curve" smooth="yes"/>
      <point x="219" y="754"/>
      <point x="211" y="735"/>
    </contour>
    <contour>
      <point x="349" y="704" type="curve" smooth="yes"/>
      <point x="311" y="593" type="line"/>
      <point x="311" y="576" type="line"/>
      <point x="329" y="576" type="line"/>
      <point x="401" y="683" type="line" smooth="yes"/>
      <point x="410" y="699"/>
      <point x="422" y="714"/>
      <point x="422" y="728" type="curve" smooth="yes"/>
      <point x="422" y="745"/>
      <point x="410" y="754"/>
      <point x="395" y="754" type="curve" smooth="yes"/>
      <point x="368" y="754"/>
      <point x="359" y="735"/>
    </contour>
  </outline>
</glyph>
<glyph name="Delta" format="2">
  <advance width="816"/>
  <unicode hex="0394"/>
  <outline>
    <contour>
      <point x="39" y="0" type="line"/>
      <point x="776" y="0" type="line"/>
      <point x="776" y="29" type="line"/>
      <point x="432" y="710" type="line"/>
      <point x="384" y="710" type="line"/>
      <point x="39" y="29" type="line"/>
    </contour>
    <contour>
      <point x="735" y="23" type="line"/>
      <point x="754" y="34" type="line"/>
      <point x="76" y="34" type="line"/>
      <point x="79" y="17" type="line"/>
      <point x="417" y="696" type="line"/>
      <point x="400" y="697" type="line"/>
    </contour>
  </outline>
</glyph>
<glyph name="Omega" format="2">
  <advance width="878"/>
  <unicode hex="03A9"/>
  <outline>
    <contour>
      <point x="439" y="720" type="curve" smooth="yes"/>
      <point x="635" y="720"/>
      <point x="778" y="593"/>
      <point x="778" y="439" type="curve" smooth="yes"/>
      <point x="778" y="278"/>
      <point x="680" y="185"/>
      <point x="501" y="11" type="curve"/>
      <point x="506" y="31" type="line"/>
      <point x="634" y="31" type="line" smooth="yes"/>
      <point x="735" y="31"/>
      <point x="778" y="38"/>
      <point x="782" y="74" type="curve" smooth="yes"/>
      <point x="792" y="180" type="line"/>
      <point x="820" y="180" type="line"/>
      <point x="820" y="0" type="line"/>
      <point x="492" y="0" type="line"/>
      <point x="492" y="44" type="line"/>
      <point x="645" y="194"/>
      <point x="733" y="266"/>
      <point x="733" y="439" type="curve" smooth="yes"/>
      <point x="733" y="592"/>
      <point x="615" y="689"/>
      <point x="439" y="689" type="curve" smooth="yes"/>
      <point x="263" y="689"/>
      <point x="145" y="592"/>
      <point x="145" y="439" type="curve" smooth="yes"/>
      <point x="145" y="266"/>
      <point x="233" y="194"/>
      <point x="386" y="44" type="curve"/>
      <point x="386" y="0" type="line"/>
      <point x="58" y="0" type="line"/>
      <point x="58" y="180" type="line"/>
      <point x="86" y="180" type="line"/>
      <point x="97" y="74" type="line" smooth="yes"/>
      <point x="100" y="38"/>
      <point x="143" y="31"/>
      <point x="244" y="31" type="curve" smooth="yes"/>
      <point x="372" y="31" type="line"/>
      <point x="377" y="11" type="line"/>
      <point x="198" y="185"/>
      <point x="101" y="278"/>
      <point x="101" y="439" type="curve" smooth="yes"/>
      <point x="101" y="593"/>
      <point x="243" y="720"/>
    </contour>
  </outline>
</glyph>
<glyph name="pi" format="2">
  <advance width="817"/>
  <unicode hex="03C0"/>
  <outline>
    <contour>
      <point x="303" y="0" type="line"/>
      <point x="303" y="488" type="line"/>
      <point x="272" y="488" type="line"/>
      <point x="264" y="222"/>
      <point x="258" y="188"/>
      <point x="258" y="0" type="curve"/>
    </contour>
    <contour>
      <point x="756" y="476" type="line"/>
      <point x="756" y="508" type="line"/>
      <point x="324" y="508" type="line" smooth="yes"/>
      <point x="158" y="508"/>
      <point x="92" y="444"/>
      <point x="66" y="336" type="curve"/>
      <point x="91" y="322" type="line"/>
      <point x="114" y="418"/>
      <point x="163" y="476"/>
      <point x="326" y="476" type="curve" smooth="yes"/>
    </contour>
    <contour>
      <point x="602" y="93" type="curve" smooth="yes"/>
      <point x="602" y="488" type="line"/>
      <point x="571" y="488" type="line"/>
      <point x="563" y="240"/>
      <point x="556" y="159"/>
      <point x="556" y="98" type="curve" smooth="yes"/>
      <point x="556" y="27"/>
      <point x="594" y="-6"/>
      <point x="654" y="-6" type="curve" smooth="yes"/>
      <point x="724" y="-6"/>
      <point x="755" y="37"/>
      <point x="774" y="85" type="curve"/>
      <point x="748" y="97" type="line"/>
      <point x="741" y="78"/>
      <point x="719" y="25"/>
      <point x="660" y="25" type="curve" smooth="yes"/>
      <point x="630" y="25"/>
      <point x="602" y="40"/>
    </contour>
  </outline>
</glyph>
<glyph name="idieresisacute" format="2">
  <advance width="319"/>
  <unicode hex="1E2F"/>
  <outline>
    <contour>
      <point x="44" y="655" type="curve" smooth="yes"/>
      <point x="69" y="655"/>
      <point x="88" y="670"/>
      <point x="88" y="696" type="curve" smooth="yes"/>
      <point x="88" y="722"/>
      <point x="69" y="737"/>
      <point x="44" y="737" type="curve" smooth="yes"/>
      <point x="19" y="737"/>
      <point x="0" y="722"/>
      <point x="0" y="696" type="curve" smooth="yes"/>
      <point x="0" y="670"/>
      <point x="19" y="655"/>
    </contour>
    <contour>
      <point x="266" y="655" type="curve" smooth="yes"/>
      <point x="291" y="655"/>
      <point x="310" y="670"/>
      <point x="310" y="696" type="curve" smooth="yes"/>
      <point x="310" y="722"/>
      <point x="291" y="737"/>
      <point x="266" y="737" type="curve" smooth="yes"/>
      <point x="241" y="737"/>
      <point x="222" y="722"/>
      <point x="222" y="696" type="curve" smooth="yes"/>
      <point x="222" y="670"/>
      <point x="241" y="655"/>
    </contour>
    <contour>
      <point x="216" y="896" type="curve" smooth="yes"/>
      <point x="151" y="779" type="line"/>
      <point x="151" y="765" type="line"/>
      <point x="165" y="765" type="line"/>
      <point x="263" y="871" type="line" smooth="yes"/>
      <point x="278" y="889"/>
      <point x="293" y="904"/>
      <point x="293" y="919" type="curve" smooth="yes"/>
      <point x="293" y="933"/>
      <point x="282" y="943"/>
      <point x="264" y="943" type="curve" smooth="yes"/>
      <point x="243" y="943"/>
      <point x="232" y="926"/>
    </contour>
    <component base="dotlessi"/>
  </outline>
</glyph>
<glyph name="horizontalbar" format="2">
  <advance width="1101"/>
  <unicode hex="2015"/>
  <outline>
    <contour>
      <point x="0" y="331" type="line"/>
      <point x="0" y="300" type="line"/>
      <point x="1101" y="300" type="line"/>
      <point x="1101" y="331" type="line"/>
    </contour>
  </outline>
</glyph>
<glyph name="quoteright" format="2">
  <advance width="220"/>
  <unicode hex="2019"/>
  <outline>
    <contour>
      <point x="72" y="521" type="line"/>
      <point x="135" y="563"/>
      <point x="162" y="609"/>
      <point x="162" y="667" type="curve" smooth="yes"/>
      <point x="162" y="700"/>
      <point x="144" y="715"/>
      <point x="120" y="715" type="curve" smooth="yes"/>
      <point x="100" y="715"/>
      <point x="84" y="701"/>
      <point x="84" y="681" type="curve" smooth="yes"/>
      <point x="84" y="661"/>
      <point x="97" y="646"/>
      <point x="119" y="646" type="curve" smooth="yes"/>
      <point x="136" y="646"/>
      <point x="148" y="652"/>
      <point x="151" y="667" type="curve"/>
      <point x="139" y="659" type="line"/>
      <point x="139" y="621"/>
      <point x="106" y="570"/>
      <point x="49" y="536" type="curve"/>
    </contour>
  </outline>
</glyph>
<glyph name="daggerdbl" format="2">
  <advance width="461"/>
  <unicode hex="2021"/>
  <outline>
    <contour>
      <point x="234" y="524" type="line"/>
      <point x="227" y="524" type="line"/>
      <point x="57" y="535" type="line"/>
      <point x="22" y="535" type="line"/>
      <point x="22" y="491" type="line"/>
      <point x="57" y="491" type="line"/>
      <point x="227" y="505" type="line"/>
      <point x="234" y="505" type="line"/>
      <point x="404" y="491" type="line"/>
      <point x="439" y="491" type="line"/>
      <point x="439" y="535" type="line"/>
      <point x="404" y="535" type="line"/>
    </contour>
    <contour>
      <point x="250" y="710" type="line"/>
      <point x="211" y="710" type="line"/>
      <point x="211" y="675" type="line" smooth="yes"/>
      <point x="211" y="642"/>
      <point x="220" y="577"/>
      <point x="220" y="509" type="curve"/>
      <point x="220" y="449"/>
      <point x="213" y="404"/>
      <point x="205" y="365" type="curve"/>
      <point x="205" y="345" type="line"/>
      <point x="213" y="306"/>
      <point x="220" y="261"/>
      <point x="220" y="201" type="curve"/>
      <point x="220" y="133"/>
      <point x="211" y="68"/>
      <point x="211" y="35" type="curve" smooth="yes"/>
      <point x="211" y="0" type="line"/>
      <point x="250" y="0" type="line"/>
      <point x="250" y="35" type="line" smooth="yes"/>
      <point x="250" y="68"/>
      <point x="242" y="133"/>
      <point x="242" y="201" type="curve"/>
      <point x="242" y="261"/>
      <point x="248" y="306"/>
      <point x="256" y="345" type="curve"/>
      <point x="256" y="365" type="line"/>
      <point x="248" y="404"/>
      <point x="242" y="449"/>
      <point x="242" y="509" type="curve"/>
      <point x="242" y="577"/>
      <point x="250" y="642"/>
      <point x="250" y="675" type="curve" smooth="yes"/>
    </contour>
    <contour>
      <point x="234" y="205" type="line"/>
      <point x="227" y="205" type="line"/>
      <point x="57" y="219" type="line"/>
      <point x="22" y="219" type="line"/>
      <point x="22" y="175" type="line"/>
      <point x="57" y="175" type="line"/>
      <point x="227" y="186" type="line"/>
      <point x="234" y="186" type="line"/>
      <point x="404" y="175" type="line"/>
      <point x="439" y="175" type="line"/>
      <point x="439" y="219" type="line"/>
      <point x="404" y="219" type="line"/>
    </contour>
  </outline>
</glyph>
<glyph name="bullet" format="2">
  <advance width="413"/>
  <unicode hex="2022"/>
  <outline>
    <contour>
      <point x="88" y="337" type="curve" smooth="yes"/>
      <point x="88" y="276"/>
      <point x="136" y="235"/>
      <point x="207" y="235" type="curve" smooth="yes"/>
      <point x="275" y="235"/>
      <point x="325" y="276"/>
      <point x="325" y="337" type="curve" smooth="yes"/>
      <point x="325" y="398"/>
      <point x="275" y="439"/>
      <point x="207" y="439" type="curve" smooth="yes"/>
      <point x="136" y="439"/>
      <point x="88" y="398"/>
    </contour>
  </outline>
</glyph>
<glyph name="minute" format="2">
  <advance width="280"/>
  <unicode hex="2032"/>
  <outline>
    <contour>
      <point x="186" y="710" type="line"/>
      <point x="173" y="616"/>
      <point x="156" y="573"/>
      <point x="141" y="457" type="curve"/>
      <point x="108" y="457" type="line"/>
      <point x="127" y="593"/>
      <point x="123" y="636"/>
      <point x="137" y="710" type="curve"/>
    </contour>
  </outline>
</glyph>
<glyph name="franc" format="2">
  <advance width="652"/>
  <unicode hex="20A3"/>
  <outline>
    <contour>
      <point x="235" y="679" type="line"/>
      <point x="441" y="679" type="line" smooth="yes"/>
      <point x="542" y="679"/>
      <point x="583" y="672"/>
      <point x="587" y="636" type="curve" smooth="yes"/>
      <point x="598" y="546" type="line"/>
      <point x="624" y="546" type="line"/>
      <point x="624" y="710" type="line"/>
      <point x="83" y="710" type="line"/>
      <point x="83" y="679" type="line"/>
      <point x="96" y="679" type="line" smooth="yes"/>
      <point x="153" y="679"/>
      <point x="195" y="672"/>
      <point x="195" y="643" type="curve" smooth="yes"/>
      <point x="195" y="67" type="line" smooth="yes"/>
      <point x="195" y="38"/>
      <point x="153" y="31"/>
      <point x="96" y="31" type="curve" smooth="yes"/>
      <point x="83" y="31" type="line"/>
      <point x="83" y="0" type="line"/>
      <point x="366" y="0" type="line"/>
      <point x="366" y="31" type="line"/>
      <point x="346" y="31" type="line" smooth="yes"/>
      <point x="296" y="31"/>
      <point x="235" y="32"/>
      <point x="235" y="67" type="curve" smooth="yes"/>
    </contour>
    <contour>
      <point x="83" y="219" type="line"/>
      <point x="83" y="189" type="line"/>
      <point x="421" y="189" type="line"/>
      <point x="421" y="219" type="line"/>
    </contour>
    <contour>
      <point x="213" y="393" type="curve"/>
      <point x="213" y="368" type="line"/>
      <point x="320" y="367"/>
      <point x="426" y="366"/>
      <point x="533" y="365" type="curve"/>
      <point x="533" y="396" type="line"/>
      <point x="426" y="395"/>
      <point x="320" y="394"/>
    </contour>
  </outline>
</glyph>
<glyph name="lira" format="2">
  <advance width="652"/>
  <unicode hex="20A4"/>
  <outline>
    <contour>
      <point x="54" y="428" type="line"/>
      <point x="54" y="398" type="line"/>
      <point x="465" y="398" type="line"/>
      <point x="465" y="428" type="line"/>
    </contour>
    <contour>
      <point x="54" y="273" type="line"/>
      <point x="54" y="243" type="line"/>
      <point x="465" y="243" type="line"/>
      <point x="465" y="273" type="line"/>
    </contour>
    <contour>
      <point x="50" y="-11" type="line"/>
      <point x="203" y="18"/>
      <point x="267" y="106"/>
      <point x="267" y="219" type="curve" smooth="yes"/>
      <point x="267" y="337"/>
      <point x="168" y="409"/>
      <point x="168" y="533" type="curve" smooth="yes"/>
      <point x="168" y="626"/>
      <point x="243" y="687"/>
      <point x="361" y="687" type="curve" smooth="yes"/>
      <point x="461" y="687"/>
      <point x="511" y="651"/>
      <point x="536" y="626" type="curve"/>
      <point x="541" y="624"/>
      <point x="537" y="661"/>
      <point x="518" y="662" type="curve"/>
      <point x="518" y="561" type="line"/>
      <point x="569" y="561" type="line"/>
      <point x="569" y="655" type="line"/>
      <point x="545" y="673"/>
      <point x="480" y="718"/>
      <point x="361" y="718" type="curve" smooth="yes"/>
      <point x="214" y="718"/>
      <point x="124" y="639"/>
      <point x="124" y="528" type="curve" smooth="yes"/>
      <point x="124" y="405"/>
      <point x="229" y="323"/>
      <point x="229" y="204" type="curve" smooth="yes"/>
      <point x="229" y="120"/>
      <point x="184" y="50"/>
      <point x="50" y="20" type="curve"/>
    </contour>
    <contour>
      <point x="442" y="-10" type="curve" smooth="yes"/>
      <point x="546" y="-10"/>
      <point x="601" y="68"/>
      <point x="625" y="151" type="curve"/>
      <point x="595" y="164" type="line"/>
      <point x="571" y="92"/>
      <point x="533" y="36"/>
      <point x="443" y="36" type="curve" smooth="yes"/>
      <point x="379" y="36"/>
      <point x="319" y="73"/>
      <point x="235" y="132" type="curve"/>
      <point x="223" y="126"/>
      <point x="217" y="117"/>
      <point x="219" y="105" type="curve"/>
      <point x="307" y="42"/>
      <point x="357" y="-10"/>
    </contour>
  </outline>
</glyph>
<glyph name="naira" format="2">
  <advance width="652"/>
  <unicode hex="20A6"/>
  <outline>
    <contour>
      <point x="12" y="0" type="line"/>
      <point x="237" y="0" type="line"/>
      <point x="237" y="31" type="line"/>
      <point x="221" y="31" type="line" smooth="yes"/>
      <point x="185" y="31"/>
      <point x="130" y="39"/>
      <point x="130" y="46" type="curve" smooth="yes"/>
      <point x="130" y="706" type="line"/>
      <point x="119" y="702" type="line"/>
      <point x="511" y="0" type="line"/>
      <point x="556" y="0" type="line"/>
      <point x="556" y="638" type="line" smooth="yes"/>
      <point x="556" y="667"/>
      <point x="585" y="679"/>
      <point x="626" y="679" type="curve" smooth="yes"/>
      <point x="640" y="679" type="line"/>
      <point x="640" y="710" type="line"/>
      <point x="415" y="710" type="line"/>
      <point x="415" y="679" type="line"/>
      <point x="431" y="679" type="line"/>
      <point x="468" y="679"/>
      <point x="522" y="671"/>
      <point x="522" y="664" type="curve" smooth="yes"/>
      <point x="522" y="27" type="line"/>
      <point x="522" y="42" type="line"/>
      <point x="156" y="710" type="line"/>
      <point x="12" y="710" type="line"/>
      <point x="12" y="679" type="line"/>
      <point x="25" y="679" type="line" smooth="yes"/>
      <point x="66" y="679"/>
      <point x="95" y="672"/>
      <point x="95" y="643" type="curve" smooth="yes"/>
      <point x="95" y="72" type="line" smooth="yes"/>
      <point x="95" y="43"/>
      <point x="66" y="31"/>
      <point x="25" y="31" type="curve" smooth="yes"/>
      <point x="12" y="31" type="line"/>
    </contour>
    <contour>
      <point x="120" y="441" type="line"/>
      <point x="6" y="441" type="line"/>
      <point x="6" y="410" type="line"/>
      <point x="113" y="410" type="line"/>
    </contour>
    <contour>
      <point x="646" y="410" type="line"/>
      <point x="646" y="441" type="line"/>
      <point x="289" y="441" type="line"/>
      <point x="299" y="410" type="line"/>
      <point x="527" y="410" type="line"/>
      <point x="533" y="410" type="line"/>
    </contour>
    <contour>
      <point x="6" y="251" type="line"/>
      <point x="393" y="251" type="line"/>
      <point x="381" y="282" type="line"/>
      <point x="123" y="282" type="line"/>
      <point x="114" y="282" type="line"/>
      <point x="6" y="282" type="line"/>
    </contour>
    <contour>
      <point x="546" y="251" type="line"/>
      <point x="646" y="251" type="line"/>
      <point x="646" y="282" type="line"/>
      <point x="546" y="282" type="line"/>
    </contour>
  </outline>
</glyph>
<glyph name="guarani" format="2">
  <advance width="651"/>
  <unicode hex="20B2"/>
  <outline>
    <contour>
      <point x="308" y="790" type="line"/>
      <point x="308" y="684" type="line"/>
      <point x="308" y="680" type="line"/>
      <point x="308" y="30" type="line"/>
      <point x="308" y="25" type="line"/>
      <point x="308" y="-120" type="line"/>
      <point x="347" y="-120" type="line"/>
      <point x="347" y="22" type="line"/>
      <point x="347" y="28" type="line"/>
      <point x="347" y="678" type="line"/>
      <point x="347" y="686" type="line"/>
      <point x="347" y="790" type="line"/>
    </contour>
    <contour>
      <point x="344" y="10" type="curve"/>
      <point x="450" y="10"/>
      <point x="527" y="57"/>
      <point x="563" y="105" type="curve"/>
      <point x="563" y="287" type="line"/>
      <point x="563" y="316"/>
      <point x="590" y="323"/>
      <point x="628" y="323" type="curve" smooth="yes"/>
      <point x="632" y="323" type="line"/>
      <point x="632" y="353" type="line"/>
      <point x="436" y="353" type="line"/>
      <point x="436" y="323" type="line"/>
      <point x="449" y="323" type="line" smooth="yes"/>
      <point x="495" y="323"/>
      <point x="528" y="316"/>
      <point x="528" y="287" type="curve"/>
      <point x="528" y="112" type="line"/>
      <point x="506" y="85"/>
      <point x="454" y="41"/>
      <point x="345" y="41" type="curve"/>
      <point x="185" y="41"/>
      <point x="93" y="160"/>
      <point x="93" y="355" type="curve" smooth="yes"/>
      <point x="93" y="555"/>
      <point x="191" y="669"/>
      <point x="349" y="669" type="curve"/>
      <point x="459" y="669"/>
      <point x="506" y="627"/>
      <point x="529" y="595" type="curve"/>
      <point x="545" y="595"/>
      <point x="556" y="632"/>
      <point x="508" y="638" type="curve"/>
      <point x="508" y="537" type="line"/>
      <point x="561" y="537" type="line"/>
      <point x="561" y="627" type="line"/>
      <point x="528" y="657"/>
      <point x="464" y="700"/>
      <point x="349" y="700" type="curve"/>
      <point x="169" y="700"/>
      <point x="49" y="572"/>
      <point x="49" y="355" type="curve" smooth="yes"/>
      <point x="49" y="147"/>
      <point x="164" y="10"/>
    </contour>
  </outline>
</glyph>
<glyph name="cedi" format="2">
  <advance width="652"/>
  <unicode hex="20B5"/>
  <outline>
    <contour>
      <point x="384" y="700" type="curve" smooth="yes"/>
      <point x="186" y="700"/>
      <point x="49" y="575"/>
      <point x="49" y="355" type="curve" smooth="yes"/>
      <point x="49" y="150"/>
      <point x="175" y="10"/>
      <point x="362" y="10" type="curve" smooth="yes"/>
      <point x="510" y="10"/>
      <point x="590" y="95"/>
      <point x="624" y="219" type="curve"/>
      <point x="593" y="236" type="line"/>
      <point x="566" y="126"/>
      <point x="500" y="41"/>
      <point x="361" y="41" type="curve" smooth="yes"/>
      <point x="195" y="41"/>
      <point x="93" y="165"/>
      <point x="93" y="355" type="curve" smooth="yes"/>
      <point x="93" y="562"/>
      <point x="209" y="669"/>
      <point x="384" y="669" type="curve" smooth="yes"/>
      <point x="485" y="669"/>
      <point x="547" y="638"/>
      <point x="578" y="601" type="curve"/>
      <point x="595" y="588"/>
      <point x="601" y="633"/>
      <point x="555" y="645" type="curve"/>
      <point x="555" y="539" type="line"/>
      <point x="605" y="539" type="line"/>
      <point x="605" y="632" type="line"/>
      <point x="567" y="665"/>
      <point x="484" y="700"/>
    </contour>
    <contour>
      <point x="333" y="790" type="line"/>
      <point x="333" y="687" type="line"/>
      <point x="333" y="680" type="line"/>
      <point x="333" y="32" type="line"/>
      <point x="333" y="24" type="line"/>
      <point x="333" y="-120" type="line"/>
      <point x="373" y="-120" type="line"/>
      <point x="373" y="26" type="line"/>
      <point x="373" y="32" type="line"/>
      <point x="373" y="679" type="line"/>
      <point x="373" y="686" type="line"/>
      <point x="373" y="790" type="line"/>
    </contour>
  </outline>
</glyph>
<glyph name="uni20B8" format="2">
  <advance width="652"/>
  <unicode hex="20B8"/>
  <outline>
    <contour>
      <point x="54" y="710" type="line"/>
      <point x="54" y="679" type="line"/>
      <point x="599" y="679" type="line"/>
      <point x="599" y="710" type="line"/>
    </contour>
    <contour>
      <point x="306" y="67" type="line" smooth="yes"/>
      <point x="306" y="38"/>
      <point x="264" y="31"/>
      <point x="207" y="31" type="curve" smooth="yes"/>
      <point x="188" y="31" type="line"/>
      <point x="188" y="0" type="line"/>
      <point x="464" y="0" type="line"/>
      <point x="464" y="31" type="line"/>
      <point x="445" y="31" type="line" smooth="yes"/>
      <point x="388" y="31"/>
      <point x="346" y="38"/>
      <point x="346" y="67" type="curve" smooth="yes"/>
      <point x="346" y="534" type="line"/>
      <point x="415" y="534" type="line" smooth="yes"/>
      <point x="516" y="534"/>
      <point x="558" y="527"/>
      <point x="561" y="491" type="curve" smooth="yes"/>
      <point x="572" y="393" type="line"/>
      <point x="599" y="393" type="line"/>
      <point x="599" y="565" type="line"/>
      <point x="54" y="565" type="line"/>
      <point x="54" y="393" type="line"/>
      <point x="81" y="393" type="line"/>
      <point x="91" y="491" type="line" smooth="yes"/>
      <point x="95" y="527"/>
      <point x="136" y="534"/>
      <point x="238" y="534" type="curve" smooth="yes"/>
      <point x="306" y="534" type="line"/>
    </contour>
  </outline>
</glyph>
<glyph name="manat" format="2">
  <advance width="652"/>
  <unicode hex="20BC"/>
  <outline>
    <contour>
      <point x="307" y="720" type="line"/>
      <point x="307" y="144" type="line"/>
      <point x="346" y="144" type="line"/>
      <point x="346" y="720" type="line"/>
    </contour>
    <contour>
      <point x="326" y="559" type="curve" smooth="yes"/>
      <point x="494" y="559"/>
      <point x="585" y="385"/>
      <point x="585" y="0" type="curve"/>
      <point x="629" y="0" type="line"/>
      <point x="629" y="381"/>
      <point x="518" y="590"/>
      <point x="326" y="590" type="curve" smooth="yes"/>
      <point x="135" y="590"/>
      <point x="23" y="381"/>
      <point x="23" y="0" type="curve"/>
      <point x="67" y="0" type="line"/>
      <point x="67" y="385"/>
      <point x="158" y="559"/>
    </contour>
  </outline>
</glyph>
<glyph name="servicemark" format="2">
  <advance width="947"/>
  <unicode hex="2120"/>
  <outline>
    <contour>
      <point x="435" y="395" type="line"/>
      <point x="558" y="395" type="line"/>
      <point x="558" y="419" type="line"/>
      <point x="553" y="419" type="line" smooth="yes"/>
      <point x="541" y="419"/>
      <point x="517" y="422"/>
      <point x="517" y="424" type="curve" smooth="yes"/>
      <point x="517" y="702" type="line"/>
      <point x="514" y="701" type="line"/>
      <point x="637" y="394" type="line"/>
      <point x="664" y="394" type="line"/>
      <point x="792" y="701" type="line"/>
      <point x="789" y="701" type="line"/>
      <point x="789" y="424" type="line" smooth="yes"/>
      <point x="789" y="422"/>
      <point x="767" y="419"/>
      <point x="754" y="419" type="curve" smooth="yes"/>
      <point x="747" y="419" type="line"/>
      <point x="747" y="395" type="line"/>
      <point x="877" y="395" type="line"/>
      <point x="877" y="419" type="line"/>
      <point x="869" y="419" type="line" smooth="yes"/>
      <point x="844" y="419"/>
      <point x="826" y="423"/>
      <point x="826" y="436" type="curve" smooth="yes"/>
      <point x="826" y="670" type="line" smooth="yes"/>
      <point x="826" y="684"/>
      <point x="844" y="686"/>
      <point x="869" y="686" type="curve" smooth="yes"/>
      <point x="877" y="686" type="line"/>
      <point x="877" y="710" type="line"/>
      <point x="761" y="710" type="line"/>
      <point x="651" y="435" type="line"/>
      <point x="657" y="434" type="line"/>
      <point x="553" y="710" type="line"/>
      <point x="435" y="710" type="line"/>
      <point x="435" y="686" type="line"/>
      <point x="442" y="686" type="line" smooth="yes"/>
      <point x="466" y="686"/>
      <point x="486" y="684"/>
      <point x="486" y="670" type="curve" smooth="yes"/>
      <point x="486" y="436" type="line" smooth="yes"/>
      <point x="486" y="423"/>
      <point x="466" y="419"/>
      <point x="442" y="419" type="curve"/>
      <point x="435" y="419" type="line"/>
    </contour>
    <contour>
      <point x="244" y="413" type="curve" smooth="yes"/>
      <point x="182" y="413"/>
      <point x="136" y="449"/>
      <point x="117" y="496" type="curve"/>
      <point x="80" y="496" type="line"/>
      <point x="80" y="391" type="line"/>
      <point x="107" y="391" type="line"/>
      <point x="115" y="473" type="line"/>
      <point x="99" y="480"/>
      <point x="116" y="452"/>
      <point x="90" y="487" type="curve"/>
      <point x="120" y="417"/>
      <point x="179" y="386"/>
      <point x="244" y="386" type="curve" smooth="yes"/>
      <point x="303" y="386"/>
      <point x="364" y="415"/>
      <point x="364" y="482" type="curve" smooth="yes"/>
      <point x="364" y="528"/>
      <point x="320" y="556"/>
      <point x="246" y="573" type="curve" smooth="yes"/>
      <point x="186" y="586"/>
      <point x="134" y="597"/>
      <point x="134" y="645" type="curve" smooth="yes"/>
      <point x="134" y="674"/>
      <point x="163" y="695"/>
      <point x="207" y="695" type="curve" smooth="yes"/>
      <point x="261" y="695"/>
      <point x="290" y="668"/>
      <point x="310" y="627" type="curve"/>
      <point x="343" y="627" type="line"/>
      <point x="343" y="716" type="line"/>
      <point x="319" y="716" type="line"/>
      <point x="311" y="645" type="line"/>
      <point x="322" y="638"/>
      <point x="322" y="638"/>
      <point x="332" y="639" type="curve"/>
      <point x="307" y="695"/>
      <point x="272" y="720"/>
      <point x="209" y="720" type="curve" smooth="yes"/>
      <point x="146" y="720"/>
      <point x="100" y="689"/>
      <point x="100" y="639" type="curve" smooth="yes"/>
      <point x="100" y="578"/>
      <point x="158" y="559"/>
      <point x="217" y="545" type="curve" smooth="yes"/>
      <point x="298" y="527"/>
      <point x="329" y="513"/>
      <point x="329" y="474" type="curve" smooth="yes"/>
      <point x="329" y="435"/>
      <point x="289" y="413"/>
    </contour>
  </outline>
</glyph>
<glyph name="trademark" format="2">
  <advance width="966"/>
  <unicode hex="2122"/>
  <outline>
    <contour>
      <point x="83" y="710" type="line"/>
      <point x="83" y="617" type="line"/>
      <point x="112" y="617" type="line"/>
      <point x="116" y="665" type="line" smooth="yes"/>
      <point x="117" y="679"/>
      <point x="136" y="686"/>
      <point x="180" y="686" type="curve" smooth="yes"/>
      <point x="222" y="686" type="line"/>
      <point x="222" y="436" type="line" smooth="yes"/>
      <point x="222" y="423"/>
      <point x="202" y="419"/>
      <point x="176" y="419" type="curve" smooth="yes"/>
      <point x="164" y="419" type="line"/>
      <point x="164" y="395" type="line"/>
      <point x="318" y="395" type="line"/>
      <point x="318" y="419" type="line"/>
      <point x="306" y="419" type="line" smooth="yes"/>
      <point x="281" y="419"/>
      <point x="260" y="423"/>
      <point x="260" y="436" type="curve" smooth="yes"/>
      <point x="260" y="686" type="line"/>
      <point x="302" y="686" type="line" smooth="yes"/>
      <point x="346" y="686"/>
      <point x="365" y="679"/>
      <point x="366" y="665" type="curve" smooth="yes"/>
      <point x="370" y="617" type="line"/>
      <point x="399" y="617" type="line"/>
      <point x="399" y="710" type="line"/>
    </contour>
    <contour>
      <point x="454" y="395" type="line"/>
      <point x="577" y="395" type="line"/>
      <point x="577" y="419" type="line"/>
      <point x="572" y="419" type="line" smooth="yes"/>
      <point x="560" y="419"/>
      <point x="535" y="422"/>
      <point x="535" y="424" type="curve" smooth="yes"/>
      <point x="535" y="702" type="line"/>
      <point x="532" y="701" type="line"/>
      <point x="656" y="394" type="line"/>
      <point x="684" y="394" type="line"/>
      <point x="810" y="701" type="line"/>
      <point x="807" y="701" type="line"/>
      <point x="807" y="424" type="line" smooth="yes"/>
      <point x="807" y="422"/>
      <point x="786" y="419"/>
      <point x="772" y="419" type="curve" smooth="yes"/>
      <point x="767" y="419" type="line"/>
      <point x="767" y="395" type="line"/>
      <point x="897" y="395" type="line"/>
      <point x="897" y="419" type="line"/>
      <point x="888" y="419" type="line" smooth="yes"/>
      <point x="863" y="419"/>
      <point x="845" y="423"/>
      <point x="845" y="436" type="curve" smooth="yes"/>
      <point x="845" y="670" type="line" smooth="yes"/>
      <point x="845" y="684"/>
      <point x="863" y="686"/>
      <point x="888" y="686" type="curve" smooth="yes"/>
      <point x="897" y="686" type="line"/>
      <point x="897" y="710" type="line"/>
      <point x="780" y="710" type="line"/>
      <point x="670" y="435" type="line"/>
      <point x="676" y="434" type="line"/>
      <point x="572" y="710" type="line"/>
      <point x="454" y="710" type="line"/>
      <point x="454" y="686" type="line"/>
      <point x="460" y="686" type="line" smooth="yes"/>
      <point x="485" y="686"/>
      <point x="505" y="684"/>
      <point x="505" y="670" type="curve" smooth="yes"/>
      <point x="505" y="436" type="line" smooth="yes"/>
      <point x="505" y="423"/>
      <point x="485" y="419"/>
      <point x="460" y="419" type="curve"/>
      <point x="454" y="419" type="line"/>
    </contour>
  </outline>
</glyph>
<glyph name="partialdiff" format="2">
  <advance width="635"/>
  <unicode hex="2202"/>
  <outline>
    <contour>
      <point x="262" y="-12" type="curve" smooth="yes"/>
      <point x="445" y="-12"/>
      <point x="563" y="199"/>
      <point x="563" y="457" type="curve" smooth="yes"/>
      <point x="563" y="665"/>
      <point x="476" y="748"/>
      <point x="342" y="748" type="curve" smooth="yes"/>
      <point x="277" y="748"/>
      <point x="220" y="727"/>
      <point x="181" y="703" type="curve"/>
      <point x="198" y="677" type="line"/>
      <point x="229" y="696"/>
      <point x="280" y="717"/>
      <point x="336" y="717" type="curve" smooth="yes"/>
      <point x="443" y="717"/>
      <point x="518" y="647"/>
      <point x="518" y="489" type="curve" smooth="yes"/>
      <point x="518" y="249"/>
      <point x="430" y="19"/>
      <point x="262" y="19" type="curve" smooth="yes"/>
      <point x="160" y="19"/>
      <point x="116" y="84"/>
      <point x="116" y="203" type="curve" smooth="yes"/>
      <point x="116" y="357"/>
      <point x="219" y="487"/>
      <point x="365" y="487" type="curve" smooth="yes"/>
      <point x="448" y="487"/>
      <point x="508" y="452"/>
      <point x="551" y="412" type="curve"/>
      <point x="549" y="413"/>
      <point x="539" y="446"/>
      <point x="529" y="468" type="curve"/>
      <point x="512" y="486"/>
      <point x="453" y="518"/>
      <point x="364" y="518" type="curve" smooth="yes"/>
      <point x="203" y="518"/>
      <point x="71" y="379"/>
      <point x="71" y="197" type="curve" smooth="yes"/>
      <point x="71" y="66"/>
      <point x="147" y="-12"/>
    </contour>
  </outline>
</glyph>
<glyph name="minus" format="2">
  <advance width="652"/>
  <unicode hex="2212"/>
  <outline>
    <contour>
      <point x="542" y="357" type="line"/>
      <point x="111" y="357" type="line"/>
      <point x="111" y="325" type="line"/>
      <point x="542" y="325" type="line"/>
    </contour>
  </outline>
</glyph>
<glyph name="approxequal" format="2">
  <advance width="652"/>
  <unicode hex="2248"/>
  <outline>
    <contour>
      <point x="430" y="327" type="curve" smooth="yes"/>
      <point x="510" y="327"/>
      <point x="538" y="393"/>
      <point x="554" y="444" type="curve"/>
      <point x="524" y="453" type="line"/>
      <point x="516" y="425"/>
      <point x="495" y="360"/>
      <point x="429" y="360" type="curve" smooth="yes"/>
      <point x="339" y="360"/>
      <point x="309" y="454"/>
      <point x="201" y="454" type="curve" smooth="yes"/>
      <point x="121" y="454"/>
      <point x="84" y="395"/>
      <point x="72" y="339" type="curve"/>
      <point x="104" y="332" type="line"/>
      <point x="113" y="371"/>
      <point x="137" y="421"/>
      <point x="202" y="421" type="curve" smooth="yes"/>
      <point x="286" y="421"/>
      <point x="330" y="327"/>
    </contour>
    <contour>
      <point x="430" y="120" type="curve" smooth="yes"/>
      <point x="510" y="120"/>
      <point x="538" y="186"/>
      <point x="554" y="237" type="curve"/>
      <point x="524" y="246" type="line"/>
      <point x="515" y="218"/>
      <point x="495" y="153"/>
      <point x="429" y="153" type="curve" smooth="yes"/>
      <point x="339" y="153"/>
      <point x="309" y="247"/>
      <point x="201" y="247" type="curve" smooth="yes"/>
      <point x="121" y="247"/>
      <point x="84" y="188"/>
      <point x="72" y="132" type="curve"/>
      <point x="104" y="125" type="line"/>
      <point x="113" y="164"/>
      <point x="137" y="214"/>
      <point x="202" y="214" type="curve" smooth="yes"/>
      <point x="286" y="214"/>
      <point x="330" y="120"/>
    </contour>
  </outline>
</glyph>
<glyph name="Pcircle" format="2">
  <advance width="979"/>
  <unicode hex="24C5"/>
  <outline>
    <contour>
      <point x="489" y="3" type="curve" smooth="yes"/>
      <point x="255" y="3"/>
      <point x="86" y="155"/>
      <point x="86" y="355" type="curve" smooth="yes"/>
      <point x="86" y="555"/>
      <point x="255" y="707"/>
      <point x="489" y="707" type="curve" smooth="yes"/>
      <point x="724" y="707"/>
      <point x="892" y="555"/>
      <point x="892" y="355" type="curve" smooth="yes"/>
      <point x="892" y="155"/>
      <point x="724" y="3"/>
    </contour>
    <contour>
      <point x="489" y="-28" type="curve" smooth="yes"/>
      <point x="739" y="-28"/>
      <point x="932" y="138"/>
      <point x="932" y="355" type="curve" smooth="yes"/>
      <point x="932" y="572"/>
      <point x="739" y="738"/>
      <point x="489" y="738" type="curve" smooth="yes"/>
      <point x="239" y="738"/>
      <point x="47" y="572"/>
      <point x="47" y="355" type="curve" smooth="yes"/>
      <point x="47" y="138"/>
      <point x="239" y="-28"/>
    </contour>
    <contour>
      <point x="512" y="181" type="line"/>
      <point x="482" y="181" type="line" smooth="yes"/>
      <point x="460" y="181"/>
      <point x="431" y="182"/>
      <point x="431" y="186" type="curve" smooth="yes"/>
      <point x="431" y="310" type="line"/>
      <point x="523" y="310" type="line" smooth="yes"/>
      <point x="624" y="310"/>
      <point x="696" y="359"/>
      <point x="696" y="437" type="curve" smooth="yes"/>
      <point x="696" y="513"/>
      <point x="630" y="557"/>
      <point x="527" y="557" type="curve" smooth="yes"/>
      <point x="324" y="557" type="line"/>
      <point x="324" y="530" type="line"/>
      <point x="331" y="530" type="line" smooth="yes"/>
      <point x="364" y="530"/>
      <point x="388" y="526"/>
      <point x="388" y="510" type="curve" smooth="yes"/>
      <point x="388" y="201" type="line" smooth="yes"/>
      <point x="388" y="185"/>
      <point x="364" y="181"/>
      <point x="331" y="181" type="curve" smooth="yes"/>
      <point x="324" y="181" type="line"/>
      <point x="324" y="153" type="line"/>
      <point x="512" y="153" type="line"/>
    </contour>
    <contour>
      <point x="431" y="527" type="line"/>
      <point x="527" y="527" type="line" smooth="yes"/>
      <point x="610" y="527"/>
      <point x="650" y="501"/>
      <point x="650" y="437" type="curve" smooth="yes"/>
      <point x="650" y="373"/>
      <point x="610" y="340"/>
      <point x="524" y="340" type="curve" smooth="yes"/>
      <point x="431" y="340" type="line"/>
    </contour>
  </outline>
</glyph>
<glyph name="uni25BF" format="2">
  <advance width="728"/>
  <unicode hex="25BF"/>
  <outline>
    <contour>
      <point x="676" y="464" type="line"/>
      <point x="52" y="464" type="line"/>
      <point x="364" y="91" type="line"/>
    </contour>
    <contour>
      <point x="576" y="414" type="line"/>
      <point x="568" y="430" type="line"/>
      <point x="358" y="175" type="line"/>
      <point x="370" y="175" type="line"/>
      <point x="160" y="430" type="line"/>
      <point x="151" y="414" type="line"/>
    </contour>
  </outline>
</glyph>
<glyph name="one.den" format="2">
  <advance width="379"/>
  <unicode hex="E403"/>
  <outline>
    <contour>
      <point x="217" y="52" type="curve" smooth="yes"/>
      <point x="217" y="341" type="line"/>
      <point x="194" y="341" type="line"/>
      <point x="171" y="313"/>
      <point x="128" y="299"/>
      <point x="55" y="298" type="curve"/>
      <point x="55" y="263" type="line"/>
      <point x="121" y="262"/>
      <point x="172" y="278"/>
      <point x="186" y="312" type="curve"/>
      <point x="175" y="306" type="line"/>
      <point x="175" y="52" type="line" smooth="yes"/>
      <point x="175" y="34"/>
      <point x="146" y="30"/>
      <point x="106" y="30" type="curve" smooth="yes"/>
      <point x="66" y="30" type="line"/>
      <point x="66" y="0" type="line"/>
      <point x="321" y="0" type="line"/>
      <point x="321" y="30" type="line"/>
      <point x="291" y="30" type="line" smooth="yes"/>
      <point x="246" y="30"/>
      <point x="217" y="34"/>
    </contour>
  </outline>
</glyph>
<glyph name="two.den" format="2">
  <advance width="377"/>
  <unicode hex="E404"/>
  <outline>
    <contour>
      <point x="221" y="29" type="line" smooth="yes"/>
      <point x="273" y="29"/>
      <point x="293" y="33"/>
      <point x="295" y="52" type="curve" smooth="yes"/>
      <point x="301" y="91" type="line"/>
      <point x="330" y="91" type="line"/>
      <point x="330" y="0" type="line"/>
      <point x="30" y="0" type="line"/>
      <point x="30" y="34" type="line"/>
      <point x="155" y="99"/>
      <point x="266" y="163"/>
      <point x="266" y="247" type="curve" smooth="yes"/>
      <point x="266" y="295"/>
      <point x="231" y="316"/>
      <point x="179" y="316" type="curve" smooth="yes"/>
      <point x="134" y="316"/>
      <point x="97" y="299"/>
      <point x="78" y="270" type="curve"/>
      <point x="78" y="291"/>
      <point x="90" y="304"/>
      <point x="91" y="304" type="curve"/>
      <point x="91" y="236" type="line"/>
      <point x="44" y="236" type="line"/>
      <point x="44" y="288" type="line"/>
      <point x="64" y="317"/>
      <point x="113" y="346"/>
      <point x="179" y="346" type="curve" smooth="yes"/>
      <point x="264" y="346"/>
      <point x="314" y="310"/>
      <point x="314" y="245" type="curve" smooth="yes"/>
      <point x="314" y="156"/>
      <point x="180" y="74"/>
      <point x="65" y="22" type="curve"/>
      <point x="59" y="23"/>
      <point x="59" y="27"/>
      <point x="61" y="29" type="curve"/>
    </contour>
  </outline>
</glyph>
<glyph name="four.den" format="2">
  <advance width="378"/>
  <unicode hex="E406"/>
  <outline>
    <contour>
      <point x="27" y="89" type="line"/>
      <point x="354" y="89" type="line"/>
      <point x="354" y="123" type="line"/>
      <point x="58" y="123" type="line"/>
      <point x="49" y="98" type="line"/>
      <point x="242" y="316" type="line"/>
      <point x="263" y="341" type="line"/>
      <point x="220" y="341" type="line"/>
      <point x="27" y="126" type="line"/>
    </contour>
    <contour>
      <point x="279" y="0" type="line"/>
      <point x="279" y="341" type="line"/>
      <point x="244" y="341" type="line"/>
      <point x="236" y="331" type="line"/>
      <point x="236" y="0" type="line"/>
    </contour>
  </outline>
</glyph>
<glyph name="six.den" format="2">
  <advance width="378"/>
  <unicode hex="E408"/>
  <outline>
    <contour>
      <point x="294" y="328" type="line"/>
      <point x="163" y="308"/>
      <point x="94" y="237"/>
      <point x="94" y="143" type="curve" smooth="yes"/>
      <point x="94" y="61"/>
      <point x="132" y="24"/>
      <point x="190" y="24" type="curve" smooth="yes"/>
      <point x="245" y="24"/>
      <point x="284" y="61"/>
      <point x="284" y="117" type="curve" smooth="yes"/>
      <point x="284" y="160"/>
      <point x="261" y="194"/>
      <point x="201" y="194" type="curve" smooth="yes"/>
      <point x="147" y="194"/>
      <point x="102" y="161"/>
      <point x="75" y="114" type="curve"/>
      <point x="65" y="142" type="line"/>
      <point x="84" y="180"/>
      <point x="139" y="225"/>
      <point x="206" y="225" type="curve" smooth="yes"/>
      <point x="287" y="225"/>
      <point x="333" y="182"/>
      <point x="333" y="117" type="curve" smooth="yes"/>
      <point x="333" y="47"/>
      <point x="271" y="-6"/>
      <point x="189" y="-6" type="curve" smooth="yes"/>
      <point x="105" y="-6"/>
      <point x="45" y="47"/>
      <point x="45" y="143" type="curve" smooth="yes"/>
      <point x="45" y="249"/>
      <point x="135" y="338"/>
      <point x="289" y="358" type="curve"/>
    </contour>
  </outline>
</glyph>
<glyph name="nine.den" format="2">
  <advance width="378"/>
  <unicode hex="E40B"/>
  <outline>
    <contour>
      <point x="70" y="15" type="line"/>
      <point x="215" y="31"/>
      <point x="284" y="96"/>
      <point x="284" y="199" type="curve" smooth="yes"/>
      <point x="284" y="281"/>
      <point x="248" y="316"/>
      <point x="186" y="316" type="curve" smooth="yes"/>
      <point x="132" y="316"/>
      <point x="94" y="283"/>
      <point x="94" y="232" type="curve" smooth="yes"/>
      <point x="94" y="190"/>
      <point x="116" y="155"/>
      <point x="178" y="155" type="curve" smooth="yes"/>
      <point x="234" y="155"/>
      <point x="278" y="187"/>
      <point x="302" y="236" type="curve"/>
      <point x="312" y="208" type="line"/>
      <point x="296" y="168"/>
      <point x="242" y="124"/>
      <point x="172" y="124" type="curve" smooth="yes"/>
      <point x="90" y="124"/>
      <point x="45" y="168"/>
      <point x="45" y="232" type="curve" smooth="yes"/>
      <point x="45" y="297"/>
      <point x="106" y="346"/>
      <point x="186" y="346" type="curve" smooth="yes"/>
      <point x="275" y="346"/>
      <point x="333" y="295"/>
      <point x="333" y="199" type="curve" smooth="yes"/>
      <point x="333" y="84"/>
      <point x="243" y="1"/>
      <point x="74" y="-15" type="curve"/>
    </contour>
  </outline>
</glyph>
<glyph name="f_f_l" format="2">
  <advance width="1103"/>
  <unicode hex="FB04"/>
  <outline>
    <contour>
      <point x="40" y="508" type="line"/>
      <point x="40" y="480" type="line"/>
      <point x="518" y="480" type="line"/>
      <point x="518" y="508" type="line"/>
    </contour>
    <contour>
      <point x="420" y="508" type="line"/>
      <point x="420" y="480" type="line"/>
      <point x="772" y="480" type="line"/>
      <point x="772" y="508" type="line"/>
    </contour>
    <contour>
      <point x="331" y="0" type="line"/>
      <point x="331" y="28" type="line"/>
      <point x="315" y="28" type="line" smooth="yes"/>
      <point x="251" y="28"/>
      <point x="203" y="31"/>
      <point x="203" y="38" type="curve" smooth="yes"/>
      <point x="203" y="576" type="line" smooth="yes"/>
      <point x="203" y="675"/>
      <point x="246" y="709"/>
      <point x="321" y="709" type="curve" smooth="yes"/>
      <point x="359" y="709"/>
      <point x="389" y="700"/>
      <point x="414" y="692" type="curve"/>
      <point x="414" y="727" type="line"/>
      <point x="392" y="733"/>
      <point x="359" y="737"/>
      <point x="324" y="737" type="curve" smooth="yes"/>
      <point x="228" y="737"/>
      <point x="162" y="690"/>
      <point x="162" y="576" type="curve" smooth="yes"/>
      <point x="162" y="64" type="line" smooth="yes"/>
      <point x="162" y="35"/>
      <point x="123" y="28"/>
      <point x="59" y="28" type="curve" smooth="yes"/>
      <point x="46" y="28" type="line"/>
      <point x="46" y="0" type="line"/>
    </contour>
    <contour>
      <point x="709" y="0" type="line"/>
      <point x="709" y="28" type="line"/>
      <point x="694" y="28" type="line" smooth="yes"/>
      <point x="630" y="28"/>
      <point x="582" y="31"/>
      <point x="582" y="38" type="curve" smooth="yes"/>
      <point x="582" y="595" type="line" smooth="yes"/>
      <point x="582" y="694"/>
      <point x="638" y="721"/>
      <point x="753" y="721" type="curve" smooth="yes"/>
      <point x="821" y="721"/>
      <point x="890" y="706"/>
      <point x="945" y="671" type="curve"/>
      <point x="953" y="711" type="line"/>
      <point x="910" y="727"/>
      <point x="847" y="752"/>
      <point x="753" y="752" type="curve" smooth="yes"/>
      <point x="619" y="752"/>
      <point x="541" y="709"/>
      <point x="541" y="595" type="curve"/>
      <point x="541" y="38" type="line" smooth="yes"/>
      <point x="541" y="31"/>
      <point x="493" y="28"/>
      <point x="429" y="28" type="curve" smooth="yes"/>
      <point x="426" y="28" type="line"/>
      <point x="426" y="0" type="line"/>
    </contour>
    <contour>
      <point x="1060" y="0" type="line"/>
      <point x="1060" y="28" type="line"/>
      <point x="1057" y="28" type="line" smooth="yes"/>
      <point x="1002" y="28"/>
      <point x="962" y="35"/>
      <point x="962" y="64" type="curve" smooth="yes"/>
      <point x="962" y="735" type="line"/>
      <point x="859" y="735" type="line"/>
      <point x="921" y="703" type="line"/>
      <point x="921" y="38" type="line" smooth="yes"/>
      <point x="921" y="31"/>
      <point x="869" y="28"/>
      <point x="836" y="28" type="curve" smooth="yes"/>
      <point x="823" y="28" type="line"/>
      <point x="823" y="0" type="line"/>
    </contour>
  </outline>
</glyph>
<glyph name="E.alt" format="2">
  <advance width="689"/>
  <outline>
    <contour>
      <point x="625" y="189" type="line"/>
      <point x="598" y="189" type="line"/>
      <point x="587" y="74" type="line" smooth="yes"/>
      <point x="584" y="38"/>
      <point x="542" y="31"/>
      <point x="442" y="31" type="curve" smooth="yes"/>
      <point x="205" y="31" type="line"/>
      <point x="205" y="679" type="line"/>
      <point x="408" y="679" type="line" smooth="yes"/>
      <point x="508" y="679"/>
      <point x="549" y="672"/>
      <point x="553" y="636" type="curve" smooth="yes"/>
      <point x="564" y="546" type="line"/>
      <point x="590" y="546" type="line"/>
      <point x="590" y="710" type="line"/>
      <point x="52" y="710" type="line"/>
      <point x="52" y="679" type="line"/>
      <point x="65" y="679" type="line" smooth="yes"/>
      <point x="122" y="679"/>
      <point x="164" y="672"/>
      <point x="164" y="643" type="curve" smooth="yes"/>
      <point x="164" y="67" type="line" smooth="yes"/>
      <point x="164" y="38"/>
      <point x="122" y="31"/>
      <point x="65" y="31" type="curve" smooth="yes"/>
      <point x="52" y="31" type="line"/>
      <point x="52" y="0" type="line"/>
      <point x="625" y="0" type="line"/>
    </contour>
    <contour>
      <point x="182" y="379" type="line"/>
      <point x="182" y="349" type="line"/>
      <point x="447" y="349" type="line" smooth="yes"/>
      <point x="483" y="349"/>
      <point x="494" y="319"/>
      <point x="494" y="285" type="curve" smooth="yes"/>
      <point x="494" y="278" type="line"/>
      <point x="523" y="278" type="line"/>
      <point x="523" y="451" type="line"/>
      <point x="494" y="451" type="line"/>
      <point x="494" y="443" type="line" smooth="yes"/>
      <point x="494" y="408"/>
      <point x="483" y="379"/>
      <point x="447" y="379" type="curve" smooth="yes"/>
    </contour>
  </outline>
</glyph>
<glyph name="Euro.proportional" format="2">
  <advance width="687"/>
  <outline>
    <contour>
      <point x="31" y="286" type="line"/>
      <point x="31" y="255" type="line"/>
      <point x="410" y="255" type="line"/>
      <point x="410" y="286" type="line"/>
    </contour>
    <contour>
      <point x="31" y="438" type="line"/>
      <point x="31" y="407" type="line"/>
      <point x="454" y="407" type="line"/>
      <point x="454" y="438" type="line"/>
    </contour>
    <contour>
      <point x="170" y="349" type="curve"/>
      <point x="170" y="598"/>
      <point x="293" y="688"/>
      <point x="441" y="688" type="curve" smooth="yes"/>
      <point x="510" y="688"/>
      <point x="581" y="666"/>
      <point x="615" y="624" type="curve"/>
      <point x="619" y="631"/>
      <point x="606" y="663"/>
      <point x="590" y="665" type="curve"/>
      <point x="590" y="571" type="line"/>
      <point x="640" y="571" type="line"/>
      <point x="640" y="654" type="line"/>
      <point x="613" y="684"/>
      <point x="530" y="719"/>
      <point x="441" y="719" type="curve" smooth="yes"/>
      <point x="267" y="719"/>
      <point x="126" y="613"/>
      <point x="126" y="349" type="curve"/>
      <point x="126" y="103"/>
      <point x="248" y="-10"/>
      <point x="417" y="-10" type="curve" smooth="yes"/>
      <point x="543" y="-10"/>
      <point x="611" y="53"/>
      <point x="653" y="139" type="curve"/>
      <point x="624" y="156" type="line"/>
      <point x="591" y="87"/>
      <point x="535" y="21"/>
      <point x="417" y="21" type="curve" smooth="yes"/>
      <point x="271" y="21"/>
      <point x="170" y="117"/>
    </contour>
  </outline>
</glyph>
<glyph name="OE.alt" format="2">
  <advance width="1144"/>
  <outline>
    <contour>
      <point x="1080" y="189" type="line"/>
      <point x="1052" y="189" type="line"/>
      <point x="1041" y="74" type="line" smooth="yes"/>
      <point x="1038" y="38"/>
      <point x="996" y="31"/>
      <point x="896" y="31" type="curve" smooth="yes"/>
      <point x="665" y="31" type="line"/>
      <point x="665" y="679" type="line"/>
      <point x="862" y="679" type="line" smooth="yes"/>
      <point x="962" y="679"/>
      <point x="1003" y="672"/>
      <point x="1007" y="636" type="curve" smooth="yes"/>
      <point x="1018" y="546" type="line"/>
      <point x="1045" y="546" type="line"/>
      <point x="1045" y="710" type="line"/>
      <point x="492" y="710" type="line" smooth="yes"/>
      <point x="212" y="710"/>
      <point x="55" y="569"/>
      <point x="55" y="353" type="curve" smooth="yes"/>
      <point x="55" y="136"/>
      <point x="212" y="0"/>
      <point x="492" y="0" type="curve" smooth="yes"/>
      <point x="1080" y="0" type="line"/>
    </contour>
    <contour>
      <point x="98" y="353" type="curve" smooth="yes"/>
      <point x="98" y="558"/>
      <point x="237" y="679"/>
      <point x="492" y="679" type="curve" smooth="yes"/>
      <point x="624" y="679" type="line"/>
      <point x="624" y="31" type="line"/>
      <point x="492" y="31" type="line" smooth="yes"/>
      <point x="237" y="31"/>
      <point x="98" y="148"/>
    </contour>
    <contour>
      <point x="643" y="379" type="line"/>
      <point x="643" y="349" type="line"/>
      <point x="900" y="349" type="line" smooth="yes"/>
      <point x="937" y="349"/>
      <point x="949" y="319"/>
      <point x="949" y="285" type="curve" smooth="yes"/>
      <point x="949" y="278" type="line"/>
      <point x="977" y="278" type="line"/>
      <point x="977" y="451" type="line"/>
      <point x="949" y="451" type="line"/>
      <point x="949" y="443" type="line" smooth="yes"/>
      <point x="949" y="408"/>
      <point x="937" y="379"/>
      <point x="900" y="379" type="curve" smooth="yes"/>
    </contour>
  </outline>
</glyph>
<glyph name="acute.pl" format="2">
  <advance width="583"/>
  <anchor x="256" y="489" name="_top"/>
  <outline>
    <contour>
      <point x="250" y="703" type="curve" smooth="yes"/>
      <point x="235" y="593" type="line"/>
      <point x="235" y="576" type="line"/>
      <point x="253" y="576" type="line"/>
      <point x="302" y="683" type="line" smooth="yes"/>
      <point x="308" y="699"/>
      <point x="314" y="714"/>
      <point x="314" y="728" type="curve" smooth="yes"/>
      <point x="314" y="745"/>
      <point x="302" y="754"/>
      <point x="287" y="754" type="curve" smooth="yes"/>
      <point x="261" y="754"/>
      <point x="254" y="736"/>
    </contour>
  </outline>
</glyph>
<glyph name="at.uc" format="2">
  <advance width="1001"/>
  <outline>
    <contour>
      <point x="525" y="-44" type="curve" smooth="yes"/>
      <point x="273" y="-44"/>
      <point x="98" y="91"/>
      <point x="98" y="304" type="curve" smooth="yes"/>
      <point x="98" y="532"/>
      <point x="292" y="705"/>
      <point x="555" y="705" type="curve" smooth="yes"/>
      <point x="784" y="705"/>
      <point x="915" y="577"/>
      <point x="915" y="412" type="curve" smooth="yes"/>
      <point x="915" y="236"/>
      <point x="829" y="146"/>
      <point x="733" y="146" type="curve" smooth="yes"/>
      <point x="665" y="146"/>
      <point x="635" y="179"/>
      <point x="650" y="249" type="curve"/>
      <point x="708" y="538" type="line"/>
      <point x="684" y="538" type="line"/>
      <point x="653" y="469" type="line"/>
      <point x="649" y="463" type="line"/>
      <point x="599" y="210" type="line"/>
      <point x="603" y="213" type="line"/>
      <point x="607" y="160"/>
      <point x="652" y="123"/>
      <point x="730" y="123" type="curve" smooth="yes"/>
      <point x="845" y="123"/>
      <point x="946" y="229"/>
      <point x="946" y="412" type="curve" smooth="yes"/>
      <point x="946" y="596"/>
      <point x="795" y="733"/>
      <point x="555" y="733" type="curve" smooth="yes"/>
      <point x="277" y="733"/>
      <point x="66" y="551"/>
      <point x="66" y="304" type="curve" smooth="yes"/>
      <point x="66" y="71"/>
      <point x="259" y="-73"/>
      <point x="525" y="-73" type="curve" smooth="yes"/>
      <point x="651" y="-73"/>
      <point x="757" y="-38"/>
      <point x="819" y="-5" type="curve"/>
      <point x="809" y="22" type="line"/>
      <point x="746" y="-11"/>
      <point x="649" y="-44"/>
    </contour>
    <contour>
      <point x="468" y="119" type="curve" smooth="yes"/>
      <point x="540" y="119"/>
      <point x="582" y="166"/>
      <point x="630" y="231" type="curve"/>
      <point x="627" y="264" type="line"/>
      <point x="576" y="195"/>
      <point x="537" y="147"/>
      <point x="468" y="147" type="curve" smooth="yes"/>
      <point x="392" y="147"/>
      <point x="353" y="194"/>
      <point x="353" y="291" type="curve" smooth="yes"/>
      <point x="353" y="399"/>
      <point x="430" y="516"/>
      <point x="539" y="516" type="curve" smooth="yes"/>
      <point x="601" y="516"/>
      <point x="638" y="489"/>
      <point x="663" y="399" type="curve"/>
      <point x="668" y="447" type="line"/>
      <point x="653" y="515"/>
      <point x="609" y="544"/>
      <point x="543" y="544" type="curve" smooth="yes"/>
      <point x="408" y="544"/>
      <point x="309" y="423"/>
      <point x="309" y="291" type="curve" smooth="yes"/>
      <point x="309" y="181"/>
      <point x="375" y="119"/>
    </contour>
  </outline>
</glyph>
<glyph name="bar.uc" format="2">
  <advance width="326"/>
  <outline>
    <contour>
      <point x="147" y="745" type="line"/>
      <point x="147" y="-35" type="line"/>
      <point x="180" y="-35" type="line"/>
      <point x="180" y="745" type="line"/>
    </contour>
  </outline>
</glyph>
<glyph name="bracketleft.uc" format="2">
  <advance width="309"/>
  <outline>
    <contour>
      <point x="281" y="-10" type="line"/>
      <point x="112" y="-10" type="line"/>
      <point x="112" y="720" type="line"/>
      <point x="281" y="720" type="line"/>
      <point x="281" y="751" type="line"/>
      <point x="70" y="751" type="line"/>
      <point x="70" y="-41" type="line"/>
      <point x="281" y="-41" type="line"/>
    </contour>
  </outline>
</glyph>
<glyph name="breve_hook.uc" format="2">
  <advance width="581"/>
  <anchor x="287" y="724" name="_top"/>
  <outline>
    <contour>
      <point x="180" y="984" type="line"/>
      <point x="189" y="1021"/>
      <point x="226" y="1058"/>
      <point x="302" y="1058" type="curve" smooth="yes"/>
      <point x="374" y="1058"/>
      <point x="410" y="1031"/>
      <point x="410" y="991" type="curve" smooth="yes"/>
      <point x="410" y="943"/>
      <point x="353" y="920"/>
      <point x="284" y="918" type="curve"/>
      <point x="311" y="944" type="line"/>
      <point x="311" y="888" type="line"/>
      <point x="271" y="888" type="line"/>
      <point x="271" y="945" type="line"/>
      <point x="328" y="947"/>
      <point x="366" y="957"/>
      <point x="366" y="991" type="curve" smooth="yes"/>
      <point x="366" y="1012"/>
      <point x="343" y="1030"/>
      <point x="302" y="1030" type="curve" smooth="yes"/>
      <point x="250" y="1030"/>
      <point x="232" y="1007"/>
      <point x="224" y="984" type="curve"/>
    </contour>
    <contour>
      <point x="295" y="759" type="curve" smooth="yes"/>
      <point x="204" y="759"/>
      <point x="150" y="806"/>
      <point x="144" y="886" type="curve"/>
      <point x="175" y="886" type="line"/>
      <point x="186" y="825"/>
      <point x="221" y="800"/>
      <point x="295" y="800" type="curve" smooth="yes"/>
      <point x="368" y="800"/>
      <point x="406" y="825"/>
      <point x="417" y="886" type="curve"/>
      <point x="446" y="886" type="line"/>
      <point x="441" y="806"/>
      <point x="387" y="759"/>
    </contour>
  </outline>
</glyph>
<glyph name="breve_tilde.uc" format="2">
  <advance width="583"/>
  <anchor x="323" y="694" name="_top"/>
  <outline>
    <contour>
      <point x="285" y="759" type="curve" smooth="yes"/>
      <point x="194" y="759"/>
      <point x="140" y="806"/>
      <point x="134" y="884" type="curve"/>
      <point x="165" y="884" type="line"/>
      <point x="176" y="825"/>
      <point x="211" y="800"/>
      <point x="284" y="800" type="curve" smooth="yes"/>
      <point x="358" y="800"/>
      <point x="396" y="825"/>
      <point x="407" y="884" type="curve"/>
      <point x="436" y="884" type="line"/>
      <point x="430" y="806"/>
      <point x="376" y="759"/>
    </contour>
    <contour>
      <point x="356" y="928" type="curve" smooth="yes"/>
      <point x="408" y="928"/>
      <point x="434" y="961"/>
      <point x="455" y="1020" type="curve"/>
      <point x="424" y="1029" type="line"/>
      <point x="409" y="988"/>
      <point x="391" y="962"/>
      <point x="360" y="962" type="curve" smooth="yes"/>
      <point x="310" y="962"/>
      <point x="287" y="1032"/>
      <point x="210" y="1032" type="curve" smooth="yes"/>
      <point x="159" y="1032"/>
      <point x="129" y="1000"/>
      <point x="116" y="938" type="curve"/>
      <point x="146" y="928" type="line"/>
      <point x="157" y="973"/>
      <point x="170" y="998"/>
      <point x="205" y="998" type="curve" smooth="yes"/>
      <point x="256" y="998"/>
      <point x="276" y="928"/>
    </contour>
  </outline>
</glyph>
<glyph name="brokenbar.uc" format="2">
  <advance width="326"/>
  <outline>
    <contour>
      <point x="180" y="454" type="line"/>
      <point x="180" y="769" type="line"/>
      <point x="147" y="769" type="line"/>
      <point x="147" y="454" type="line"/>
    </contour>
    <contour>
      <point x="147" y="314" type="line"/>
      <point x="147" y="-1" type="line"/>
      <point x="180" y="-1" type="line"/>
      <point x="180" y="314" type="line"/>
    </contour>
  </outline>
</glyph>
<glyph name="cedi.proportional" format="2">
  <advance width="764"/>
  <outline>
    <contour>
      <point x="414" y="700" type="curve" smooth="yes"/>
      <point x="208" y="700"/>
      <point x="54" y="569"/>
      <point x="54" y="355" type="curve" smooth="yes"/>
      <point x="54" y="150"/>
      <point x="203" y="10"/>
      <point x="412" y="10" type="curve" smooth="yes"/>
      <point x="576" y="10"/>
      <point x="675" y="96"/>
      <point x="713" y="219" type="curve"/>
      <point x="682" y="236" type="line"/>
      <point x="651" y="128"/>
      <point x="565" y="41"/>
      <point x="411" y="41" type="curve" smooth="yes"/>
      <point x="221" y="41"/>
      <point x="98" y="166"/>
      <point x="98" y="355" type="curve" smooth="yes"/>
      <point x="98" y="556"/>
      <point x="231" y="669"/>
      <point x="414" y="669" type="curve" smooth="yes"/>
      <point x="537" y="669"/>
      <point x="616" y="630"/>
      <point x="660" y="578" type="curve"/>
      <point x="677" y="565"/>
      <point x="680" y="602"/>
      <point x="633" y="621" type="curve"/>
      <point x="633" y="513" type="line"/>
      <point x="686" y="513" type="line"/>
      <point x="686" y="611" type="line"/>
      <point x="643" y="655"/>
      <point x="547" y="700"/>
    </contour>
    <contour>
      <point x="393" y="790" type="line"/>
      <point x="393" y="689" type="line"/>
      <point x="393" y="682" type="line"/>
      <point x="393" y="31" type="line"/>
      <point x="393" y="26" type="line"/>
      <point x="393" y="-120" type="line"/>
      <point x="432" y="-120" type="line"/>
      <point x="432" y="26" type="line"/>
      <point x="432" y="30" type="line"/>
      <point x="432" y="683" type="line"/>
      <point x="432" y="687" type="line"/>
      <point x="432" y="790" type="line"/>
    </contour>
  </outline>
</glyph>
<glyph name="circumflex.uc" format="2">
  <advance width="583"/>
  <anchor x="286" y="694" name="_top"/>
  <outline>
    <contour>
      <point x="329" y="884" type="line"/>
      <point x="458" y="759" type="line"/>
      <point x="458" y="749" type="line"/>
      <point x="434" y="749" type="line"/>
      <point x="257" y="866" type="line"/>
      <point x="313" y="866" type="line"/>
      <point x="143" y="749" type="line"/>
      <point x="125" y="749" type="line"/>
      <point x="125" y="759" type="line"/>
      <point x="251" y="884" type="line"/>
    </contour>
  </outline>
</glyph>
<glyph name="circumflex_acute" format="2">
  <advance width="594"/>
  <anchor x="280" y="558" name="_top"/>
  <outline>
    <contour>
      <point x="483" y="824" type="curve" smooth="yes"/>
      <point x="417" y="707" type="line"/>
      <point x="417" y="693" type="line"/>
      <point x="432" y="693" type="line"/>
      <point x="530" y="799" type="line" smooth="yes"/>
      <point x="546" y="816"/>
      <point x="560" y="831"/>
      <point x="560" y="847" type="curve" smooth="yes"/>
      <point x="560" y="861"/>
      <point x="549" y="871"/>
      <point x="531" y="871" type="curve" smooth="yes"/>
      <point x="510" y="871"/>
      <point x="499" y="854"/>
    </contour>
    <component base="circumflex" xOffset="-12"/>
  </outline>
</glyph>
<glyph name="circumflex_grave.uc" format="2">
  <advance width="594"/>
  <anchor x="286" y="696" name="_top"/>
  <outline>
    <contour>
      <point x="446" y="925" type="line" smooth="yes"/>
      <point x="421" y="960"/>
      <point x="413" y="975"/>
      <point x="393" y="975" type="curve" smooth="yes"/>
      <point x="378" y="975"/>
      <point x="368" y="966"/>
      <point x="368" y="952" type="curve" smooth="yes"/>
      <point x="368" y="937"/>
      <point x="380" y="925"/>
      <point x="403" y="904" type="curve" smooth="yes"/>
      <point x="482" y="835" type="line"/>
      <point x="498" y="835" type="line"/>
      <point x="498" y="849" type="line"/>
    </contour>
    <component base="circumflex.uc"/>
  </outline>
</glyph>
<glyph name="circumflex_hook" format="2">
  <advance width="594"/>
  <anchor x="295" y="559" name="_top"/>
  <outline>
    <contour>
      <point x="379" y="797" type="line"/>
      <point x="388" y="834"/>
      <point x="421" y="871"/>
      <point x="497" y="871" type="curve" smooth="yes"/>
      <point x="565" y="871"/>
      <point x="600" y="845"/>
      <point x="600" y="802" type="curve"/>
      <point x="600" y="753"/>
      <point x="544" y="727"/>
      <point x="480" y="722" type="curve"/>
      <point x="507" y="751" type="line"/>
      <point x="507" y="687" type="line"/>
      <point x="465" y="687" type="line"/>
      <point x="465" y="750" type="line"/>
      <point x="518" y="755"/>
      <point x="555" y="768"/>
      <point x="555" y="800" type="curve"/>
      <point x="555" y="825"/>
      <point x="536" y="843"/>
      <point x="497" y="843" type="curve" smooth="yes"/>
      <point x="446" y="843"/>
      <point x="431" y="821"/>
      <point x="423" y="797" type="curve"/>
    </contour>
    <component base="circumflex"/>
  </outline>
</glyph>
<glyph name="circumflex_hook.uc" format="2">
  <advance width="594"/>
  <anchor x="293" y="694" name="_top"/>
  <outline>
    <contour>
      <point x="376" y="943" type="line"/>
      <point x="386" y="980"/>
      <point x="421" y="1017"/>
      <point x="493" y="1017" type="curve" smooth="yes"/>
      <point x="560" y="1017"/>
      <point x="596" y="993"/>
      <point x="596" y="949" type="curve" smooth="yes"/>
      <point x="596" y="900"/>
      <point x="540" y="878"/>
      <point x="477" y="877" type="curve"/>
      <point x="502" y="903" type="line"/>
      <point x="502" y="839" type="line"/>
      <point x="463" y="839" type="line"/>
      <point x="463" y="901" type="line"/>
      <point x="516" y="904"/>
      <point x="551" y="916"/>
      <point x="551" y="949" type="curve" smooth="yes"/>
      <point x="551" y="975"/>
      <point x="532" y="988"/>
      <point x="493" y="988" type="curve" smooth="yes"/>
      <point x="445" y="988"/>
      <point x="429" y="967"/>
      <point x="419" y="943" type="curve"/>
    </contour>
    <component base="circumflex.uc"/>
  </outline>
</glyph>
<glyph name="circumflex_tilde" format="2">
  <advance width="583"/>
  <anchor x="286" y="551" name="_top"/>
  <outline>
    <contour>
      <point x="348" y="779" type="curve" smooth="yes"/>
      <point x="399" y="779"/>
      <point x="420" y="815"/>
      <point x="439" y="877" type="curve"/>
      <point x="409" y="886" type="line"/>
      <point x="394" y="843"/>
      <point x="382" y="813"/>
      <point x="354" y="813" type="curve" smooth="yes"/>
      <point x="309" y="813"/>
      <point x="292" y="889"/>
      <point x="222" y="889" type="curve" smooth="yes"/>
      <point x="177" y="889"/>
      <point x="148" y="855"/>
      <point x="136" y="789" type="curve"/>
      <point x="167" y="779" type="line"/>
      <point x="177" y="828"/>
      <point x="187" y="855"/>
      <point x="218" y="855" type="curve" smooth="yes"/>
      <point x="263" y="855"/>
      <point x="279" y="779"/>
    </contour>
    <contour>
      <point x="329" y="729" type="line"/>
      <point x="444" y="606" type="line"/>
      <point x="444" y="596" type="line"/>
      <point x="418" y="596" type="line"/>
      <point x="261" y="714" type="line"/>
      <point x="314" y="714" type="line"/>
      <point x="159" y="596" type="line"/>
      <point x="141" y="596" type="line"/>
      <point x="141" y="606" type="line"/>
      <point x="252" y="729" type="line"/>
    </contour>
  </outline>
</glyph>
<glyph name="currency.proportional" format="2">
  <advance width="740"/>
  <outline>
    <contour>
      <point x="569" y="376" type="curve" smooth="yes"/>
      <point x="569" y="277"/>
      <point x="487" y="207"/>
      <point x="370" y="207" type="curve" smooth="yes"/>
      <point x="252" y="207"/>
      <point x="171" y="278"/>
      <point x="171" y="376" type="curve" smooth="yes"/>
      <point x="171" y="475"/>
      <point x="252" y="546"/>
      <point x="370" y="546" type="curve" smooth="yes"/>
      <point x="487" y="546"/>
      <point x="569" y="475"/>
    </contour>
    <contour>
      <point x="129" y="376" type="curve" smooth="yes"/>
      <point x="129" y="257"/>
      <point x="235" y="171"/>
      <point x="370" y="171" type="curve" smooth="yes"/>
      <point x="504" y="171"/>
      <point x="611" y="257"/>
      <point x="611" y="376" type="curve" smooth="yes"/>
      <point x="611" y="496"/>
      <point x="504" y="582"/>
      <point x="370" y="582" type="curve" smooth="yes"/>
      <point x="235" y="582"/>
      <point x="129" y="496"/>
    </contour>
    <contour>
      <point x="81" y="599" type="line"/>
      <point x="201" y="496" type="line"/>
      <point x="237" y="517" type="line"/>
      <point x="109" y="627" type="line"/>
    </contour>
    <contour>
      <point x="658" y="599" type="line"/>
      <point x="630" y="627" type="line"/>
      <point x="502" y="517" type="line"/>
      <point x="539" y="496" type="line"/>
    </contour>
    <contour>
      <point x="81" y="152" type="line"/>
      <point x="109" y="125" type="line"/>
      <point x="237" y="235" type="line"/>
      <point x="201" y="255" type="line"/>
    </contour>
    <contour>
      <point x="658" y="152" type="line"/>
      <point x="539" y="255" type="line"/>
      <point x="502" y="235" type="line"/>
      <point x="630" y="125" type="line"/>
    </contour>
  </outline>
</glyph>
<glyph name="dieresis.uc" format="2">
  <advance width="583"/>
  <anchor x="291" y="694" name="_top"/>
  <outline>
    <contour>
      <point x="180" y="781" type="curve" smooth="yes"/>
      <point x="205" y="781"/>
      <point x="224" y="795"/>
      <point x="224" y="822" type="curve" smooth="yes"/>
      <point x="224" y="848"/>
      <point x="205" y="862"/>
      <point x="180" y="862" type="curve" smooth="yes"/>
      <point x="154" y="862"/>
      <point x="136" y="848"/>
      <point x="136" y="822" type="curve" smooth="yes"/>
      <point x="136" y="795"/>
      <point x="154" y="781"/>
    </contour>
    <contour>
      <point x="402" y="781" type="curve" smooth="yes"/>
      <point x="427" y="781"/>
      <point x="446" y="795"/>
      <point x="446" y="822" type="curve" smooth="yes"/>
      <point x="446" y="848"/>
      <point x="427" y="862"/>
      <point x="402" y="862" type="curve" smooth="yes"/>
      <point x="376" y="862"/>
      <point x="358" y="848"/>
      <point x="358" y="822" type="curve" smooth="yes"/>
      <point x="358" y="795"/>
      <point x="376" y="781"/>
    </contour>
  </outline>
</glyph>
<glyph name="dollar.alt" format="2">
  <advance width="652"/>
  <outline>
    <contour>
      <point x="323" y="787" type="line"/>
      <point x="323" y="684" type="line"/>
      <point x="362" y="684" type="line"/>
      <point x="362" y="787" type="line"/>
    </contour>
    <contour>
      <point x="323" y="19" type="line"/>
      <point x="323" y="-120" type="line"/>
      <point x="362" y="-120" type="line"/>
      <point x="362" y="19" type="line"/>
    </contour>
    <contour>
      <point x="348" y="39" type="curve" smooth="yes"/>
      <point x="234" y="39"/>
      <point x="134" y="70"/>
      <point x="89" y="123" type="curve"/>
      <point x="80" y="112"/>
      <point x="94" y="91"/>
      <point x="111" y="85" type="curve"/>
      <point x="111" y="180" type="line"/>
      <point x="60" y="180" type="line"/>
      <point x="60" y="94" type="line"/>
      <point x="109" y="51"/>
      <point x="215" y="8"/>
      <point x="348" y="8" type="curve" smooth="yes"/>
      <point x="493" y="8"/>
      <point x="609" y="72"/>
      <point x="609" y="195" type="curve" smooth="yes"/>
      <point x="609" y="320"/>
      <point x="482" y="356"/>
      <point x="377" y="380" type="curve" smooth="yes"/>
      <point x="259" y="406"/>
      <point x="141" y="429"/>
      <point x="141" y="533" type="curve" smooth="yes"/>
      <point x="141" y="618"/>
      <point x="225" y="667"/>
      <point x="349" y="667" type="curve" smooth="yes"/>
      <point x="458" y="667"/>
      <point x="525" y="638"/>
      <point x="552" y="607" type="curve"/>
      <point x="566" y="622"/>
      <point x="548" y="636"/>
      <point x="526" y="638" type="curve"/>
      <point x="526" y="552" type="line"/>
      <point x="580" y="552" type="line"/>
      <point x="580" y="636" type="line"/>
      <point x="552" y="660"/>
      <point x="468" y="698"/>
      <point x="349" y="698" type="curve" smooth="yes"/>
      <point x="201" y="698"/>
      <point x="97" y="632"/>
      <point x="97" y="530" type="curve" smooth="yes"/>
      <point x="97" y="408"/>
      <point x="220" y="373"/>
      <point x="321" y="349" type="curve" smooth="yes"/>
      <point x="441" y="322"/>
      <point x="565" y="304"/>
      <point x="565" y="188" type="curve" smooth="yes"/>
      <point x="565" y="85"/>
      <point x="471" y="39"/>
    </contour>
  </outline>
</glyph>
<glyph name="dollar.altprop" format="2">
  <advance width="650"/>
  <outline>
    <contour>
      <point x="347" y="39" type="curve" smooth="yes"/>
      <point x="233" y="39"/>
      <point x="134" y="70"/>
      <point x="89" y="123" type="curve"/>
      <point x="80" y="112"/>
      <point x="94" y="91"/>
      <point x="111" y="85" type="curve"/>
      <point x="111" y="180" type="line"/>
      <point x="60" y="180" type="line"/>
      <point x="60" y="94" type="line"/>
      <point x="108" y="51"/>
      <point x="214" y="8"/>
      <point x="347" y="8" type="curve" smooth="yes"/>
      <point x="492" y="8"/>
      <point x="607" y="72"/>
      <point x="607" y="195" type="curve" smooth="yes"/>
      <point x="607" y="320"/>
      <point x="480" y="356"/>
      <point x="376" y="380" type="curve" smooth="yes"/>
      <point x="259" y="406"/>
      <point x="141" y="429"/>
      <point x="141" y="533" type="curve" smooth="yes"/>
      <point x="141" y="618"/>
      <point x="225" y="667"/>
      <point x="348" y="667" type="curve" smooth="yes"/>
      <point x="455" y="667"/>
      <point x="523" y="638"/>
      <point x="550" y="607" type="curve"/>
      <point x="564" y="622"/>
      <point x="546" y="635"/>
      <point x="524" y="638" type="curve"/>
      <point x="524" y="552" type="line"/>
      <point x="578" y="552" type="line"/>
      <point x="578" y="636" type="line"/>
      <point x="549" y="660"/>
      <point x="466" y="698"/>
      <point x="348" y="698" type="curve" smooth="yes"/>
      <point x="200" y="698"/>
      <point x="97" y="632"/>
      <point x="97" y="530" type="curve" smooth="yes"/>
      <point x="97" y="408"/>
      <point x="219" y="374"/>
      <point x="320" y="349" type="curve" smooth="yes"/>
      <point x="440" y="322"/>
      <point x="563" y="304"/>
      <point x="563" y="188" type="curve" smooth="yes"/>
      <point x="563" y="85"/>
      <point x="470" y="39"/>
    </contour>
    <contour>
      <point x="322" y="787" type="line"/>
      <point x="322" y="684" type="line"/>
      <point x="361" y="684" type="line"/>
      <point x="361" y="787" type="line"/>
    </contour>
    <contour>
      <point x="322" y="19" type="line"/>
      <point x="322" y="-120" type="line"/>
      <point x="361" y="-120" type="line"/>
      <point x="361" y="19" type="line"/>
    </contour>
  </outline>
</glyph>
<glyph name="dollar.proportional" format="2">
  <advance width="715"/>
  <outline>
    <contour>
      <point x="346" y="787" type="line"/>
      <point x="346" y="687" type="line"/>
      <point x="346" y="679" type="line"/>
      <point x="346" y="27" type="line"/>
      <point x="346" y="22" type="line"/>
      <point x="346" y="-120" type="line"/>
      <point x="385" y="-120" type="line"/>
      <point x="385" y="19" type="line"/>
      <point x="385" y="26" type="line"/>
      <point x="385" y="677" type="line"/>
      <point x="385" y="685" type="line"/>
      <point x="385" y="787" type="line"/>
    </contour>
    <contour>
      <point x="372" y="39" type="curve" smooth="yes"/>
      <point x="259" y="39"/>
      <point x="143" y="77"/>
      <point x="94" y="133" type="curve"/>
      <point x="92" y="114"/>
      <point x="105" y="104"/>
      <point x="122" y="88" type="curve"/>
      <point x="122" y="188" type="line"/>
      <point x="72" y="188" type="line"/>
      <point x="72" y="97" type="line"/>
      <point x="123" y="56"/>
      <point x="240" y="8"/>
      <point x="371" y="8" type="curve" smooth="yes"/>
      <point x="523" y="8"/>
      <point x="644" y="72"/>
      <point x="644" y="195" type="curve" smooth="yes"/>
      <point x="644" y="317"/>
      <point x="509" y="354"/>
      <point x="399" y="379" type="curve" smooth="yes"/>
      <point x="273" y="406"/>
      <point x="145" y="428"/>
      <point x="145" y="532" type="curve" smooth="yes"/>
      <point x="145" y="618"/>
      <point x="232" y="667"/>
      <point x="366" y="667" type="curve" smooth="yes"/>
      <point x="472" y="667"/>
      <point x="550" y="639"/>
      <point x="587" y="601" type="curve"/>
      <point x="590" y="622"/>
      <point x="572" y="644"/>
      <point x="561" y="651" type="curve"/>
      <point x="561" y="550" type="line"/>
      <point x="615" y="550" type="line"/>
      <point x="615" y="631" type="line"/>
      <point x="576" y="662"/>
      <point x="483" y="698"/>
      <point x="367" y="698" type="curve" smooth="yes"/>
      <point x="208" y="698"/>
      <point x="108" y="634"/>
      <point x="108" y="529" type="curve" smooth="yes"/>
      <point x="108" y="407"/>
      <point x="239" y="376"/>
      <point x="344" y="350" type="curve" smooth="yes"/>
      <point x="474" y="323"/>
      <point x="607" y="304"/>
      <point x="607" y="188" type="curve" smooth="yes"/>
      <point x="607" y="85"/>
      <point x="505" y="39"/>
    </contour>
  </outline>
</glyph>
<glyph name="eight.oldprop" format="2">
  <advance width="659"/>
  <outline>
    <contour>
      <point x="330" y="21" type="curve" smooth="yes"/>
      <point x="203" y="21"/>
      <point x="103" y="89"/>
      <point x="103" y="197" type="curve" smooth="yes"/>
      <point x="103" y="300"/>
      <point x="203" y="361"/>
      <point x="330" y="361" type="curve" smooth="yes"/>
      <point x="456" y="361"/>
      <point x="557" y="300"/>
      <point x="557" y="197" type="curve" smooth="yes"/>
      <point x="557" y="89"/>
      <point x="456" y="21"/>
    </contour>
    <contour>
      <point x="330" y="391" type="curve" smooth="yes"/>
      <point x="235" y="391"/>
      <point x="151" y="447"/>
      <point x="151" y="538" type="curve" smooth="yes"/>
      <point x="151" y="630"/>
      <point x="229" y="689"/>
      <point x="330" y="689" type="curve" smooth="yes"/>
      <point x="431" y="689"/>
      <point x="509" y="630"/>
      <point x="509" y="538" type="curve" smooth="yes"/>
      <point x="509" y="447"/>
      <point x="424" y="391"/>
    </contour>
    <contour>
      <point x="330" y="720" type="curve" smooth="yes"/>
      <point x="215" y="720"/>
      <point x="109" y="648"/>
      <point x="109" y="543" type="curve" smooth="yes"/>
      <point x="109" y="454"/>
      <point x="181" y="392"/>
      <point x="270" y="374" type="curve"/>
      <point x="249" y="384" type="line"/>
      <point x="249" y="371" type="line"/>
      <point x="270" y="382" type="line"/>
      <point x="155" y="364"/>
      <point x="59" y="294"/>
      <point x="59" y="192" type="curve" smooth="yes"/>
      <point x="59" y="72"/>
      <point x="185" y="-10"/>
      <point x="330" y="-10" type="curve" smooth="yes"/>
      <point x="475" y="-10"/>
      <point x="600" y="72"/>
      <point x="600" y="192" type="curve" smooth="yes"/>
      <point x="600" y="294"/>
      <point x="505" y="364"/>
      <point x="390" y="382" type="curve"/>
      <point x="410" y="371" type="line"/>
      <point x="410" y="384" type="line"/>
      <point x="390" y="374" type="line"/>
      <point x="478" y="392"/>
      <point x="550" y="454"/>
      <point x="550" y="543" type="curve" smooth="yes"/>
      <point x="550" y="648"/>
      <point x="444" y="720"/>
    </contour>
  </outline>
</glyph>
<glyph name="eight.oldtab" format="2">
  <advance width="652"/>
  <outline>
    <contour>
      <point x="326" y="21" type="curve"/>
      <point x="203" y="21"/>
      <point x="106" y="89"/>
      <point x="106" y="197" type="curve" smooth="yes"/>
      <point x="106" y="300"/>
      <point x="203" y="361"/>
      <point x="326" y="361" type="curve"/>
      <point x="449" y="361"/>
      <point x="546" y="300"/>
      <point x="546" y="197" type="curve" smooth="yes"/>
      <point x="546" y="89"/>
      <point x="449" y="21"/>
    </contour>
    <contour>
      <point x="326" y="391" type="curve"/>
      <point x="229" y="391"/>
      <point x="145" y="447"/>
      <point x="145" y="538" type="curve" smooth="yes"/>
      <point x="145" y="630"/>
      <point x="223" y="689"/>
      <point x="326" y="689" type="curve"/>
      <point x="429" y="689"/>
      <point x="508" y="630"/>
      <point x="508" y="538" type="curve" smooth="yes"/>
      <point x="508" y="447"/>
      <point x="423" y="391"/>
    </contour>
    <contour>
      <point x="326" y="720" type="curve"/>
      <point x="209" y="720"/>
      <point x="103" y="648"/>
      <point x="103" y="543" type="curve" smooth="yes"/>
      <point x="103" y="451"/>
      <point x="179" y="389"/>
      <point x="273" y="373" type="curve"/>
      <point x="245" y="392" type="line"/>
      <point x="245" y="364" type="line"/>
      <point x="273" y="383" type="line"/>
      <point x="158" y="367"/>
      <point x="63" y="297"/>
      <point x="63" y="192" type="curve" smooth="yes"/>
      <point x="63" y="72"/>
      <point x="184" y="-10"/>
      <point x="326" y="-10" type="curve"/>
      <point x="469" y="-10"/>
      <point x="590" y="72"/>
      <point x="590" y="192" type="curve" smooth="yes"/>
      <point x="590" y="297"/>
      <point x="495" y="367"/>
      <point x="379" y="383" type="curve"/>
      <point x="407" y="364" type="line"/>
      <point x="407" y="392" type="line"/>
      <point x="379" y="373" type="line"/>
      <point x="473" y="389"/>
      <point x="550" y="451"/>
      <point x="550" y="543" type="curve" smooth="yes"/>
      <point x="550" y="648"/>
      <point x="443" y="720"/>
    </contour>
  </outline>
</glyph>
<glyph name="f.short" format="2">
  <advance width="426"/>
  <outline>
    <contour>
      <point x="40" y="508" type="line"/>
      <point x="40" y="480" type="line"/>
      <point x="386" y="480" type="line"/>
      <point x="386" y="508" type="line"/>
    </contour>
    <contour>
      <point x="203" y="38" type="curve" smooth="yes"/>
      <point x="203" y="605" type="line" smooth="yes"/>
      <point x="203" y="697"/>
      <point x="248" y="721"/>
      <point x="312" y="721" type="curve" smooth="yes"/>
      <point x="350" y="721"/>
      <point x="368" y="713"/>
      <point x="384" y="708" type="curve"/>
      <point x="384" y="742" type="line"/>
      <point x="371" y="746"/>
      <point x="352" y="752"/>
      <point x="314" y="752" type="curve" smooth="yes"/>
      <point x="230" y="752"/>
      <point x="162" y="712"/>
      <point x="162" y="605" type="curve" smooth="yes"/>
      <point x="162" y="64" type="line" smooth="yes"/>
      <point x="162" y="35"/>
      <point x="123" y="28"/>
      <point x="59" y="28" type="curve" smooth="yes"/>
      <point x="46" y="28" type="line"/>
      <point x="46" y="0" type="line"/>
      <point x="328" y="0" type="line"/>
      <point x="328" y="28" type="line"/>
      <point x="313" y="28" type="line" smooth="yes"/>
      <point x="250" y="28"/>
      <point x="203" y="31"/>
    </contour>
  </outline>
</glyph>
<glyph name="f_f.short" format="2">
  <advance width="807"/>
  <outline>
    <contour>
      <point x="40" y="508" type="line"/>
      <point x="40" y="480" type="line"/>
      <point x="518" y="480" type="line"/>
      <point x="518" y="508" type="line"/>
    </contour>
    <contour>
      <point x="420" y="508" type="line"/>
      <point x="420" y="480" type="line"/>
      <point x="766" y="480" type="line"/>
      <point x="766" y="508" type="line"/>
    </contour>
    <contour>
      <point x="541" y="38" type="line"/>
      <point x="541" y="31"/>
      <point x="487" y="28"/>
      <point x="445" y="28" type="curve" smooth="yes"/>
      <point x="426" y="28" type="line"/>
      <point x="426" y="0" type="line"/>
      <point x="708" y="0" type="line"/>
      <point x="708" y="28" type="line"/>
      <point x="693" y="28" type="line" smooth="yes"/>
      <point x="630" y="28"/>
      <point x="582" y="31"/>
      <point x="582" y="38" type="curve" smooth="yes"/>
      <point x="582" y="605" type="line" smooth="yes"/>
      <point x="582" y="697"/>
      <point x="628" y="721"/>
      <point x="692" y="721" type="curve" smooth="yes"/>
      <point x="729" y="721"/>
      <point x="748" y="713"/>
      <point x="764" y="708" type="curve"/>
      <point x="764" y="742" type="line"/>
      <point x="751" y="746"/>
      <point x="732" y="752"/>
      <point x="694" y="752" type="curve" smooth="yes"/>
      <point x="609" y="752"/>
      <point x="541" y="712"/>
      <point x="541" y="605" type="curve"/>
    </contour>
    <contour>
      <point x="203" y="38" type="curve"/>
      <point x="203" y="576" type="line" smooth="yes"/>
      <point x="203" y="675"/>
      <point x="246" y="709"/>
      <point x="321" y="709" type="curve" smooth="yes"/>
      <point x="359" y="709"/>
      <point x="389" y="700"/>
      <point x="414" y="692" type="curve"/>
      <point x="414" y="727" type="line"/>
      <point x="392" y="733"/>
      <point x="359" y="737"/>
      <point x="324" y="737" type="curve" smooth="yes"/>
      <point x="228" y="737"/>
      <point x="162" y="690"/>
      <point x="162" y="576" type="curve" smooth="yes"/>
      <point x="162" y="64" type="line" smooth="yes"/>
      <point x="162" y="35"/>
      <point x="123" y="28"/>
      <point x="59" y="28" type="curve" smooth="yes"/>
      <point x="46" y="28" type="line"/>
      <point x="46" y="0" type="line"/>
      <point x="331" y="0" type="line"/>
      <point x="331" y="28" type="line"/>
      <point x="315" y="28" type="line" smooth="yes"/>
      <point x="251" y="28"/>
      <point x="203" y="31"/>
    </contour>
  </outline>
</glyph>
<glyph name="f_f_h" format="2">
  <advance width="1477"/>
  <outline>
    <contour>
      <point x="40" y="508" type="line"/>
      <point x="40" y="480" type="line"/>
      <point x="518" y="480" type="line"/>
      <point x="518" y="508" type="line"/>
    </contour>
    <contour>
      <point x="1305" y="38" type="line" smooth="yes"/>
      <point x="1305" y="31"/>
      <point x="1252" y="28"/>
      <point x="1220" y="28" type="curve" smooth="yes"/>
      <point x="1217" y="28" type="line"/>
      <point x="1217" y="0" type="line"/>
      <point x="1444" y="0" type="line"/>
      <point x="1444" y="28" type="line"/>
      <point x="1441" y="28" type="line" smooth="yes"/>
      <point x="1385" y="28"/>
      <point x="1346" y="35"/>
      <point x="1346" y="64" type="curve" smooth="yes"/>
      <point x="1346" y="357" type="line" smooth="yes"/>
      <point x="1346" y="468"/>
      <point x="1283" y="518"/>
      <point x="1174" y="518" type="curve" smooth="yes"/>
      <point x="1072" y="518"/>
      <point x="999" y="468"/>
      <point x="927" y="365" type="curve"/>
      <point x="936" y="334" type="line"/>
      <point x="999" y="427"/>
      <point x="1070" y="484"/>
      <point x="1167" y="484" type="curve" smooth="yes"/>
      <point x="1269" y="484"/>
      <point x="1305" y="441"/>
      <point x="1305" y="346" type="curve" smooth="yes"/>
    </contour>
    <contour>
      <point x="420" y="508" type="line"/>
      <point x="420" y="480" type="line"/>
      <point x="772" y="480" type="line"/>
      <point x="772" y="508" type="line"/>
    </contour>
    <contour>
      <point x="824" y="0" type="line"/>
      <point x="1049" y="0" type="line"/>
      <point x="1049" y="28" type="line"/>
      <point x="1046" y="28" type="line" smooth="yes"/>
      <point x="1013" y="28"/>
      <point x="962" y="31"/>
      <point x="962" y="38" type="curve"/>
      <point x="962" y="735" type="line"/>
      <point x="861" y="735" type="line"/>
      <point x="921" y="703" type="line"/>
      <point x="921" y="38" type="line"/>
      <point x="921" y="31"/>
      <point x="869" y="28"/>
      <point x="836" y="28" type="curve" smooth="yes"/>
      <point x="824" y="28" type="line"/>
    </contour>
    <contour>
      <point x="162" y="64" type="line"/>
      <point x="162" y="35"/>
      <point x="123" y="28"/>
      <point x="59" y="28" type="curve" smooth="yes"/>
      <point x="46" y="28" type="line"/>
      <point x="46" y="0" type="line"/>
      <point x="331" y="0" type="line"/>
      <point x="331" y="28" type="line"/>
      <point x="315" y="28" type="line" smooth="yes"/>
      <point x="251" y="28"/>
      <point x="203" y="31"/>
      <point x="203" y="38" type="curve"/>
      <point x="203" y="576" type="line" smooth="yes"/>
      <point x="203" y="675"/>
      <point x="246" y="709"/>
      <point x="321" y="709" type="curve" smooth="yes"/>
      <point x="359" y="709"/>
      <point x="389" y="700"/>
      <point x="414" y="692" type="curve"/>
      <point x="414" y="727" type="line"/>
      <point x="392" y="733"/>
      <point x="359" y="737"/>
      <point x="324" y="737" type="curve" smooth="yes"/>
      <point x="228" y="737"/>
      <point x="162" y="690"/>
      <point x="162" y="576" type="curve" smooth="yes"/>
    </contour>
    <contour>
      <point x="541" y="38" type="line"/>
      <point x="541" y="31"/>
      <point x="493" y="28"/>
      <point x="429" y="28" type="curve" smooth="yes"/>
      <point x="426" y="28" type="line"/>
      <point x="426" y="0" type="line"/>
      <point x="709" y="0" type="line"/>
      <point x="709" y="28" type="line"/>
      <point x="694" y="28" type="line" smooth="yes"/>
      <point x="630" y="28"/>
      <point x="582" y="31"/>
      <point x="582" y="38" type="curve"/>
      <point x="582" y="595" type="line" smooth="yes"/>
      <point x="582" y="694"/>
      <point x="638" y="721"/>
      <point x="753" y="721" type="curve" smooth="yes"/>
      <point x="821" y="721"/>
      <point x="890" y="706"/>
      <point x="945" y="671" type="curve"/>
      <point x="953" y="711" type="line"/>
      <point x="910" y="727"/>
      <point x="847" y="752"/>
      <point x="753" y="752" type="curve" smooth="yes"/>
      <point x="619" y="752"/>
      <point x="541" y="709"/>
      <point x="541" y="595" type="curve"/>
    </contour>
  </outline>
</glyph>
<glyph name="f_f_i.alt" format="2">
  <advance width="1104"/>
  <outline>
    <contour>
      <point x="40" y="508" type="line"/>
      <point x="40" y="480" type="line"/>
      <point x="518" y="480" type="line"/>
      <point x="518" y="508" type="line"/>
    </contour>
    <contour>
      <point x="420" y="508" type="line"/>
      <point x="420" y="480" type="line"/>
      <point x="888" y="480" type="line"/>
      <point x="888" y="508" type="line"/>
    </contour>
    <contour>
      <point x="823" y="0" type="line"/>
      <point x="1060" y="0" type="line"/>
      <point x="1060" y="28" type="line"/>
      <point x="1057" y="28" type="line" smooth="yes"/>
      <point x="1001" y="28"/>
      <point x="962" y="35"/>
      <point x="962" y="64" type="curve" smooth="yes"/>
      <point x="962" y="508" type="line"/>
      <point x="824" y="508" type="line"/>
      <point x="824" y="480" type="line"/>
      <point x="835" y="480" type="line" smooth="yes"/>
      <point x="894" y="480"/>
      <point x="921" y="466"/>
      <point x="921" y="437" type="curve"/>
      <point x="921" y="38" type="line"/>
      <point x="921" y="31"/>
      <point x="869" y="28"/>
      <point x="836" y="28" type="curve" smooth="yes"/>
      <point x="823" y="28" type="line"/>
    </contour>
    <contour>
      <point x="582" y="38" type="curve" smooth="yes"/>
      <point x="582" y="579" type="line" smooth="yes"/>
      <point x="582" y="690"/>
      <point x="665" y="721"/>
      <point x="768" y="721" type="curve" smooth="yes"/>
      <point x="838" y="721"/>
      <point x="894" y="707"/>
      <point x="931" y="674" type="curve"/>
      <point x="937" y="702"/>
      <point x="924" y="704"/>
      <point x="902" y="726" type="curve"/>
      <point x="902" y="638" type="line"/>
      <point x="953" y="638" type="line"/>
      <point x="953" y="707" type="line"/>
      <point x="920" y="731"/>
      <point x="860" y="752"/>
      <point x="768" y="752" type="curve" smooth="yes"/>
      <point x="642" y="752"/>
      <point x="541" y="706"/>
      <point x="541" y="579" type="curve" smooth="yes"/>
      <point x="541" y="38" type="line"/>
      <point x="541" y="31"/>
      <point x="493" y="28"/>
      <point x="429" y="28" type="curve" smooth="yes"/>
      <point x="426" y="28" type="line"/>
      <point x="426" y="0" type="line"/>
      <point x="709" y="0" type="line"/>
      <point x="709" y="28" type="line"/>
      <point x="694" y="28" type="line" smooth="yes"/>
      <point x="630" y="28"/>
      <point x="582" y="31"/>
    </contour>
    <contour>
      <point x="46" y="0" type="line"/>
      <point x="331" y="0" type="line"/>
      <point x="331" y="28" type="line"/>
      <point x="315" y="28" type="line" smooth="yes"/>
      <point x="251" y="28"/>
      <point x="203" y="31"/>
      <point x="203" y="38" type="curve" smooth="yes"/>
      <point x="203" y="559" type="line" smooth="yes"/>
      <point x="203" y="670"/>
      <point x="292" y="701"/>
      <point x="393" y="701" type="curve" smooth="yes"/>
      <point x="466" y="701"/>
      <point x="531" y="683"/>
      <point x="571" y="636" type="curve"/>
      <point x="577" y="678"/>
      <point x="564" y="680"/>
      <point x="541" y="691" type="curve"/>
      <point x="541" y="568" type="line"/>
      <point x="580" y="618" type="line"/>
      <point x="580" y="681" type="line"/>
      <point x="548" y="707"/>
      <point x="486" y="732"/>
      <point x="393" y="732" type="curve" smooth="yes"/>
      <point x="262" y="732"/>
      <point x="162" y="686"/>
      <point x="162" y="559" type="curve" smooth="yes"/>
      <point x="162" y="64" type="line"/>
      <point x="162" y="35"/>
      <point x="123" y="28"/>
      <point x="59" y="28" type="curve" smooth="yes"/>
      <point x="46" y="28" type="line"/>
    </contour>
  </outline>
</glyph>
<glyph name="f_f_j.alt" format="2">
  <advance width="1075"/>
  <outline>
    <contour>
      <point x="46" y="0" type="line"/>
      <point x="331" y="0" type="line"/>
      <point x="331" y="28" type="line"/>
      <point x="315" y="28" type="line" smooth="yes"/>
      <point x="251" y="28"/>
      <point x="203" y="31"/>
      <point x="203" y="38" type="curve" smooth="yes"/>
      <point x="203" y="559" type="line" smooth="yes"/>
      <point x="203" y="670"/>
      <point x="292" y="701"/>
      <point x="393" y="701" type="curve" smooth="yes"/>
      <point x="466" y="701"/>
      <point x="531" y="683"/>
      <point x="571" y="636" type="curve"/>
      <point x="577" y="678"/>
      <point x="564" y="680"/>
      <point x="541" y="691" type="curve"/>
      <point x="541" y="568" type="line"/>
      <point x="580" y="618" type="line"/>
      <point x="580" y="681" type="line"/>
      <point x="548" y="707"/>
      <point x="486" y="732"/>
      <point x="393" y="732" type="curve" smooth="yes"/>
      <point x="262" y="732"/>
      <point x="162" y="686"/>
      <point x="162" y="559" type="curve" smooth="yes"/>
      <point x="162" y="64" type="line"/>
      <point x="162" y="35"/>
      <point x="123" y="28"/>
      <point x="59" y="28" type="curve" smooth="yes"/>
      <point x="46" y="28" type="line"/>
    </contour>
    <contour>
      <point x="541" y="38" type="line" smooth="yes"/>
      <point x="541" y="31"/>
      <point x="487" y="28"/>
      <point x="445" y="28" type="curve" smooth="yes"/>
      <point x="426" y="28" type="line"/>
      <point x="426" y="0" type="line"/>
      <point x="709" y="0" type="line"/>
      <point x="709" y="28" type="line"/>
      <point x="694" y="28" type="line" smooth="yes"/>
      <point x="630" y="28"/>
      <point x="582" y="31"/>
      <point x="582" y="38" type="curve"/>
      <point x="582" y="579" type="line" smooth="yes"/>
      <point x="582" y="690"/>
      <point x="665" y="721"/>
      <point x="768" y="721" type="curve" smooth="yes"/>
      <point x="838" y="721"/>
      <point x="894" y="707"/>
      <point x="931" y="674" type="curve"/>
      <point x="937" y="702"/>
      <point x="924" y="704"/>
      <point x="902" y="726" type="curve"/>
      <point x="902" y="638" type="line"/>
      <point x="953" y="638" type="line"/>
      <point x="953" y="707" type="line"/>
      <point x="920" y="731"/>
      <point x="860" y="752"/>
      <point x="768" y="752" type="curve" smooth="yes"/>
      <point x="642" y="752"/>
      <point x="541" y="706"/>
      <point x="541" y="579" type="curve" smooth="yes"/>
    </contour>
    <contour>
      <point x="921" y="-74" type="line" smooth="yes"/>
      <point x="921" y="-171"/>
      <point x="875" y="-203"/>
      <point x="800" y="-203" type="curve" smooth="yes"/>
      <point x="756" y="-203"/>
      <point x="723" y="-194"/>
      <point x="697" y="-185" type="curve"/>
      <point x="697" y="-220" type="line"/>
      <point x="719" y="-229"/>
      <point x="750" y="-236"/>
      <point x="800" y="-236" type="curve" smooth="yes"/>
      <point x="878" y="-236"/>
      <point x="962" y="-204"/>
      <point x="962" y="-74" type="curve" smooth="yes"/>
      <point x="962" y="508" type="line"/>
      <point x="824" y="508" type="line"/>
      <point x="824" y="480" type="line"/>
      <point x="835" y="480" type="line" smooth="yes"/>
      <point x="894" y="480"/>
      <point x="921" y="466"/>
      <point x="921" y="437" type="curve" smooth="yes"/>
    </contour>
    <contour>
      <point x="40" y="508" type="line"/>
      <point x="40" y="480" type="line"/>
      <point x="520" y="480" type="line"/>
      <point x="520" y="508" type="line"/>
    </contour>
    <contour>
      <point x="420" y="508" type="line"/>
      <point x="420" y="480" type="line"/>
      <point x="891" y="480" type="line"/>
      <point x="891" y="508" type="line"/>
    </contour>
  </outline>
</glyph>
